<svg width="32" height="32" viewBox="0 0 32 32" fill="none" xmlns="http://www.w3.org/2000/svg">
<path fill-rule="evenodd" clip-rule="evenodd" d="M13.1074 9.70111C13.1074 9.00728 13.0944 8.31345 13.1074 7.61441C13.1147 7.49491 13.0965 7.37522 13.0539 7.26333C13.0113 7.15143 12.9454 7.0499 12.8605 6.96549C12.7756 6.88108 12.6737 6.81573 12.5616 6.77381C12.4495 6.73188 12.3297 6.71434 12.2103 6.72234C11.3992 6.74321 10.5855 6.72234 9.7718 6.72234C9.6839 6.72272 9.5963 6.71221 9.511 6.69104C9.47411 6.68615 9.4391 6.67183 9.40936 6.64947C9.37962 6.6271 9.35615 6.59745 9.3412 6.56336C9.32626 6.52928 9.32036 6.49192 9.32406 6.45489C9.32776 6.41786 9.34095 6.3824 9.36234 6.35195C9.39984 6.29125 9.44547 6.23596 9.49796 6.18763L15.4155 0.256189C15.4888 0.175498 15.5782 0.111026 15.6779 0.0669079C15.7776 0.02279 15.8855 0 15.9945 0C16.1035 0 16.2113 0.02279 16.311 0.0669079C16.4107 0.111026 16.5001 0.175498 16.5735 0.256189L22.4806 6.16415C22.5901 6.2737 22.7179 6.3963 22.6449 6.56584C22.5718 6.73539 22.3841 6.72495 22.2406 6.72756C21.4582 6.72756 20.6967 6.74582 19.9273 6.72756C19.8043 6.71808 19.6806 6.73543 19.5649 6.77843C19.4491 6.82142 19.3441 6.88903 19.2571 6.97658C19.1701 7.06413 19.1031 7.16953 19.0607 7.28551C19.0184 7.40149 19.0017 7.52527 19.0119 7.64832C19.0119 9.04119 19.0119 10.4341 19.0119 11.8217C19.0191 11.9405 19.0011 12.0595 18.959 12.1708C18.9169 12.2821 18.8516 12.3833 18.7676 12.4675C18.6836 12.5518 18.5827 12.6173 18.4715 12.6598C18.3603 12.7022 18.2414 12.7206 18.1226 12.7138C16.7351 12.6981 15.3477 12.7138 13.9498 12.7138C13.8338 12.7261 13.7164 12.7123 13.6064 12.6734C13.4964 12.6345 13.3965 12.5715 13.314 12.489C13.2314 12.4064 13.1684 12.3065 13.1295 12.1965C13.0906 12.0864 13.0768 11.9691 13.0892 11.853V9.70111H13.1074ZM13.1074 22.2891V20.012C13.0992 19.8997 13.1153 19.787 13.1547 19.6815C13.194 19.576 13.2556 19.4803 13.3354 19.4008C13.4151 19.3213 13.511 19.26 13.6166 19.2209C13.7222 19.1819 13.835 19.1662 13.9472 19.1747C15.3633 19.1747 16.7769 19.1747 18.193 19.1747C18.3016 19.174 18.4092 19.1949 18.5096 19.236C18.6101 19.2771 18.7013 19.3378 18.7782 19.4144C18.8551 19.4911 18.916 19.5822 18.9575 19.6825C18.9989 19.7829 19.0201 19.8904 19.0198 19.999C19.0067 21.4962 19.0198 22.996 19.0198 24.4932C19.0094 24.6188 19.0255 24.7451 19.0668 24.8641C19.1081 24.9831 19.1738 25.0922 19.2597 25.1844C19.3341 25.2618 19.4237 25.3231 19.5229 25.3644C19.6221 25.4057 19.7287 25.4261 19.8361 25.4244H22.0685C22.1642 25.4231 22.2597 25.4336 22.3528 25.4557C22.3885 25.4605 22.4224 25.4744 22.4512 25.496C22.48 25.5176 22.5029 25.5463 22.5175 25.5792C22.5321 25.6122 22.5381 25.6483 22.5348 25.6842C22.5316 25.7201 22.5192 25.7546 22.4988 25.7843C22.4604 25.8566 22.4112 25.9226 22.3528 25.98L16.5682 31.7497C16.4979 31.8255 16.4133 31.8866 16.3193 31.9295C16.2253 31.9723 16.1236 31.9962 16.0203 31.9996C15.917 32.003 15.8141 31.9859 15.7174 31.9492C15.6208 31.9126 15.5323 31.8572 15.4572 31.7862C15.4207 31.7523 15.3842 31.7184 15.3477 31.6819L10.6064 26.932C10.2812 26.6068 9.95696 26.279 9.63357 25.9487C9.53186 25.8443 9.4145 25.7322 9.48231 25.5678C9.55012 25.4035 9.71442 25.4061 9.86047 25.4061H12.2572C12.3707 25.4146 12.4847 25.3986 12.5914 25.3592C12.6982 25.3198 12.7953 25.258 12.8761 25.1779C12.957 25.0978 13.0197 25.0013 13.06 24.8948C13.1004 24.7884 13.1174 24.6746 13.11 24.561C13.11 23.802 13.11 23.0429 13.11 22.2865L13.1074 22.2891ZM6.65524 15.9899C6.65524 18.0314 6.65524 20.072 6.65524 22.1117C6.65713 22.2162 6.64573 22.3205 6.62134 22.4221C6.61642 22.4578 6.60238 22.4916 6.58056 22.5202C6.55875 22.5488 6.52991 22.5713 6.49684 22.5855C6.46377 22.5996 6.42759 22.605 6.39183 22.6011C6.35606 22.5971 6.32193 22.584 6.29273 22.563C6.20891 22.5162 6.13245 22.4573 6.06583 22.3882L0.27608 16.6003C0.18813 16.5242 0.117859 16.4298 0.070182 16.3238C0.0225054 16.2177 -0.00142489 16.1025 6.55851e-05 15.9863C0.00155607 15.87 0.0284314 15.7554 0.0788109 15.6506C0.12919 15.5458 0.201857 15.4533 0.291728 15.3795L6.09452 9.57851C6.20666 9.46635 6.33185 9.34376 6.49876 9.41679C6.66567 9.48983 6.65524 9.65937 6.65524 9.81066V15.9899ZM25.4772 15.9899C25.4772 14.0127 25.4772 12.0356 25.4772 10.0585C25.4738 9.93552 25.487 9.81271 25.5163 9.69328C25.5225 9.66147 25.5365 9.63169 25.557 9.60655C25.5774 9.5814 25.6037 9.56165 25.6336 9.54904C25.6635 9.53642 25.696 9.53132 25.7282 9.53419C25.7605 9.53705 25.7916 9.54779 25.8188 9.56547C25.8963 9.6028 25.9669 9.65308 26.0274 9.71415C27.94 11.627 29.8525 13.5354 31.765 15.4395C31.9088 15.5803 31.9928 15.771 31.9996 15.9721C32.0064 16.1732 31.9354 16.3692 31.8015 16.5194C31.765 16.5611 31.7285 16.6002 31.6894 16.6394L27.9808 20.338L26.0405 22.2735C25.9283 22.3856 25.811 22.5082 25.6388 22.4378C25.4667 22.3674 25.4902 22.2056 25.4798 22.0596C25.4798 22.0048 25.4798 21.95 25.4798 21.8952C25.4798 19.9268 25.4798 17.9583 25.4798 15.9899H25.4772Z" fill="#FF090B"/>
</svg>
