<svg id="Слой_1" data-name="Слой 1" xmlns="http://www.w3.org/2000/svg" viewBox="0 0 23.82 21.87"><path d="M15.63,19.72V16.81a.87.87,0,0,0-.13-.45.92.92,0,0,0-.34-.34l-2.57-1.45a1,1,0,0,0-.47-.12.94.94,0,0,0-.47.12L9.08,16a.92.92,0,0,0-.34.34.79.79,0,0,0-.13.45v2.91a.81.81,0,0,0,.13.45.92.92,0,0,0,.34.34L11.65,22a.94.94,0,0,0,.47.12,1,1,0,0,0,.47-.12l2.57-1.45a.92.92,0,0,0,.34-.34A.9.9,0,0,0,15.63,19.72Z" transform="translate(-0.21 -0.21)" style="fill:#08a835"/><path d="M24,19.72V16.81a.87.87,0,0,0-.13-.45.92.92,0,0,0-.34-.34L21,14.57a1,1,0,0,0-.47-.12.94.94,0,0,0-.47.12L17.48,16a.92.92,0,0,0-.34.34.79.79,0,0,0-.13.45v2.91a.81.81,0,0,0,.13.45.92.92,0,0,0,.34.34L20.05,22a.94.94,0,0,0,.47.12A1,1,0,0,0,21,22l2.57-1.45a.92.92,0,0,0,.34-.34A.9.9,0,0,0,24,19.72Z" transform="translate(-0.21 -0.21)" style="fill:#08a835"/><path d="M11.43,12.6V9.7a.81.81,0,0,0-.12-.46A.92.92,0,0,0,11,8.9L8.39,7.45a.93.93,0,0,0-.46-.12.94.94,0,0,0-.47.12L4.89,8.9a1,1,0,0,0-.34.33.84.84,0,0,0-.13.46v2.9a.93.93,0,0,0,.12.46,1,1,0,0,0,.35.34l2.57,1.45a.9.9,0,0,0,.93,0L11,13.39a.9.9,0,0,0,.34-.33A.93.93,0,0,0,11.43,12.6Z" transform="translate(-0.21 -0.21)" style="fill:#08a835"/><path d="M19.83,12.6V9.7a.91.91,0,0,0-.13-.46.92.92,0,0,0-.34-.34L16.79,7.45a1,1,0,0,0-.94,0L13.28,8.9a1,1,0,0,0-.34.33.94.94,0,0,0-.13.46v2.9a.94.94,0,0,0,.13.46.92.92,0,0,0,.34.34l2.57,1.45a1,1,0,0,0,.94,0l2.57-1.45a.92.92,0,0,0,.34-.34A.87.87,0,0,0,19.83,12.6Z" transform="translate(-0.21 -0.21)" style="fill:#08a835"/><path d="M7.23,19.72V16.81a.87.87,0,0,0-.13-.45A.92.92,0,0,0,6.76,16L4.19,14.57a1,1,0,0,0-.47-.12.94.94,0,0,0-.47.12L.68,16a.92.92,0,0,0-.34.34.79.79,0,0,0-.13.45v2.91a.81.81,0,0,0,.13.45.92.92,0,0,0,.34.34L3.25,22a.94.94,0,0,0,.47.12A1,1,0,0,0,4.19,22l2.57-1.45a.92.92,0,0,0,.34-.34A.9.9,0,0,0,7.23,19.72Z" transform="translate(-0.21 -0.21)" style="fill:#08a835"/><path d="M15.63,5.48V2.58a.94.94,0,0,0-.13-.46.9.9,0,0,0-.34-.33L12.59.34a1,1,0,0,0-.47-.13,1,1,0,0,0-.47.13L9.08,1.79a.9.9,0,0,0-.34.33.84.84,0,0,0-.13.46v2.9a.84.84,0,0,0,.13.46,1,1,0,0,0,.34.34l2.57,1.45a.94.94,0,0,0,.47.12,1,1,0,0,0,.47-.12l2.57-1.45a1,1,0,0,0,.34-.34A.94.94,0,0,0,15.63,5.48Z" transform="translate(-0.21 -0.21)"/></svg>