<svg id="Слой_1" data-name="Слой 1" xmlns="http://www.w3.org/2000/svg" xmlns:xlink="http://www.w3.org/1999/xlink" viewBox="0 0 183.3 253.82"><defs><linearGradient id="Безымянный_градиент" y1="190.52" x2="183.11" y2="190.52" gradientUnits="userSpaceOnUse"><stop offset="0" stop-color="#4ec8ec"/><stop offset="0.01" stop-color="#4ec8ec"/><stop offset="1" stop-color="#4684c5"/></linearGradient><clipPath id="clip-path"><path d="M158.26,127.11v1H24.53v-1H0v1q0,58.86,24.14,92.34A77.86,77.86,0,0,0,91,253.84,79.38,79.38,0,0,0,159.17,221q23.94-32.9,23.94-92.59v-1.3Z" style="fill:url(#Безымянный_градиент)"/></clipPath><linearGradient id="Безымянный_градиент-3" x1="-0.13" y1="60.14" x2="183.18" y2="60.14" xlink:href="#Безымянный_градиент"/></defs><g id="Сгруппировать_4002" data-name="Сгруппировать 4002"><path d="M158.26,127.11v1H24.53v-1H0v1q0,58.86,24.14,92.34A77.86,77.86,0,0,0,91,253.84,79.38,79.38,0,0,0,159.17,221q23.94-32.9,23.94-92.59v-1.3Z" transform="translate(0.13 -0.11)" style="fill:url(#Безымянный_градиент)"/><path d="M81.37,214.45V192.32a23.68,23.68,0,1,1,19.79,0v22.13a9.93,9.93,0,0,1-19.79,1.62,8.77,8.77,0,0,1,0-1.62" transform="translate(0.13 -0.11)" style="fill:#fff"/><path d="M23.81,33.35C7.85,55.22-.13,78.77-.13,118.87v1.3H24.53v-1c0-32.44,5.71-50.55,17.19-67.61A56.78,56.78,0,0,1,92,25.63a55.74,55.74,0,0,1,49.77,25.5c11.22,17,16.87,34.91,16.87,67.81v1h24.53v-1c0-38.93-8.05-63-24.08-85.26A77.84,77.84,0,0,0,92.07.2,79.24,79.24,0,0,0,24,33.1" transform="translate(0.13 -0.11)" style="fill:url(#Безымянный_градиент-3)"/></g></svg>