<svg width="26" height="20" viewBox="0 0 26 20" fill="none" xmlns="http://www.w3.org/2000/svg">
<path d="M10 15V5.5C10 3 8 1 5.5 1C3 1 1 3 1 5.5V16C1 18 2.5 19 4 19C5.5 19 7 18 7 16V6.5C7 5.67157 6.32843 5 5.5 5C4.67157 5 4 5.67157 4 6.5V15" stroke="#999999" stroke-width="2" stroke-linecap="round"/>
<path d="M25 15V5.5C25 3 23 1 20.5 1C18 1 16 3 16 5.5V16C16 18 17.5 19 19 19C20.5 19 22 18 22 16V6.5C22 5.67157 21.3284 5 20.5 5C19.6716 5 19 5.67157 19 6.5V15" stroke="white" stroke-width="2" stroke-linecap="round"/>
</svg>
