<svg id="docs3.svg" xmlns="http://www.w3.org/2000/svg" width="124" height="166" viewBox="0 0 124 166">
  <defs>
    <style>
      .cls-1 {
        fill: #cacaca;
      }

      .cls-1, .cls-3 {
        fill-rule: evenodd;
      }

      .cls-2 {
        fill: #e01300;
      }

      .cls-3 {
        fill: #fff;
      }

      .cls-4 {
        fill: #3387de;
      }

      .cls-5 {
        fill: #4ba433;
      }

      .cls-6 {
        fill: #da820f;
      }

      .cls-7 {
        fill: #2659be;
      }

      .cls-8 {
        fill: #785cb5;
      }

      .cls-9 {
        fill: #c0432a;
      }

      .cls-10 {
        fill: #039200;
      }

      .cls-11 {
        fill: #df2649;
      }

      .cls-12 {
        fill: #d24628;
      }
    </style>
  </defs>
  <g id="_01_copy" data-name="01 copy">
    <path class="cls-1" d="M133,269v-6h2v4h30V239h-8v-8H135v12h-2V229h25.855L167,237.143V269H133Zm26-37v5h5Z" transform="translate(-127 -229)"/>
    <rect id="Rounded_Rectangle_822" data-name="Rounded Rectangle 822" class="cls-2" y="16" width="33" height="16" rx="2" ry="2"/>
    <path id="Rectangle_562_copy_4" data-name="Rectangle 562 copy 4" class="cls-3" d="M154,252v2h-3v3h-2v-8h5v2h-3v1h3Zm-10,5h-3v-8h3A4,4,0,1,1,144,257Zm0-6h-1v4h1A2,2,0,1,0,144,251Zm-6.5,3H135v3h-2v-8h4.5A2.5,2.5,0,0,1,137.5,254Zm0-3H135v1h2.5A0.5,0.5,0,1,0,137.5,251Z" transform="translate(-127 -229)"/>
  </g>
  <g id="_02_copy" data-name="02 copy">
    <path id="Rectangle_655_copy" data-name="Rectangle 655 copy" class="cls-1" d="M175,269v-6h2v4h30V239h-8v-8H177v12h-2V229h25.855L209,237.143V269H175Zm26-37v5h5Z" transform="translate(-127 -229)"/>
    <rect id="Rounded_Rectangle_822-2" data-name="Rounded Rectangle 822" class="cls-4" x="42" y="16" width="33" height="16" rx="2" ry="2"/>
  </g>
  <g id="_03_copy_3" data-name="03 copy 3">
    <path id="Rectangle_655_copy_2" data-name="Rectangle 655 copy 2" class="cls-1" d="M217,269v-6h2v4h30V239h-8v-8H219v12h-2V229h25.855L251,237.143V269H217Zm26-37v5h5Z" transform="translate(-127 -229)"/>
    <rect id="Rounded_Rectangle_822-3" data-name="Rounded Rectangle 822" class="cls-5" x="84" y="16" width="33" height="16" rx="2" ry="2"/>
  </g>
  <g id="_04_copy_2" data-name="04 copy 2">
    <path id="Rectangle_655_copy_3" data-name="Rectangle 655 copy 3" class="cls-1" d="M133,311v-6h2v4h30V281h-8v-8H135v12h-2V271h25.855L167,279.142V311H133Zm26-37v5h5Z" transform="translate(-127 -229)"/>
    <rect id="Rounded_Rectangle_822-4" data-name="Rounded Rectangle 822" class="cls-4" y="58" width="33" height="16" rx="2" ry="2"/>
  </g>
  <g id="_05_copy_2" data-name="05 copy 2">
    <path id="Rectangle_655_copy_4" data-name="Rectangle 655 copy 4" class="cls-1" d="M175,311v-6h2v4h30V281h-8v-8H177v12h-2V271h25.855L209,279.142V311H175Zm26-37v5h5Z" transform="translate(-127 -229)"/>
    <rect id="Rounded_Rectangle_822-5" data-name="Rounded Rectangle 822" class="cls-6" x="42" y="58" width="33" height="16" rx="2" ry="2"/>
  </g>
  <g id="_06_copy_2" data-name="06 copy 2">
    <path id="Rectangle_655_copy_5" data-name="Rectangle 655 copy 5" class="cls-1" d="M217,311v-6h2v4h30V281h-8v-8H219v12h-2V271h25.855L251,279.142V311H217Zm26-37v5h5Z" transform="translate(-127 -229)"/>
    <rect id="Rounded_Rectangle_822-6" data-name="Rounded Rectangle 822" class="cls-7" x="84" y="58" width="33" height="16" rx="2" ry="2"/>
  </g>
  <g id="_07_copy" data-name="07 copy">
    <path id="Rectangle_655_copy_6" data-name="Rectangle 655 copy 6" class="cls-1" d="M133,353v-6h2v4h30V323h-8v-8H135v12h-2V313h25.855L167,321.143V353H133Zm26-37v5h5Z" transform="translate(-127 -229)"/>
    <rect id="Rounded_Rectangle_822-7" data-name="Rounded Rectangle 822" class="cls-8" y="100" width="33" height="16" rx="2" ry="2"/>
  </g>
  <g id="_08_copy" data-name="08 copy">
    <path id="Rectangle_655_copy_7" data-name="Rectangle 655 copy 7" class="cls-1" d="M175,353v-6h2v4h30V323h-8v-8H177v12h-2V313h25.855L209,321.143V353H175Zm26-37v5h5Z" transform="translate(-127 -229)"/>
    <rect id="Rounded_Rectangle_822-8" data-name="Rounded Rectangle 822" class="cls-4" x="42" y="100" width="33" height="16" rx="2" ry="2"/>
  </g>
  <g id="_09_copy" data-name="09 copy">
    <path id="Rectangle_655_copy_8" data-name="Rectangle 655 copy 8" class="cls-1" d="M217,353v-6h2v4h30V323h-8v-8H219v12h-2V313h25.855L251,321.143V353H217Zm26-37v5h5Z" transform="translate(-127 -229)"/>
    <rect id="Rounded_Rectangle_822-9" data-name="Rounded Rectangle 822" class="cls-9" x="84" y="100" width="33" height="16" rx="2" ry="2"/>
  </g>
  <g id="_07_copy_2" data-name="07 copy 2">
    <path id="Rectangle_655_copy_6-2" data-name="Rectangle 655 copy 6" class="cls-1" d="M133,395v-6h2v4h30V365h-8v-8H135v12h-2V355h25.855L167,363.142V395H133Zm26-37v5h5Z" transform="translate(-127 -229)"/>
    <rect id="Rounded_Rectangle_822-10" data-name="Rounded Rectangle 822" class="cls-10" y="142" width="33" height="16" rx="2" ry="2"/>
  </g>
  <g id="_09_copy_2" data-name="09 copy 2">
    <path id="Rectangle_655_copy_8-2" data-name="Rectangle 655 copy 8" class="cls-1" d="M175,395v-6h2v4h30V365h-8v-8H177v12h-2V355h25.855L209,363.142V395H175Zm26-37v5h5Z" transform="translate(-127 -229)"/>
    <rect id="Rounded_Rectangle_822-11" data-name="Rounded Rectangle 822" class="cls-11" x="42" y="142" width="33" height="16" rx="2" ry="2"/>
  </g>
  <path id="Rectangle_655_copy_21" data-name="Rectangle 655 copy 21" class="cls-1" d="M217,395v-6h2v4h30V365h-8v-8H219v12h-2V355h25.855L251,363.142V395H217Zm26-37v5h5Z" transform="translate(-127 -229)"/>
  <rect id="Rounded_Rectangle_822_copy" data-name="Rounded Rectangle 822 copy" class="cls-12" x="84" y="142" width="33" height="16" rx="2" ry="2"/>
  <path id="Ellipse_224_copy_3" data-name="Ellipse 224 copy 3" class="cls-3" d="M196.325,251.512A1.978,1.978,0,0,0,195,251a2,2,0,1,0,1.325,3.487l1.11,1.666a4,4,0,1,1,0-6.307ZM186,257a4,4,0,1,1,4-4A4,4,0,0,1,186,257Zm0-6a2,2,0,1,0,2,2A2,2,0,0,0,186,251Zm-9,6h-3v-8h3A4,4,0,1,1,177,257Zm0-6h-1v4h1A2,2,0,1,0,177,251Z" transform="translate(-127 -229)"/>
  <path id="Rectangle_565_copy_2" data-name="Rectangle 565 copy 2" class="cls-3" d="M234.451,251.875a2.852,2.852,0,0,0,.454.147c0.171,0.063.36,0.1,0.567,0.163q0.645,0.22,1.122.436a3.047,3.047,0,0,1,.794.5,1.808,1.808,0,0,1,.471.674,2.514,2.514,0,0,1,.156.939,1.936,1.936,0,0,1-.812,1.663,4.147,4.147,0,0,1-2.447.592,7.387,7.387,0,0,1-.991-0.061,6.928,6.928,0,0,1-.782-0.149,4.776,4.776,0,0,1-.585-0.188,4.464,4.464,0,0,1-.412-0.188l0.525-1.839a4.886,4.886,0,0,0,.914.337,5.112,5.112,0,0,0,1.331.149,1.8,1.8,0,0,0,.525-0.061,1.236,1.236,0,0,0,.412-0.165,0.574,0.574,0,0,0,.215-0.249,0.321,0.321,0,0,0,.06-0.2c0-.25-0.128-0.27-0.382-0.436a5.736,5.736,0,0,0-1.189-.38c-0.27-.088-0.7-0.19-0.968-0.3a3.042,3.042,0,0,1-.728-0.431,2.08,2.08,0,0,1-.525-0.63,1.853,1.853,0,0,1-.2-0.9,2.091,2.091,0,0,1,.215-0.956,2.063,2.063,0,0,1,.609-0.724,2.867,2.867,0,0,1,.955-0.459,5.889,5.889,0,0,1,1.421-.16,5.527,5.527,0,0,1,1.445.166,5.428,5.428,0,0,1,1,.365l-0.538,1.484c-0.262-.048-0.3.011-0.769-0.074a5.347,5.347,0,0,0-1.021-.127,2,2,0,0,0-.961.171,0.462,0.462,0,0,0-.355.4,0.406,0.406,0,0,0,.107.291A1.3,1.3,0,0,0,234.451,251.875ZM226,257v-8h2v6h3v2h-5Zm-3.441,0L221,254.759,219.44,257h-2.449l2.784-4-2.784-4h2.449l1.56,2.24,1.559-2.24h2.45l-2.784,4,2.784,4h-2.45Z" transform="translate(-127 -229)"/>
  <path id="Rectangle_566_copy" data-name="Rectangle 566 copy" class="cls-3" d="M154,294v2h-3v3h-2v-8h5v2h-3v1h3Zm-8,5h-2v-6h-2v-2h6v2h-2v6Zm-7.3,0-1.72-3H136v3h-2v-8h4.5a2.494,2.494,0,0,1,.716,4.884L141,299h-2.3Zm-0.2-6H136v1h2.5A0.5,0.5,0,1,0,138.5,293Z" transform="translate(-127 -229)"/>
  <path id="Rounded_Rectangle_692_copy" data-name="Rounded Rectangle 692 copy" class="cls-3" d="M185.5,296H183v3h-2v-8h4.5A2.5,2.5,0,1,1,185.5,296Zm0-3H183v1h2.5A0.5,0.5,0,1,0,185.5,293Zm9.5,6h-2a4,4,0,1,1,2.8-6.849l-1.241,1.6-0.021-.01a2,2,0,1,0-.541,2.983V295h2v3Zm-18.5,0h-2a2.5,2.5,0,0,1-.5-0.05V296a1,1,0,0,0,1,1h1a1,1,0,0,0,1-1v-5h2v5.5A2.5,2.5,0,0,1,176.5,299Z" transform="translate(-127 -229)"/>
  <path id="Rectangle_569_copy" data-name="Rectangle 569 copy" class="cls-3" d="M238,294v2h-3v3h-2v-8h5v2h-3v1h3Zm-9,5h-2v-8h5v2h-3v1h3v2h-3v3Zm-6-8h2v8h-2v-8Zm-3,8h-2v-6h-2v-2h6v2h-2v6Z" transform="translate(-127 -229)"/>
  <path id="Rectangle_576_copy" data-name="Rectangle 576 copy" class="cls-3" d="M154,339v2h-5v-8h5v2h-3v1h3v2h-3v1h3Zm-11,2v-8h2v6h3v2h-5Zm-4-8h2v8h-2v-8Zm-5,8h-2v-8h5v2h-3v1h3v2h-3v3Z" transform="translate(-127 -229)"/>
  <path id="Rectangle_577_copy_2" data-name="Rectangle 577 copy 2" class="cls-3" d="M194,335v6h-2v-6h-2v-2h6v2h-2Zm-7.441,6L185,338.759,183.44,341h-2.449l2.784-4-2.784-4h2.449l1.56,2.24,1.559-2.24h2.45l-2.784,4,2.784,4h-2.45ZM178,341h-2v-6h-2v-2h6v2h-2v6Z" transform="translate(-127 -229)"/>
  <path id="Rectangle_578_copy_3" data-name="Rectangle 578 copy 3" class="cls-3" d="M238,341h-2a4,4,0,1,1,2.8-6.85l-1.241,1.6-0.021-.011a2,2,0,1,0-.541,2.983V337h2v3Zm-8.469,0L226,336.324V341h-2v-8h1.469L229,337.675V333h2v8h-1.469Zm-9.031-3H218v3h-2v-8h4.5A2.5,2.5,0,1,1,220.5,338Zm0-3H218v1h2.5A0.5,0.5,0,0,0,220.5,335Z" transform="translate(-127 -229)"/>
  <path id="Rectangle_578_copy_2" data-name="Rectangle 578 copy 2" class="cls-3" d="M149,383h-2v-8h5v2h-3v1h3v2h-3v3Zm-6-8h2v8h-2v-8Zm-3,8h-2a4,4,0,1,1,2.8-6.849l-1.241,1.6-0.021-.01a2,2,0,1,0-.541,2.983V379h2v3Z" transform="translate(-127 -229)"/>
  <path id="Rounded_Rectangle_904_copy" data-name="Rounded Rectangle 904 copy" class="cls-3" d="M195.5,380H193v3h-2v-8h4.5A2.5,2.5,0,0,1,195.5,380Zm0-3H193v1h2.5A0.5,0.5,0,1,0,195.5,377Zm-7.513,1.407-1.977,3.122-2.029-3.1L184,383l-2,.01V375h2.2L186,378.1,187.8,375H190v8.015l-2-.01ZM186,381.544l0.01-.015,0.01,0.015H186Zm-5-1.044a2.5,2.5,0,0,1-2.5,2.5H174v-8h4.5a2.5,2.5,0,0,1,2.5,2.5,2.062,2.062,0,0,1-1,1.5A1.774,1.774,0,0,1,181,380.5Zm-2.5-3.5H176v1h2.5A0.5,0.5,0,0,0,178.5,377Zm0,3H176v1h2.5A0.5,0.5,0,0,0,178.5,380Z" transform="translate(-127 -229)"/>
  <path id="Rounded_Rectangle_902_copy_3" data-name="Rounded Rectangle 902 copy 3" class="cls-3" d="M221.5,380H219v3h-2v-8h4.5A2.5,2.5,0,0,1,221.5,380Zm0-3H219v1h2.5A0.5,0.5,0,1,0,221.5,377Zm8,3H227v3h-2v-8h4.5A2.5,2.5,0,0,1,229.5,380Zm0-3H227v1h2.5A0.5,0.5,0,1,0,229.5,377Zm7.5,0v6h-2v-6h-2v-2h6v2h-2Z" transform="translate(-127 -229)"/>
</svg>
