<svg width="18" height="14" viewBox="0 0 18 14" fill="none" xmlns="http://www.w3.org/2000/svg">
<path fill-rule="evenodd" clip-rule="evenodd" d="M17.3729 8.88706C17.547 8.60672 17.678 8.37091 17.7669 8.20184C17.8839 7.9794 17.9996 7.74645 17.9996 7.5C17.9996 7.2503 17.8831 7.01908 17.7669 6.79816C17.678 6.62909 17.547 6.39328 17.3729 6.11294C17.0257 5.55408 16.5006 4.80828 15.7859 4.05952C14.3588 2.5645 12.1147 1 9 1C5.8853 1 3.64122 2.5645 2.21415 4.05952C1.49942 4.80828 0.974291 5.55408 0.627122 6.11294C0.452975 6.39328 0.322052 6.62909 0.233122 6.79816C0.116963 7.01901 0.000244751 7.25044 0.000183132 7.5C0.000119368 7.75846 0.116051 7.97926 0.233122 8.20184C0.322052 8.37091 0.452975 8.60672 0.627122 8.88706C0.974291 9.44592 1.49942 10.1917 2.21415 10.9405C3.64122 12.4355 5.8853 14 9 14C12.1147 14 14.3588 12.4355 15.7859 10.9405C16.5006 10.1917 17.0257 9.44592 17.3729 8.88706ZM2.326 7.16831C2.2497 7.29114 2.18397 7.40269 2.12871 7.5C2.18397 7.59731 2.2497 7.70886 2.326 7.83169C2.61946 8.30408 3.06308 8.93328 3.66086 9.55952C4.85879 10.8145 6.6147 12 9 12C11.3853 12 13.1412 10.8145 14.3391 9.55952C14.9369 8.93328 15.3805 8.30408 15.674 7.83169C15.7503 7.70886 15.816 7.59731 15.8713 7.5C15.816 7.40269 15.7503 7.29114 15.674 7.16831C15.3805 6.69592 14.9369 6.06672 14.3391 5.44048C14.2304 5.32653 14.117 5.21316 13.999 5.10119C13.9451 7.8159 11.7276 10 9 10C6.27239 10 4.0549 7.81591 4.001 5.1012C3.88299 5.21316 3.76962 5.32653 3.66086 5.44048C3.06308 6.06672 2.61946 6.69592 2.326 7.16831ZM6.3927 3.51505C6.14279 3.9529 6 4.45977 6 5C6 6.65685 7.34315 8 9 8C10.6569 8 12 6.65685 12 5C12 4.45977 11.8572 3.95289 11.6073 3.51505C10.8395 3.19686 9.972 3 9 3C8.028 3 7.16051 3.19686 6.3927 3.51505Z" fill="#999999"/>
</svg>
