<svg width="18" height="14" viewBox="0 0 18 14" fill="none" xmlns="http://www.w3.org/2000/svg">
<rect width="18" height="14" fill="none"/>
<path d="M18.0003 5C18.0001 4.60324 17.7623 4.22788 17.3714 4.07152C17.0269 3.93372 16.6511 4.00103 16.3794 4.21554C16.2075 4.35132 16.1219 4.52991 16.0318 4.71778L16.0028 4.77794C15.9479 4.89108 15.8602 5.06022 15.7363 5.26675C15.4876 5.68121 15.0983 6.23744 14.5429 6.79289C13.4444 7.89139 11.6878 9 9 9L8.98808 9.00007C6.30706 8.99679 4.55412 7.88988 3.45728 6.79305C2.90183 6.23762 2.51261 5.68141 2.26394 5.26697C2.14003 5.06045 2.05232 4.89131 1.99737 4.77818L1.96841 4.71803C1.87836 4.53016 1.79276 4.35158 1.62077 4.2158C1.34907 4.00129 0.973351 3.93399 0.628854 4.07179C0.237965 4.22814 0.0001188 4.60348 -4.35172e-06 5.00023C-7.46772e-05 5.22562 0.102105 5.45369 0.198404 5.65195C0.276261 5.81224 0.391675 6.03371 0.549003 6.29592C0.776983 6.67589 1.0957 7.14595 1.51929 7.64095L0.199998 9.4C-0.131373 9.84183 -0.0418301 10.4686 0.399998 10.8C0.841826 11.1314 1.46863 11.0418 1.8 10.6L2.97814 9.02914C3.64436 9.54211 4.43994 10.0136 5.37753 10.3668L5.02986 11.7575C4.89591 12.2933 5.22167 12.8362 5.75747 12.9701C6.29326 13.1041 6.8362 12.7783 6.97015 12.2425L7.31263 10.8726C7.84129 10.9548 8.40331 11 9.00002 11L9.00326 11C9.59874 10.9998 10.1597 10.9547 10.6874 10.8726L11.0298 12.2425C11.1638 12.7783 11.7067 13.1041 12.2425 12.9701C12.7783 12.8362 13.1041 12.2933 12.9701 11.7575L12.6225 10.3668C13.5601 10.0137 14.3557 9.54215 15.0219 9.02919L16.2 10.6C16.5314 11.0418 17.1582 11.1314 17.6 10.8C18.0418 10.4686 18.1314 9.84183 17.8 9.4L16.4808 7.64102C16.9044 7.14593 17.2232 6.67577 17.4512 6.29575C17.6086 6.03352 17.724 5.81205 17.8018 5.65175C17.8981 5.45348 18.0003 5.2254 18.0003 5Z" fill="#999999"/>
</svg>
