<svg width="19" height="19" viewBox="0 0 19 19" fill="none" xmlns="http://www.w3.org/2000/svg">
	<path fill-rule="evenodd" clip-rule="evenodd" d="M9.99701 18.0024C5.02692 18.0019 0.998047 13.9727 0.998047 9.00244C0.998047 4.03188 5.02748 0.00244141 9.99805 0.00244141C14.9686 0.00244141 18.998 4.03188 18.998 9.00244C18.998 13.9716 14.9709 18.0001 10.0024 18.0024L9.99701 18.0024ZM12.5158 2.46887C12.9826 3.30341 13.4175 4.38411 13.6939 5.75706C14.3976 5.64376 15.1089 5.48466 15.9189 5.26672C15.1203 4.00358 13.9286 3.01368 12.5158 2.46887ZM11.6938 5.96391C11.4281 4.74804 11.0259 3.85761 10.6433 3.2273C10.4147 2.85079 10.1896 2.56147 9.99805 2.34713C9.80649 2.56147 9.58143 2.85079 9.35283 3.2273C8.97646 3.84721 8.58129 4.7187 8.31553 5.90395C8.91012 5.96487 9.48521 6.00244 9.99805 6.00244C10.6175 6.00244 11.1733 5.99096 11.6938 5.96391ZM8.03511 7.88552C8.71373 7.95687 9.38619 8.00244 9.99805 8.00244C10.7165 8.00244 11.3603 7.98726 11.9654 7.95176C11.9866 8.28513 11.998 8.63514 11.998 9.00244C11.998 9.36974 11.9866 9.71975 11.9654 10.0531C11.3603 10.0176 10.7165 10.0024 9.99805 10.0024C9.38619 10.0024 8.71373 10.048 8.03511 10.1194C8.01103 9.76619 7.99805 9.39415 7.99805 9.00244C7.99805 8.61073 8.01103 8.23869 8.03511 7.88552ZM6.3273 5.63515C6.60451 4.31995 7.02741 3.27856 7.48034 2.46887C6.08439 3.00715 4.90437 3.97993 4.10602 5.22144C4.51775 5.30734 5.04743 5.41266 5.639 5.5179C5.86212 5.55759 6.09247 5.59698 6.3273 5.63515ZM6.04937 7.61625C6.01599 8.05523 5.99805 8.51699 5.99805 9.00244C5.99805 9.48789 6.01599 9.94965 6.04937 10.3886C5.78639 10.4311 5.53156 10.4747 5.2887 10.5179C4.57266 10.6453 3.94497 10.7726 3.49594 10.8681C3.41206 10.8859 3.33435 10.9027 3.2634 10.9181C3.09056 10.3093 2.99805 9.66666 2.99805 9.00244C2.99805 8.33822 3.09056 7.69561 3.2634 7.08679C3.33435 7.10223 3.41206 7.11897 3.49594 7.13681C3.94497 7.23232 4.57266 7.3596 5.2887 7.48698C5.53156 7.53019 5.78639 7.57374 6.04937 7.61625ZM6.3273 12.3697C6.09247 12.4079 5.86212 12.4473 5.639 12.487C5.04743 12.5922 4.51775 12.6975 4.10602 12.7834C4.90437 14.025 6.08439 14.9977 7.48034 15.536C7.02741 14.7263 6.60451 13.6849 6.3273 12.3697ZM12.5158 15.536C12.9826 14.7015 13.4175 13.6208 13.6939 12.2478C14.3976 12.3611 15.1089 12.5202 15.9189 12.7382C15.1203 14.0013 13.9286 14.9912 12.5158 15.536ZM11.6938 12.041C11.1733 12.0139 10.6175 12.0024 9.99805 12.0024C9.48521 12.0024 8.91012 12.04 8.31553 12.1009C8.58129 13.2862 8.97646 14.1577 9.35283 14.7776C9.58143 15.1541 9.80649 15.4434 9.99804 15.6577C10.1896 15.4434 10.4147 15.1541 10.6433 14.7776C11.0259 14.1473 11.4281 13.2568 11.6938 12.041ZM13.9557 10.2643C14.8322 10.4028 15.7154 10.6048 16.7407 10.8895C16.9084 10.2892 16.998 9.65629 16.998 9.00244C16.998 8.34859 16.9084 7.71569 16.7407 7.11534C15.7154 7.40007 14.8322 7.60204 13.9557 7.74057C13.9833 8.1422 13.998 8.56259 13.998 9.00244C13.998 9.44229 13.9833 9.86269 13.9557 10.2643Z" fill="#888888"></path>
</svg>