<svg width="797" height="21" viewBox="0 0 797 21" fill="none" xmlns="http://www.w3.org/2000/svg" xmlns:xlink="http://www.w3.org/1999/xlink">
  <defs>
    <linearGradient id="gradient_5" x1="169.35" y1="5.58" x2="178.38" y2="9.96" gradientTransform="matrix(1, 0, 0, -1, 0, 22)" gradientUnits="userSpaceOnUse">
      <stop offset="0" stop-color="#1fadc3"/>
      <stop offset="0.71" stop-color="#36b98f"/>
    </linearGradient>
    <linearGradient id="gradient_6" x1="174.8" y1="8.76" x2="176.49" y2="9" gradientTransform="matrix(1, 0, 0, -1, 0, 22)" gradientUnits="userSpaceOnUse">
      <stop offset="0" stop-color="#123f06" stop-opacity="0.01"/>
      <stop offset="1" stop-color="#123f06"/>
    </linearGradient>
    <radialGradient id="gradient_7" cx="92.61" cy="406.6" r="0.04" gradientTransform="matrix(122.45, 0, 0, -139.95, -11167.07, 56914.85)" gradientUnits="userSpaceOnUse">
      <stop offset="0.42" stop-color="#123f06" stop-opacity="0.01"/>
      <stop offset="1" stop-color="#123f06"/>
    </radialGradient>
    <linearGradient id="gradient_8" x1="167.5" y1="15.83" x2="178.45" y2="12.05" gradientTransform="matrix(1, 0, 0, -1, 0, 22)" gradientUnits="userSpaceOnUse">
      <stop offset="0" stop-color="#9fdb57"/>
      <stop offset="1" stop-color="#71ca5e"/>
    </linearGradient>
    <linearGradient id="gradient_5-2" x1="177.6" y1="5.58" x2="186.63" y2="9.96" xlink:href="#gradient_5"/>
    <linearGradient id="gradient_6-2" x1="183.13" y1="8.83" x2="184.82" y2="9.07" xlink:href="#gradient_6"/>
    <radialGradient id="gradient_7-2" cx="90.79" cy="406.6" r="0.04" gradientTransform="matrix(122.45, 0, 0, -139.95, -10935.34, 56914.85)" xlink:href="#gradient_7"/>
    <linearGradient id="gradient_8-2" x1="175.75" y1="15.83" x2="186.7" y2="12.04" xlink:href="#gradient_8"/>
    <linearGradient id="gradient_3" x1="195.26" y1="6.89" x2="209.69" y2="6.89" gradientTransform="matrix(1, 0, 0, -1, 0.13, 21.89)" gradientUnits="userSpaceOnUse">
      <stop offset="0" stop-color="#4ec8ec"/>
      <stop offset="0.01" stop-color="#4ec8ec"/>
      <stop offset="1" stop-color="#4684c5"/>
    </linearGradient>
    <linearGradient id="gradient_3-2" x1="195.25" y1="17.16" x2="209.69" y2="17.16" xlink:href="#gradient_3"/>
    <linearGradient id="gradient_5-3" x1="480.82" y1="8" x2="487.24" y2="11.11" xlink:href="#gradient_5"/>
    <linearGradient id="gradient_6-3" x1="484.7" y1="10.25" x2="485.9" y2="10.43" xlink:href="#gradient_6"/>
    <radialGradient id="gradient_7-3" cx="90.62" cy="392.07" r="0.15" gradientTransform="matrix(19.99, 0, 0, -22.85, -1328.05, 8970.88)" xlink:href="#gradient_7"/>
    <linearGradient id="gradient_8-3" x1="479.51" y1="15.28" x2="487.29" y2="12.59" xlink:href="#gradient_8"/>
    <linearGradient id="gradient_5-4" x1="486.69" y1="7.99" x2="493.11" y2="11.11" xlink:href="#gradient_5"/>
    <linearGradient id="gradient_6-4" x1="490.62" y1="10.3" x2="491.82" y2="10.48" xlink:href="#gradient_6"/>
    <radialGradient id="gradient_7-4" cx="89.02" cy="392.07" r="0.15" gradientTransform="matrix(19.99, 0, 0, -22.85, -1290.21, 8970.88)" xlink:href="#gradient_7"/>
    <linearGradient id="gradient_8-4" x1="485.37" y1="15.28" x2="493.16" y2="12.59" xlink:href="#gradient_8"/>
    <linearGradient id="gradient_4" x1="688.85" y1="6.52" x2="696.47" y2="6.52" gradientTransform="matrix(1, 0, 0, -1, 0, 22)" gradientUnits="userSpaceOnUse">
      <stop offset="0" stop-color="#f8951d"/>
      <stop offset="0.5" stop-color="#f26424"/>
      <stop offset="1" stop-color="#e15c25"/>
    </linearGradient>
    <linearGradient id="gradient_4-2" x1="686.43" y1="11.07" x2="696.47" y2="11.07" xlink:href="#gradient_4"/>
    <linearGradient id="gradient_4-3" x1="686.43" y1="16.79" x2="696.47" y2="16.79" xlink:href="#gradient_4"/>
    <linearGradient id="gradient_4-4" x1="698.09" y1="6.52" x2="705.71" y2="6.52" xlink:href="#gradient_4"/>
    <linearGradient id="gradient_4-5" x1="698.08" y1="11.07" x2="708.13" y2="11.07" xlink:href="#gradient_4"/>
    <linearGradient id="gradient_4-6" x1="698.08" y1="16.79" x2="708.13" y2="16.79" xlink:href="#gradient_4"/>
  </defs>
  <path d="M11,0a1,1,0,0,1,.71.29A1,1,0,0,1,12,1V7a1,1,0,1,1-2,0V1a1,1,0,0,1,.29-.71A1,1,0,0,1,11,0Zm3,2a1,1,0,0,1,1,1V9a1,1,0,1,1-2,0V3a1,1,0,0,1,1-1ZM8,2A1,1,0,0,1,9,3V8A1,1,0,1,1,7,8V3A1,1,0,0,1,8,2ZM5,4A1,1,0,0,1,6,5V9a1,1,0,0,1-1.71.71A1,1,0,0,1,4,9V5A1,1,0,0,1,5,4Z" transform="translate(0 0.05)" style="fill: #f9c0b0;fill-rule: evenodd"/>
  <path d="M17,11v4.51a3.61,3.61,0,0,1-.87,2.54,7.08,7.08,0,0,1-1.48,1.13A6.44,6.44,0,0,1,11.5,20h-1A6.49,6.49,0,0,1,4,13.5v-1A6.31,6.31,0,0,1,4.21,11Z" transform="translate(0 0.05)" style="fill: #f9c0b0;fill-rule: evenodd"/>
  <path d="M18,6H2A2,2,0,0,0,0,8v5a2,2,0,0,0,2,2H18a2,2,0,0,0,2-2V8A2,2,0,0,0,18,6Z" transform="translate(0 0.05)" style="fill: #0d8f1f"/>
  <path d="M17,15.05A2,2,0,0,1,15.05,17h-3.7a3.5,3.5,0,0,1,.34-3.6,3.4,3.4,0,0,1,1.47-1.13A3.35,3.35,0,0,1,15,12.08V9a1.06,1.06,0,0,1,.29-.72,1,1,0,0,1,1.41,0A1,1,0,0,1,17,9Z" transform="translate(0 0.05)" style="fill: #f9c0b0;fill-rule: evenodd"/>
  <path d="M59.66,13.89c.1.42.38,2.1.38,2.1h3L60.4,4H57.94a1.92,1.92,0,0,0-1,.22,1.48,1.48,0,0,0-.64.78L51.56,16H54.9s.56-1.77.68-2.1ZM57.24,9.8c.33-.84.65-1.67.93-2.52.18.8.35,1.6.52,2.4s.29,1.39.45,2.08H56.5C56.73,11.1,57,10.45,57.24,9.8Z" transform="translate(0 0.05)" style="fill: #3156ff;fill-rule: evenodd"/>
  <path d="M47.32,7.52c0-.51.58-1,1.85-1a6.06,6.06,0,0,1,2.65.58l.43-2.59A8.39,8.39,0,0,0,49.39,4C46.24,4,44,5.63,44,7.94c0,1.62,1.42,2.29,2.6,2.84l.19.08c1.24.59,1.66,1,1.66,1.5-.11.87-1,1.15-1.91,1.15a9.3,9.3,0,0,1-3.43-.82l-.43,2.67a9.94,9.94,0,0,0,3.54.64c3.36,0,5.53-1.6,5.55-4.06,0-1.36-.83-2.11-2.66-2.94C48,8.45,47.32,8.09,47.32,7.52Z" transform="translate(0 0.05)" style="fill: #3156ff"/>
  <path d="M39.52,4.05,37.52,16h3.19l2-11.94Z" transform="translate(0 0.05)" style="fill: #3156ff"/>
  <path d="M27,5.69,29.85,16h3.38l5-11.94H34.87l-3.13,8.13Q31,8.57,30.22,5a1.16,1.16,0,0,0-.45-.68A1.46,1.46,0,0,0,29,4H24v.36a14.74,14.74,0,0,1,3,1.16Z" transform="translate(0 0.05)" style="fill: #3156ff"/>
  <path d="M76,19a9,9,0,1,0-9-9A9,9,0,0,0,76,19Z" transform="translate(0 0.05)" style="fill: #e70025"/>
  <path d="M85,19a9,9,0,1,0-9-9A9,9,0,0,0,85,19Z" transform="translate(0 0.05)" style="fill: #f59e2d"/>
  <path d="M80.5,2.2a9,9,0,0,0,0,15.6,9,9,0,0,0,0-15.6Z" transform="translate(0 0.05)" style="fill: #fc5d1d;fill-rule: evenodd"/>
  <path d="M107,19a9,9,0,1,0-9-9A9,9,0,0,0,107,19Z" transform="translate(0 0.05)" style="fill: #d2181c"/>
  <path d="M116,19a9,9,0,1,0-9-9A9,9,0,0,0,116,19Z" transform="translate(0 0.05)" style="fill: #179adc"/>
  <path d="M111.5,2.2a9,9,0,0,0,0,15.6,9,9,0,0,0,0-15.6Z" transform="translate(0 0.05)" style="fill: #6c6bbb;fill-rule: evenodd"/>
  <path d="M159.42,0h-7.9a3,3,0,0,0-2.68,1.93l-3.72,16.14a1.5,1.5,0,0,0,1.5,1.93h8.27a2.61,2.61,0,0,0,2.33-1.93L161,1.94A1.5,1.5,0,0,0,159.42,0Z" transform="translate(0 0.05)" style="fill: #01798a"/>
  <path d="M145.12,18.07l3.72-16.14A3,3,0,0,1,151.52,0h-8.78a3,3,0,0,0-2.69,1.93l-3.73,16.14a1.5,1.5,0,0,0,1.5,1.93h8.8A1.5,1.5,0,0,1,145.12,18.07Z" transform="translate(0 0.05)" style="fill: #024381"/>
  <path d="M136.32,18.07l3.73-16.14A3,3,0,0,1,142.74,0h-7.23a3,3,0,0,0-2.74,1.93L129,18.07a2.89,2.89,0,0,0,0,.29v.3A1.48,1.48,0,0,0,130.54,20h7.28A1.5,1.5,0,0,1,136.32,18.07Z" transform="translate(0 0.05)" style="fill: #dd0228"/>
  <path d="M137.36,10.55h-2.92L133.1,17h1.35l.48-2.32h1.57a2.53,2.53,0,0,0,2.53-2c0-.11,0-.22.05-.33s0-.2,0-.29h0a1.31,1.31,0,0,0-.45-1.07A2,2,0,0,0,137.36,10.55Zm-.89,3h-1.3l.4-1.89h1.1a1.42,1.42,0,0,1,.78.16.53.53,0,0,1,.25.49v.14a.13.13,0,0,1,0,.06.36.36,0,0,1,0,.1,1.18,1.18,0,0,1-.39.71A1.27,1.27,0,0,1,136.47,13.54Z" transform="translate(0 0.05)" style="fill: #fff;fill-rule: evenodd"/>
  <path d="M144.08,19.39a6.22,6.22,0,0,0,1.08-1.65L147.54,13h-1.19l-1.17,2.68L145.12,13h-1.37l.35,4.27-.12.24c-.31.64-.81,1.68-1.66,1.93l-.1.68a2.17,2.17,0,0,0,1.82-.71Z" transform="translate(0 0.05)" style="fill: #fff"/>
  <path d="M141.37,13.65l.47-.32,1.11-.09L142.11,17l-1.28,0-.18-.21c-1.62.67-2.2,0-2.22-.87a3,3,0,0,1,1.13-2.43A1.49,1.49,0,0,1,141.37,13.65Zm-1.28,2.6c.36.11.82-.28,1-.87s.08-1.17-.27-1.28-.82.28-1,.87S139.73,16.14,140.09,16.25Z" transform="translate(0 0.05)" style="fill: #fff;fill-rule: evenodd"/>
  <path d="M139.42,9.17a2.79,2.79,0,0,0,1.08-1.74L141.44,3H140l-.93,4.39a1.43,1.43,0,0,1-.55.89,1.74,1.74,0,0,1-1.07.32,1,1,0,0,1-.82-.32.77.77,0,0,1-.17-.55,1.27,1.27,0,0,1,0-.34L137.45,3H136l-.94,4.44A2.72,2.72,0,0,0,135,8a1.57,1.57,0,0,0,.41,1.12,2.38,2.38,0,0,0,1.82.62A3.64,3.64,0,0,0,139.42,9.17Z" transform="translate(0 0.05)" style="fill: #fff"/>
  <path d="M147.58,5.68h-1.11l-.87,4h1.11Z" transform="translate(0 0.05)" style="fill: #fff"/>
  <path d="M147.94,4.24h-1.12l-.21,1h1.12Z" transform="translate(0 0.05)" style="fill: #fff"/>
  <path d="M148.13,8.24a1.4,1.4,0,0,0,.44,1.1,1.66,1.66,0,0,0,1.18.41,2.31,2.31,0,0,0,1.56-.56,2.52,2.52,0,0,0,.84-1.51c0-.1,0-.2,0-.3s0-.19,0-.27A1.48,1.48,0,0,0,151.78,6a1.66,1.66,0,0,0-1.18-.41,2.3,2.3,0,0,0-1.57.57,2.69,2.69,0,0,0-.84,1.53,2.5,2.5,0,0,0-.05.29A2.62,2.62,0,0,0,148.13,8.24Zm3-.62a2,2,0,0,1-.42.94,1,1,0,0,1-.76.31.7.7,0,0,1-.54-.19.79.79,0,0,1-.19-.57,1.07,1.07,0,0,1,0-.18,1.29,1.29,0,0,1,0-.19,1.94,1.94,0,0,1,.42-1,1,1,0,0,1,.76-.31.69.69,0,0,1,.54.2.77.77,0,0,1,.19.57,1.15,1.15,0,0,1,0,.18Z" transform="translate(0 0.05)" style="fill: #fff;fill-rule: evenodd"/>
  <path d="M142.81,5.68h-1l-.81,4h1l.46-2.28a1.14,1.14,0,0,1,.37-.67,1,1,0,0,1,.67-.24.49.49,0,0,1,.44.18.72.72,0,0,1,0,.56l-.5,2.45h1L145.1,7a1.19,1.19,0,0,0-.15-1,1.11,1.11,0,0,0-.92-.36,1.59,1.59,0,0,0-1.19.51l-.14.17Z" transform="translate(0 0.05)" style="fill: #fff"/>
  <path d="M154.32,5.68h-1l-.81,4h1L154,7.37a1.18,1.18,0,0,1,.36-.67,1,1,0,0,1,.68-.24.49.49,0,0,1,.44.18.76.76,0,0,1,0,.56L155,9.65h1L156.6,7a1.19,1.19,0,0,0-.14-1,1.12,1.12,0,0,0-.92-.36,1.59,1.59,0,0,0-1.19.51l-.14.17Z" transform="translate(0 0.05)" style="fill: #fff"/>
  <path d="M223.47,0H228V16.46a3.37,3.37,0,0,1-.24,1.33,3.55,3.55,0,0,1-.74,1.14A3.58,3.58,0,0,1,224.53,20H220V3.54a3.37,3.37,0,0,1,.24-1.33A3.55,3.55,0,0,1,221,1.07,3.58,3.58,0,0,1,223.47,0Z" transform="translate(0 0.05)" style="fill: #1060ac;fill-rule: evenodd"/>
  <path d="M232.47,0H237V16.46a3.4,3.4,0,0,1-.24,1.33,3.55,3.55,0,0,1-.74,1.14,3.49,3.49,0,0,1-1.13.77,3.54,3.54,0,0,1-1.36.3H229V3.54a3.44,3.44,0,0,1,1-2.47A3.6,3.6,0,0,1,232.47,0Z" transform="translate(0 0.05)" style="fill: #df003f;fill-rule: evenodd"/>
  <path d="M241.48,0H246V16.46a2.88,2.88,0,0,1-.86,2.36A4.12,4.12,0,0,1,242.53,20H238V3.54a2.88,2.88,0,0,1,.86-2.36A4.17,4.17,0,0,1,241.48,0Z" transform="translate(0 0.05)" style="fill: #48a83b;fill-rule: evenodd"/>
  <path d="M232.39,11.73A5,5,0,0,0,235,11v1.54a7.55,7.55,0,0,1-2.73.51,7.2,7.2,0,0,1-3.27-.76V6.76A7.2,7.2,0,0,1,232.27,6a7.55,7.55,0,0,1,2.73.51V8a5.08,5.08,0,0,0-2.61-.79,2,2,0,0,0-1.3.74,2.45,2.45,0,0,0,0,3A2,2,0,0,0,232.39,11.73Z" transform="translate(0 0.05)" style="fill: #fff;fill-rule: evenodd"/>
  <path d="M224,13h-1a11.61,11.61,0,0,1-3-.58v-1.6a6.26,6.26,0,0,0,3.07,1h.25a1.26,1.26,0,0,0,.61,0,1.44,1.44,0,0,0,.55-.28,1.53,1.53,0,0,0,.39-.48,1.56,1.56,0,0,0,.15-.6V6h3v4.16C228,11.73,226.34,13,224,13Z" transform="translate(0 0.05)" style="fill: #fff;fill-rule: evenodd"/>
  <path d="M245,11.25a1.53,1.53,0,0,1-.69,1.36,2.06,2.06,0,0,1-1.42.39H238V6h4.2a1.94,1.94,0,0,1,.76.08,2,2,0,0,1,.67.37,1.75,1.75,0,0,1,.45.59,1.63,1.63,0,0,1,0,1.41,1.75,1.75,0,0,1-.45.59,2,2,0,0,1-.67.37,1.59,1.59,0,0,1-.33.08l.33,0a2.87,2.87,0,0,1,1.41.45A1.58,1.58,0,0,1,245,11.25Z" transform="translate(0 0.05)" style="fill: #fff;fill-rule: evenodd"/>
  <path d="M241.33,9H240V7h1.33c.37,0,.67.46.67,1S241.7,9,241.33,9Z" transform="translate(0 0.05)" style="fill: #30993d;fill-rule: evenodd"/>
  <path d="M242.14,12H240V10h2.14a1,1,0,0,1,0,2Z" transform="translate(0 0.05)" style="fill: #30993d;fill-rule: evenodd"/>
  <path d="M307,6c.09-.54.4-1,1.59-1h4.25c1,0,3.42-.11,4.49,1.26,1.25,1.58.43,4.49-.1,5.5-1.14,2.13-3.27,2.88-5.54,2.88-1.21,0-1.52-.12-1.72,1.06s-.64,3.29-.67,3.55a.9.9,0,0,1-1,.75h-3c-.4,0-.79.07-.68-.69C305.39,14.83,306.19,10.51,307,6Z" transform="translate(0 0.05)" style="fill: #009ddf;fill-rule: evenodd"/>
  <path d="M301.55,8.68c.43-2.5,1.17-6.78,1.33-7.65.1-.57.44-1,1.75-1h6.13c1.11,0,4,.12,5.21,1.4a4.23,4.23,0,0,1,1.21,3.05,8.12,8.12,0,0,1-.57,3,6.28,6.28,0,0,1-3.71,3.4,14.71,14.71,0,0,1-5.11.58c-1.33,0-1.75-.11-2,1.14s-.88,4.7-.92,5,0,.77-1.1.77h-3c-.45,0-.87.08-.73-.72C300.24,16.43,301.29,10.19,301.55,8.68Z" transform="translate(0 0.05)" style="fill: #0048a0;fill-rule: evenodd"/>
  <path d="M316.53,7.47a5.93,5.93,0,0,1-1.41,2.05,6.86,6.86,0,0,1-2.2,1.39,16.13,16.13,0,0,1-5.23.54c-1.3,0-1.61-.1-1.83,1.07l0,0h0c.06-.32.1-.61.14-.81.4-2.38.94-4.89,1.08-5.72.09-.54.41-1,1.62-1h4.41a7.55,7.55,0,0,1,4,.74A7.47,7.47,0,0,1,316.53,7.47Z" transform="translate(0 0.05)" style="fill: #003172;fill-rule: evenodd"/>
  <path d="M575.41,3.32a2.89,2.89,0,0,1-2.27,1A3,3,0,0,1,574,2.1,3.43,3.43,0,0,1,576.2,1,3.18,3.18,0,0,1,575.41,3.32Zm.78,1.18c-1.25-.07-2.32.68-2.91.68s-1.51-.64-2.5-.63a3.72,3.72,0,0,0-3.14,1.82c-1.35,2.21-.35,5.48,1,7.28.64.89,1.41,1.86,2.41,1.83s1.33-.59,2.48-.59,1.49.59,2.5.57,1.7-.89,2.34-1.78a8,8,0,0,0,1-2,3.27,3.27,0,0,1-2-2.94A3.3,3.3,0,0,1,579,5.94,3.64,3.64,0,0,0,576.19,4.5ZM583.4,2V15.37h2.18V10.8h3a4.34,4.34,0,0,0,4.68-4.4A4.3,4.3,0,0,0,588.66,2Zm2.18,1.75h2.5c1.89,0,3,1,3,2.64s-1.08,2.66-3,2.66h-2.49Zm11.66,11.7a3.66,3.66,0,0,0,3.21-1.7h0v1.6h2V8.72c0-1.92-1.62-3.16-4.11-3.16-2.31,0-4,1.25-4.08,3h2a1.9,1.9,0,0,1,2.06-1.36c1.33,0,2.07.59,2.07,1.68V9.6l-2.71.15c-2.53.15-3.89,1.13-3.89,2.84S595.22,15.47,597.24,15.47Zm.58-1.58c-1.16,0-1.89-.53-1.89-1.35s.71-1.32,2.06-1.4l2.42-.15v.76A2.32,2.32,0,0,1,597.82,13.89ZM605.19,19c2.12,0,3.12-.77,4-3.11L613,5.68h-2.21l-2.56,7.89h-.05l-2.56-7.89h-2.27L607,15.4l-.19.59A1.72,1.72,0,0,1,605,17.38l-.64,0V19A7.26,7.26,0,0,0,605.19,19Z" transform="translate(0 0.05)" style="fill: #777"/>
  <path d="M575.41,3.32a2.89,2.89,0,0,1-2.27,1A3,3,0,0,1,574,2.1,3.43,3.43,0,0,1,576.2,1,3.18,3.18,0,0,1,575.41,3.32Zm.78,1.18c-1.25-.07-2.32.68-2.91.68s-1.51-.64-2.5-.63a3.72,3.72,0,0,0-3.14,1.82c-1.35,2.21-.35,5.48,1,7.28.64.89,1.41,1.86,2.41,1.83s1.33-.59,2.48-.59,1.49.59,2.5.57,1.7-.89,2.34-1.78a8,8,0,0,0,1-2,3.27,3.27,0,0,1-2-2.94A3.3,3.3,0,0,1,579,5.94,3.64,3.64,0,0,0,576.19,4.5ZM583.4,2V15.37h2.18V10.8h3a4.34,4.34,0,0,0,4.68-4.4A4.3,4.3,0,0,0,588.66,2Zm2.18,1.75h2.5c1.89,0,3,1,3,2.64s-1.08,2.66-3,2.66h-2.49Zm11.66,11.7a3.66,3.66,0,0,0,3.21-1.7h0v1.6h2V8.72c0-1.92-1.62-3.16-4.11-3.16-2.31,0-4,1.25-4.08,3h2a1.9,1.9,0,0,1,2.06-1.36c1.33,0,2.07.59,2.07,1.68V9.6l-2.71.15c-2.53.15-3.89,1.13-3.89,2.84S595.22,15.47,597.24,15.47Zm.58-1.58c-1.16,0-1.89-.53-1.89-1.35s.71-1.32,2.06-1.4l2.42-.15v.76A2.32,2.32,0,0,1,597.82,13.89ZM605.19,19c2.12,0,3.12-.77,4-3.11L613,5.68h-2.21l-2.56,7.89h-.05l-2.56-7.89h-2.27L607,15.4l-.19.59A1.72,1.72,0,0,1,605,17.38l-.64,0V19A7.26,7.26,0,0,0,605.19,19Z" transform="translate(0 0.05)" style="fill: #777"/>
  <path d="M638.76,9.8v5.28h-1.7v-13h4.5a4,4,0,0,1,2.92,1.13,3.59,3.59,0,0,1,.91,1.24,3.55,3.55,0,0,1,.31,1.51,3.58,3.58,0,0,1-.3,1.51,3.53,3.53,0,0,1-.92,1.25,4.1,4.1,0,0,1-2.92,1.11Zm0-6.15V8.2h2.85a2.26,2.26,0,0,0,1.68-.67,2.43,2.43,0,0,0,.5-.73,2.17,2.17,0,0,0,0-1.73,2.43,2.43,0,0,0-.5-.73,2.38,2.38,0,0,0-.77-.52,2.2,2.2,0,0,0-.91-.17Zm10.85,2.22a4.27,4.27,0,0,1,3,1,3.48,3.48,0,0,1,1.09,2.72v5.5h-1.63V13.84H652a3.25,3.25,0,0,1-2.81,1.53,3.68,3.68,0,0,1-2.5-.87,2.86,2.86,0,0,1-.75-1,2.8,2.8,0,0,1-.26-1.21,2.66,2.66,0,0,1,1.06-2.2,4.58,4.58,0,0,1,2.84-.82,5,5,0,0,1,2.49.55V9.46a1.92,1.92,0,0,0-.7-1.49,2.45,2.45,0,0,0-1.64-.61,2.61,2.61,0,0,0-2.25,1.19L646,7.62A4.17,4.17,0,0,1,649.61,5.87Zm-2.19,6.48a1.43,1.43,0,0,0,.14.61,1.3,1.3,0,0,0,.42.48,2.1,2.1,0,0,0,1.32.44,2.76,2.76,0,0,0,1.91-.78,2.46,2.46,0,0,0,.84-1.84,3.44,3.44,0,0,0-2.21-.63,2.9,2.9,0,0,0-1.73.5A1.45,1.45,0,0,0,647.42,12.35ZM663,6.16,657.33,19h-1.75l2.1-4.5L654,6.16h1.85l2.7,6.41h0l2.63-6.41Z" transform="translate(0 0.05)" style="fill: #5f6368"/>
  <path d="M631.89,8.66a8.59,8.59,0,0,0-.13-1.52H624.6V10h4.1a3.42,3.42,0,0,1-.52,1.3,3.46,3.46,0,0,1-1,1v1.87h2.45A7.24,7.24,0,0,0,631.89,8.66Z" transform="translate(0 0.05)" style="fill: #4285f4"/>
  <path d="M624.6,16a7.3,7.3,0,0,0,5-1.81l-2.45-1.87a4.63,4.63,0,0,1-6.85-2.37h-2.52v1.92a7.45,7.45,0,0,0,2.8,3A7.68,7.68,0,0,0,624.6,16Z" transform="translate(0 0.05)" style="fill: #34a853"/>
  <path d="M620.33,9.93a4.54,4.54,0,0,1,0-2.87V5.13h-2.52a7.37,7.37,0,0,0,0,6.72Z" transform="translate(0 0.05)" style="fill: #fbbc04"/>
  <path d="M624.6,4a4.16,4.16,0,0,1,2.91,1.12L629.68,3A7.35,7.35,0,0,0,624.6,1a7.67,7.67,0,0,0-4,1.11,7.51,7.51,0,0,0-2.8,3l2.52,1.93A4.54,4.54,0,0,1,624.6,4Z" transform="translate(0 0.05)" style="fill: #ea4335"/>
  <path d="M732.84,7a8.45,8.45,0,0,0-2.06-4.77A8.41,8.41,0,0,0,726,.18,17.27,17.27,0,0,0,723,0a20.18,20.18,0,0,0-3,.17,8.38,8.38,0,0,0-4.77,2.06A8.46,8.46,0,0,0,713.19,7a20.53,20.53,0,0,0-.19,3,22,22,0,0,0,.17,3,8.45,8.45,0,0,0,2.06,4.77A8.41,8.41,0,0,0,720,19.82a17.27,17.27,0,0,0,3,.17,20.18,20.18,0,0,0,3-.17,8.38,8.38,0,0,0,4.77-2.06A8.46,8.46,0,0,0,732.82,13a17.78,17.78,0,0,0,.16-3A15.29,15.29,0,0,0,732.84,7Z" transform="translate(0 0.05)" style="fill: #1e4bc6"/>
  <path d="M716.33,9.17h1.86a2.22,2.22,0,0,1,.79.13,2,2,0,0,1,.61.37,1.62,1.62,0,0,1,.41.56,1.62,1.62,0,0,1,0,1.36,1.54,1.54,0,0,1-.41.56,2.21,2.21,0,0,1-.61.37,2.11,2.11,0,0,1-.79.13h-.83v1.4h-1V9.17Zm1,.84v1.78h.78a1.31,1.31,0,0,0,.41-.06.87.87,0,0,0,.32-.2.8.8,0,0,0,.2-.29.91.91,0,0,0,0-.7,1.15,1.15,0,0,0-.2-.29.76.76,0,0,0-.32-.2,1.3,1.3,0,0,0-.41-.07h-.78Zm5.13,4a2.43,2.43,0,0,1-.78-.14,2.62,2.62,0,0,1-.68-.37,2.1,2.1,0,0,1-.49-.62,1.77,1.77,0,0,1-.2-.84,1.88,1.88,0,0,1,.17-.84,2.28,2.28,0,0,1,.49-.62,2.19,2.19,0,0,1,.69-.37,2.4,2.4,0,0,1,.8-.13,2.11,2.11,0,0,1,.79.13,2,2,0,0,1,.61.37v-.5h1v3.93h-1v-.56a1.7,1.7,0,0,1-.61.42A2.22,2.22,0,0,1,722.47,14.05Zm.18-.82a1.19,1.19,0,0,0,.51-.09,1.76,1.76,0,0,0,.42-.24,1.14,1.14,0,0,0,.26-.36.82.82,0,0,0,.1-.44.84.84,0,0,0-.1-.44,1,1,0,0,0-.26-.35,1.24,1.24,0,0,0-.42-.24,1.06,1.06,0,0,0-.51-.12,1.54,1.54,0,0,0-.52.09,1.29,1.29,0,0,0-.41.25.79.79,0,0,0-.27.35.84.84,0,0,0-.1.44.82.82,0,0,0,.1.44,2,2,0,0,0,.27.38,1.52,1.52,0,0,0,.41.24A1.94,1.94,0,0,0,722.65,13.23Zm3.62-3.09,1.22,2.67,1.12-2.67h1.06l-2.57,5.69h-1l.91-2-1.77-3.73Z" transform="translate(0 0.05)" style="fill: #fff"/>
  <path d="M727.81,5.44V7.32h-.68l-.46-1.55h0l0,1.55h-.47V5.44h.71l.44,1.49h0l0-1.49ZM718,7.34l.36-1.9h.84l.35,1.9h-.51l-.26-1.73h0l-.27,1.73Zm4-1.9,0,1.9h-.48V5.63h0l-.31,1.71h-.49l-.32-1.71h0V7.34H720l0-1.9h.79L721,6.89h0l.24-1.45Zm3,1.61a.16.16,0,0,0,.18-.14.17.17,0,0,0,0-.07V5.44h.48V6.93c0,.35-.32.47-.67.47s-.63-.11-.66-.47c0,0,0-.09,0-.13V5.44h.49V6.92A.17.17,0,0,0,725,7.05Zm-7.79-.25a.33.33,0,0,1,0,.14c0,.06-.06.12-.19.12a.17.17,0,0,1-.19-.17V6.71h-.51v.14c0,.43.34.56.7.56s.63-.12.67-.44a.74.74,0,0,0,0-.31c-.08-.4-.81-.51-.86-.74v-.1a.17.17,0,0,1,.18-.13.17.17,0,0,1,.18.17V6h.47V5.85c0-.41-.37-.48-.64-.48s-.62.12-.67.42a1.13,1.13,0,0,0,0,.26C716.44,6.45,717.12,6.55,717.22,6.8Zm6.19,0a.33.33,0,0,1,0,.14c0,.06-.06.12-.19.12a.17.17,0,0,1-.19-.17V6.71h-.5v.14c0,.43.33.55.69.55s.62-.11.67-.43a1.35,1.35,0,0,0,0-.3c-.09-.4-.8-.51-.85-.73a.17.17,0,0,1,0-.1.16.16,0,0,1,.17-.13.17.17,0,0,1,.18.17V6h.47V5.87c0-.41-.37-.47-.64-.47s-.61.11-.66.41a.53.53,0,0,0,0,.25C722.65,6.45,723.32,6.55,723.41,6.8ZM729,7a.17.17,0,0,0,.19-.14.17.17,0,0,0,0-.07V6.55H729V6.27h.68v.51a.57.57,0,0,1,0,.12c0,.35-.33.48-.67.48s-.64-.13-.67-.48a.57.57,0,0,1,0-.12V6s0-.09,0-.12c0-.36.33-.47.67-.47s.63.11.66.47a.75.75,0,0,1,0,.12V6h-.48v-.1a.32.32,0,0,0,0-.08.16.16,0,0,0-.18-.14.18.18,0,0,0-.19.14.28.28,0,0,0,0,.09v.87a.17.17,0,0,0,0,.07C728.8,7,728.85,7,729,7Z" transform="translate(0 0.05)" style="fill: #fff"/>
  <g id="logo_liqpay" data-name="logo liqpay">
    <g id="Group_2" data-name="Group 2">
      <g id="Group">
        <path id="Path" d="M169.78,19.17l-.26-.21a1.46,1.46,0,0,1-.16-2.07l6.51-7.44A1.46,1.46,0,0,1,178,9.29l.25.21a1.47,1.47,0,0,1,.16,2.08L171.85,19A1.48,1.48,0,0,1,169.78,19.17Z" transform="translate(0 0.05)" style="fill-rule: evenodd;fill: url(#gradient_5)"/>
        <path id="Path_2" data-name="Path 2" d="M175,10.74l-.13-.15-1,1.15.11.12a3.14,3.14,0,0,1,.59,4.06l.14-.16,1-1.13A3.07,3.07,0,0,0,175,10.74Z" transform="translate(0 0.05)" style="fill-rule: evenodd;opacity: 0.4000000059604645;isolation: isolate;fill: url(#gradient_6)"/>
        <path id="Path_3" data-name="Path 3" d="M177.14,13l.27-.3.07-.11c-.28.32-.59.66-.87,1Z" transform="translate(0 0.05)" style="fill-rule: evenodd;opacity: 0.4000000059604645;isolation: isolate;fill: url(#gradient_7)"/>
        <path id="Path_4" data-name="Path 4" d="M178.39,9.68l-6.5-7.44a1.46,1.46,0,0,0-2.08-.16l-.25.22a1.45,1.45,0,0,0-.16,2.07l5.49,6.22.12.15a3.05,3.05,0,0,1,.67,3.91l.94-1.09c.29-.34.59-.68.88-1s.55-.63.73-.82A1.42,1.42,0,0,0,178.39,9.68Z" transform="translate(0 0.05)" style="fill-rule: evenodd;fill: url(#gradient_8)"/>
      </g>
      <g id="Group_2-2" data-name="Group 2">
        <path id="Path_5" data-name="Path 5" d="M178,19.17l-.25-.21a1.45,1.45,0,0,1-.17-2.07l6.51-7.44a1.46,1.46,0,0,1,2.08-.16l.25.21a1.46,1.46,0,0,1,.16,2.08L180.11,19A1.48,1.48,0,0,1,178,19.17Z" transform="translate(0 0.05)" style="fill-rule: evenodd;fill: url(#gradient_5-2)"/>
        <path id="Path_6" data-name="Path 6" d="M183.33,10.66l-.13-.14-1,1.15.11.12a3.12,3.12,0,0,1,.59,4.06l.14-.16,1-1.13A3.07,3.07,0,0,0,183.33,10.66Z" transform="translate(0 0.05)" style="fill-rule: evenodd;opacity: 0.4000000059604645;isolation: isolate;fill: url(#gradient_6-2)"/>
        <path id="Path_7" data-name="Path 7" d="M185.38,13l.27-.3s.06-.07.07-.11c-.28.32-.59.66-.87,1C185.06,13.33,185.26,13.13,185.38,13Z" transform="translate(0 0.05)" style="fill-rule: evenodd;opacity: 0.4000000059604645;isolation: isolate;fill: url(#gradient_7-2)"/>
        <path id="Path_8" data-name="Path 8" d="M186.64,9.68l-6.51-7.44a1.46,1.46,0,0,0-2.08-.16l-.25.22a1.46,1.46,0,0,0-.16,2.07l5.49,6.22.13.15a3.06,3.06,0,0,1,.66,3.91c.32-.37.64-.75,1-1.09s.59-.68.87-1l.73-.82A1.43,1.43,0,0,0,186.64,9.68Z" transform="translate(0 0.05)" style="fill-rule: evenodd;fill: url(#gradient_8-2)"/>
      </g>
    </g>
  </g>
  <g id="Group_4002">
    <path d="M207.86,10v.08H197.32V10h-1.93v.08a12.21,12.21,0,0,0,1.9,7.27A6.12,6.12,0,0,0,202.56,20a6.27,6.27,0,0,0,5.37-2.58c1.26-1.73,1.89-4.17,1.89-7.3V10Z" transform="translate(0 0.05)" style="fill: url(#gradient_3)"/>
    <path d="M201.8,16.89V15.15a1.87,1.87,0,1,1,2.47-.92,1.89,1.89,0,0,1-.91.92v1.74a.78.78,0,0,1-.73.83.79.79,0,0,1-.83-.7v-.13" transform="translate(0 0.05)" style="fill: #fff"/>
    <path d="M197.26,2.62c-1.25,1.72-1.88,3.58-1.88,6.74v.1h1.94V9.38a8.72,8.72,0,0,1,1.35-5.33,4.51,4.51,0,0,1,4-2,4.4,4.4,0,0,1,3.92,2,8.79,8.79,0,0,1,1.33,5.34v.08h1.93V9.36a10.47,10.47,0,0,0-1.9-6.71A6.11,6.11,0,0,0,202.64,0a6.22,6.22,0,0,0-5.36,2.59" transform="translate(0 0.05)" style="fill: url(#gradient_3-2)"/>
  </g>
  <path d="M266.79,17.81V15.15a1,1,0,0,0-.12-.41.92.92,0,0,0-.31-.31L264,13.11a.92.92,0,0,0-.43-.11.81.81,0,0,0-.43.11l-2.34,1.3a.84.84,0,0,0-.31.31.78.78,0,0,0-.12.41v2.66a.73.73,0,0,0,.12.41.77.77,0,0,0,.31.31l2.34,1.38a.9.9,0,0,0,.86,0l2.35-1.32a.92.92,0,0,0,.31-.31A.89.89,0,0,0,266.79,17.81Z" transform="translate(0 0.05)" style="fill: #08a835"/>
  <path d="M274.43,17.81V15.15a.88.88,0,0,0-.12-.41.92.92,0,0,0-.31-.31l-2.31-1.32a.92.92,0,0,0-.43-.11.81.81,0,0,0-.43.11l-2.36,1.3a1,1,0,0,0-.31.31.69.69,0,0,0-.11.41v2.66a.72.72,0,0,0,.11.41.92.92,0,0,0,.31.31l2.35,1.38a.92.92,0,0,0,.43.11,1,1,0,0,0,.44-.11L274,18.57a.84.84,0,0,0,.31-.31A.89.89,0,0,0,274.43,17.81Z" transform="translate(0 0.05)" style="fill: #08a835"/>
  <path d="M263,11.31V8.66a.7.7,0,0,0-.11-.42.83.83,0,0,0-.28-.31l-2.38-1.32a.88.88,0,0,0-.85,0L257,7.93a1.11,1.11,0,0,0-.31.3.81.81,0,0,0-.12.42V11.3a.88.88,0,0,0,.11.42A.86.86,0,0,0,257,12l2.35,1.32a.81.81,0,0,0,.85,0L262.56,12a.75.75,0,0,0,.31-.3A.88.88,0,0,0,263,11.31Z" transform="translate(0 0.05)" style="fill: #08a835"/>
  <path d="M270.62,11.31V8.66a.79.79,0,0,0-.12-.42.84.84,0,0,0-.31-.31l-2.35-1.32a.91.91,0,0,0-.85,0l-2.35,1.32a1,1,0,0,0-.31.3.92.92,0,0,0-.12.42V11.3a.89.89,0,0,0,.12.42.77.77,0,0,0,.31.31L267,13.35a.86.86,0,0,0,.85,0L270.19,12a.77.77,0,0,0,.31-.31A.73.73,0,0,0,270.62,11.31Z" transform="translate(0 0.05)" style="fill: #08a835"/>
  <path d="M259.12,17.81V15.15a.78.78,0,0,0-.12-.41.89.89,0,0,0-.31-.33l-2.35-1.3a.92.92,0,0,0-.43-.11.78.78,0,0,0-.42.11l-2.35,1.3a.84.84,0,0,0-.31.31.78.78,0,0,0-.12.41v2.66a.73.73,0,0,0,.12.41.77.77,0,0,0,.31.31l2.35,1.38a.88.88,0,0,0,.42.11.92.92,0,0,0,.43-.11l2.35-1.32a.84.84,0,0,0,.31-.31A.89.89,0,0,0,259.12,17.81Z" transform="translate(0 0.05)" style="fill: #08a835"/>
  <path d="M266.79,4.81V2.16a1.06,1.06,0,0,0-.12-.42.89.89,0,0,0-.31-.3L264,.12a.83.83,0,0,0-.86,0l-2.34,1.32a.81.81,0,0,0-.31.3.79.79,0,0,0-.12.42V4.81a.79.79,0,0,0,.12.42.84.84,0,0,0,.31.31l2.34,1.32a.73.73,0,0,0,.43.11.81.81,0,0,0,.43-.11l2.35-1.32a1,1,0,0,0,.31-.31A1,1,0,0,0,266.79,4.81Z" transform="translate(0 0.05)" style="fill: #000"/>
  <path d="M339.85,15.29,342.37,20h2a10,10,0,1,0,0-20h-2l-2.52,4.71h4.55a5.29,5.29,0,1,1,0,10.58Z" transform="translate(0 0.05)" style="fill: #00e193"/>
  <path d="M339.86,15.29,337.34,20h-2a10,10,0,0,1,0-20h2l2.52,4.71h-4.55a5.29,5.29,0,0,0,0,10.58Z" transform="translate(0 0.05)" style="fill: #0036d5"/>
  <g>
    <path d="M408.79,10.39c0-3.42-1.66-6.12-4.82-6.12s-5.1,2.7-5.1,6.09c0,4,2.27,6.05,5.53,6.05a7.42,7.42,0,0,0,3.7-.87V12.87a7.16,7.16,0,0,1-3.28.73c-1.29,0-2.44-.45-2.59-2h6.53C408.76,11.4,408.79,10.71,408.79,10.39Zm-6.6-1.27c0-1.51.93-2.14,1.77-2.14s1.68.63,1.68,2.14Z" transform="translate(0 0.05)" style="fill: #635bff;fill-rule: evenodd"/>
    <path d="M393.72,4.27a3.82,3.82,0,0,0-2.62,1l-.17-.82H388V20.05l3.34-.7V15.57a3.8,3.8,0,0,0,2.36.84c2.39,0,4.57-1.92,4.57-6.16C398.26,6.38,396.05,4.27,393.72,4.27Zm-.8,9.2a2,2,0,0,1-1.58-.63V7.89a2,2,0,0,1,1.59-.65c1.21,0,2.05,1.36,2.05,3.11S394.14,13.47,392.92,13.47Z" transform="translate(0 0.05)" style="fill: #635bff;fill-rule: evenodd"/>
    <polygon points="383.4 3.53 386.75 2.81 386.75 0.1 383.4 0.81 383.4 3.53" style="fill: #635bff;fill-rule: evenodd"/>
    <rect x="383.4" y="4.54" width="3.35" height="11.68" style="fill: #635bff"/>
    <path d="M379.8,5.49l-.21-1h-2.88V16.18H380V8.26a2.37,2.37,0,0,1,2.54-.69V4.5A2.26,2.26,0,0,0,379.8,5.49Z" transform="translate(0 0.05)" style="fill: #635bff;fill-rule: evenodd"/>
    <path d="M373.13,1.6l-3.26.7V13a3.35,3.35,0,0,0,3.46,3.43,5.14,5.14,0,0,0,2.33-.44V13.27c-.42.17-2.53.79-2.53-1.19V7.34h2.53V4.5h-2.53Z" transform="translate(0 0.05)" style="fill: #635bff;fill-rule: evenodd"/>
    <path d="M364.1,7.89c0-.52.43-.72,1.14-.72a7.57,7.57,0,0,1,3.31.85V4.89a8.82,8.82,0,0,0-3.31-.62c-2.71,0-4.51,1.42-4.51,3.78,0,3.68,5.07,3.1,5.07,4.69,0,.61-.53.81-1.28.81a8.24,8.24,0,0,1-3.65-1.07v3.18a9.34,9.34,0,0,0,3.65.76c2.77,0,4.68-1.37,4.68-3.76C369.19,8.68,364.1,9.39,364.1,7.89Z" transform="translate(0 0.05)" style="fill: #635bff;fill-rule: evenodd"/>
  </g>
  <g id="logo_liqpay-2" data-name="logo liqpay">
    <g id="Group_2-3" data-name="Group 2">
      <g id="Group-2" data-name="Group">
        <path id="Path-2" data-name="Path" d="M481.13,16l-.18-.15a1,1,0,0,1-.12-1.48l4.63-5.28a1,1,0,0,1,1.47-.12l.18.16a1,1,0,0,1,.12,1.47l-4.63,5.29A1.05,1.05,0,0,1,481.13,16Z" transform="translate(0 0.05)" style="fill-rule: evenodd;fill: url(#gradient_5-3)"/>
        <path id="Path_2-2" data-name="Path 2" d="M484.84,10l-.09-.1-.71.81.07.09a2.23,2.23,0,0,1,.42,2.89l.1-.12.69-.8A2.19,2.19,0,0,0,484.84,10Z" transform="translate(0 0.05)" style="fill-rule: evenodd;opacity: 0.4000000059604645;isolation: isolate;fill: url(#gradient_6-3)"/>
        <path id="Path_3-2" data-name="Path 3" d="M486.36,11.55l.19-.21.05-.08c-.2.23-.42.47-.62.71Z" transform="translate(0 0.05)" style="fill-rule: evenodd;opacity: 0.4000000059604645;isolation: isolate;fill: url(#gradient_7-3)"/>
        <path id="Path_4-2" data-name="Path 4" d="M487.25,9.21l-4.62-5.28a1,1,0,0,0-1.48-.12L481,4a1,1,0,0,0-.11,1.48l3.9,4.42.09.1a2.18,2.18,0,0,1,.47,2.79L486,12l.63-.71.52-.59A1,1,0,0,0,487.25,9.21Z" transform="translate(0 0.05)" style="fill-rule: evenodd;fill: url(#gradient_8-3)"/>
      </g>
      <g id="Group_2-4" data-name="Group 2">
        <path id="Path_5-2" data-name="Path 5" d="M487,16l-.18-.15a1,1,0,0,1-.12-1.48l4.63-5.28a1,1,0,0,1,1.47-.12l.18.16a1,1,0,0,1,.12,1.47l-4.63,5.29A1.05,1.05,0,0,1,487,16Z" transform="translate(0 0.05)" style="fill-rule: evenodd;fill: url(#gradient_5-4)"/>
        <path id="Path_6-2" data-name="Path 6" d="M490.76,9.91l-.09-.1-.71.81.07.09a2.23,2.23,0,0,1,.42,2.89l.11-.12.68-.8A2.17,2.17,0,0,0,490.76,9.91Z" transform="translate(0 0.05)" style="fill-rule: evenodd;opacity: 0.4000000059604645;isolation: isolate;fill: url(#gradient_6-4)"/>
        <path id="Path_7-2" data-name="Path 7" d="M492.22,11.55l.19-.21a.56.56,0,0,1,0-.08c-.2.23-.42.47-.62.71C492,11.81,492.13,11.67,492.22,11.55Z" transform="translate(0 0.05)" style="fill-rule: evenodd;opacity: 0.4000000059604645;isolation: isolate;fill: url(#gradient_7-4)"/>
        <path id="Path_8-2" data-name="Path 8" d="M493.11,9.21l-4.63-5.28A1,1,0,0,0,487,3.81l-.18.15a1,1,0,0,0-.11,1.48l3.9,4.42.09.1a2.19,2.19,0,0,1,.47,2.79l.67-.78.62-.71.53-.59A1,1,0,0,0,493.11,9.21Z" transform="translate(0 0.05)" style="fill-rule: evenodd;fill: url(#gradient_8-4)"/>
      </g>
    </g>
    <g id="Group_3" data-name="Group 3">
      <path id="Path_9" data-name="Path 9" d="M416.16,15.91a1.05,1.05,0,0,1-.28-.77V4.68a1.09,1.09,0,0,1,.32-.83,1.07,1.07,0,0,1,.82-.32,1.15,1.15,0,0,1,.86.32,1.12,1.12,0,0,1,.31.83v9.64h5c.71,0,1.08.32,1.08.94s-.37.94-1.08.94H417A1.09,1.09,0,0,1,416.16,15.91Z" transform="translate(0 0.05)" style="fill: #4b4c4b;fill-rule: evenodd"/>
      <path id="Path_10" data-name="Path 10" d="M426.07,16a1.17,1.17,0,0,1-.31-.85V4.66a1.08,1.08,0,0,1,1.14-1.14,1.12,1.12,0,0,1,.85.32,1.07,1.07,0,0,1,.32.82V15.14a1.15,1.15,0,0,1-.32.85,1.17,1.17,0,0,1-.85.31A1.16,1.16,0,0,1,426.07,16Z" transform="translate(0 0.05)" style="fill: #4b4c4b;fill-rule: evenodd"/>
      <path id="Shape" d="M441.28,18.58a1.23,1.23,0,0,0-.2-.64l-.63-1a2.59,2.59,0,0,0-1.36-1.18,5.07,5.07,0,0,0,2.42-2.22,7.25,7.25,0,0,0,.86-3.65,7.63,7.63,0,0,0-.73-3.42,5.39,5.39,0,0,0-2.07-2.24,6.31,6.31,0,0,0-3.17-.77,6.18,6.18,0,0,0-3.19.77,5.47,5.47,0,0,0-2.07,2.24,7.79,7.79,0,0,0-.72,3.42,7.72,7.72,0,0,0,.72,3.42,5.37,5.37,0,0,0,2.07,2.23,6.39,6.39,0,0,0,3.19.78,2.39,2.39,0,0,1,1.05.2,1.58,1.58,0,0,1,.65.61l1,1.73a1.31,1.31,0,0,0,.47.44,1.18,1.18,0,0,0,.61.16,1.21,1.21,0,0,0,.75-.27A.79.79,0,0,0,441.28,18.58Zm-1.22-8.67a5.36,5.36,0,0,1-1,3.42,3.67,3.67,0,0,1-5.43,0,5.26,5.26,0,0,1-1-3.42,5.26,5.26,0,0,1,1-3.42,3.34,3.34,0,0,1,2.72-1.18,3.27,3.27,0,0,1,2.71,1.18A5.32,5.32,0,0,1,440.06,9.91Z" transform="translate(0 0.05)" style="fill: #4b4c4b;fill-rule: evenodd"/>
      <path id="Shape_2" data-name="Shape 2" d="M444.84,15.14a1.14,1.14,0,0,0,.32.85,1.17,1.17,0,0,0,.83.33,1.14,1.14,0,0,0,.85-.32,1.12,1.12,0,0,0,.32-.85V11.31h3.19a4.42,4.42,0,0,0,3.13-1,3.62,3.62,0,0,0,1.14-2.83,3.58,3.58,0,0,0-1.14-2.82,4.42,4.42,0,0,0-3.13-1H446a1.17,1.17,0,0,0-.81.28,1,1,0,0,0-.31.8Zm7.59-7.65c0,1.37-.8,2.07-2.38,2.07l-2.89,0V5.41h2.89C451.63,5.41,452.43,6.11,452.43,7.49Z" transform="translate(0 0.05)" style="fill: #4b4c4b;fill-rule: evenodd"/>
      <path id="Shape_3" data-name="Shape 3" d="M466.45,16a1,1,0,0,0,.33-.7,1.51,1.51,0,0,0-.09-.47L461.75,4.23a1.19,1.19,0,0,0-.5-.54,1.4,1.4,0,0,0-.7-.18,1.33,1.33,0,0,0-.7.18,1.07,1.07,0,0,0-.49.54l-4.93,10.59a1.15,1.15,0,0,0-.11.47.87.87,0,0,0,.33.7,1.27,1.27,0,0,0,.75.28.94.94,0,0,0,.55-.16,1,1,0,0,0,.39-.47l1.08-2.39h6.26l1.08,2.39a1,1,0,0,0,.39.47,1,1,0,0,0,.54.16A1.22,1.22,0,0,0,466.45,16Zm-3.54-4.51H458.2l2.35-5.29Z" transform="translate(0 0.05)" style="fill: #4b4c4b;fill-rule: evenodd"/>
      <path id="Path_11" data-name="Path 11" d="M475.67,3.53a1,1,0,0,1,.73.32,1,1,0,0,1,.32.75,1.1,1.1,0,0,1-.27.69l-4.05,4.94v4.94a1.19,1.19,0,0,1-.32.87,1.12,1.12,0,0,1-.82.3,1.23,1.23,0,0,1-.85-.3,1.16,1.16,0,0,1-.32-.87V10.23l-4-5a1,1,0,0,1-.27-.68,1,1,0,0,1,.32-.75,1,1,0,0,1,.72-.32.93.93,0,0,1,.76.39l3.65,4.53,3.64-4.53A1,1,0,0,1,475.67,3.53Z" transform="translate(0 0.05)" style="fill: #4b4c4b;fill-rule: evenodd"/>
    </g>
  </g>
  <path d="M293.3,7a6.91,6.91,0,0,0-1.56-4.37A7,7,0,0,0,279.3,7.07v6.71a13.89,13.89,0,0,0,3.4,1.36l.06,0v0a3.56,3.56,0,1,1,7.08,0v0l.05,0a14,14,0,0,0,3.41-1.36V7Zm-7,3.85a2.6,2.6,0,0,1-1.45-.44,2.61,2.61,0,0,1-1.11-2.67,2.62,2.62,0,0,1,.71-1.33,2.69,2.69,0,0,1,1.34-.71,2.59,2.59,0,0,1,1.51.15,2.62,2.62,0,0,1,1.18,1,2.59,2.59,0,0,1,.24,2.44,2.45,2.45,0,0,1-.57.85,2.66,2.66,0,0,1-1.85.76Z" transform="translate(0 0.05)" style="fill: #2ca656"/>
  <path d="M289,16.65a12.57,12.57,0,0,1-5.46,0l-.95-.24A15.86,15.86,0,0,1,279.3,15V17a9.56,9.56,0,0,0,14,0V15A16,16,0,0,1,290,16.41Z" transform="translate(0 0.05)" style="fill: #76b437"/>
  <path d="M670.28,7.76h-3.44V20h3.44Z" transform="translate(0 0.05)" style="fill: #3c6"/>
  <path d="M679,7.76a4.33,4.33,0,0,1-1.27,3.09,4.4,4.4,0,0,1-3.1,1.31h0a7.9,7.9,0,0,0-5.54,2.3A7.74,7.74,0,0,0,666.84,20h3.44a4.4,4.4,0,0,1,1.28-3.09,4.49,4.49,0,0,1,3.1-1.31,7.9,7.9,0,0,0,5.54-2.3,7.69,7.69,0,0,0,2.28-5.49Z" transform="translate(0 0.05)" style="fill: #009"/>
  <path d="M674.66,0a7.93,7.93,0,0,0-5.53,2.31,7.68,7.68,0,0,0-2.28,5.49h3.43a4.36,4.36,0,0,1,1.27-3.09,4.35,4.35,0,0,1,6.22,0A4.32,4.32,0,0,1,679,7.75h3.44a7.76,7.76,0,0,0-2.28-5.49A8,8,0,0,0,674.66,0Z" transform="translate(0 0.05)" style="fill: #39f"/>
  <path d="M690,12.2a2.08,2.08,0,0,0-1.11,1.71v5.36a.84.84,0,0,0,.17.55.52.52,0,0,0,.41.18h0a1.12,1.12,0,0,0,.39-.1l5.53-2.54a2.09,2.09,0,0,0,1.11-1.72v-3c0-.43-3.81-1.64-3.81-1.64Z" transform="translate(0 0.05)" style="fill: url(#gradient_4)"/>
  <path d="M686.43,8a2.8,2.8,0,0,0,1.47,2.3l8.57,3.94v-2l-10-4.61Z" transform="translate(0 0.05)" style="fill: url(#gradient_4-2)"/>
  <path d="M688.78,3.73l-1.07-.48a1.11,1.11,0,0,1-.59-.92V1.62a.39.39,0,0,1,.6-.38l1.06.48a1.09,1.09,0,0,1,.59.92v.71c0,.27-.15.44-.37.44A.66.66,0,0,1,688.78,3.73ZM686.43,1V5.82l10,4.61V5.74A2.77,2.77,0,0,0,695,3.45L687.76.13a1.25,1.25,0,0,0-.53-.13C686.74,0,686.43.38,686.43,1Z" transform="translate(0 0.05)" style="fill: url(#gradient_4-3)"/>
  <path d="M698.09,12.61v3a2.13,2.13,0,0,0,1.1,1.72l5.54,2.54a1,1,0,0,0,.39.1h0a.53.53,0,0,0,.4-.19.86.86,0,0,0,.18-.54V13.91a2.11,2.11,0,0,0-1.11-1.71L701.9,11S698.09,12.18,698.09,12.61Z" transform="translate(0 0.05)" style="fill: url(#gradient_4-4)"/>
  <path d="M698.08,12.25v2l8.57-3.94A2.79,2.79,0,0,0,708.13,8V7.64Z" transform="translate(0 0.05)" style="fill: url(#gradient_4-5)"/>
  <path d="M705.19,3.35V2.64a1.11,1.11,0,0,1,.59-.92l1.07-.48a.38.38,0,0,1,.59.38v.71a1.09,1.09,0,0,1-.59.92l-1.06.48a.47.47,0,0,1-.22,0C705.34,3.78,705.19,3.62,705.19,3.35ZM706.8.13l-7.24,3.32a2.78,2.78,0,0,0-1.48,2.29v4.69l10-4.61V1c0-.6-.31-1-.8-1A1.19,1.19,0,0,0,706.8.13Z" transform="translate(0 0.05)" style="fill: url(#gradient_4-6)"/>
  <g>
    <g>
      <path d="M497.93,16.3V4.3h3.88a14.13,14.13,0,0,1,2.88.18,3.1,3.1,0,0,1,1.72,1.18A3.62,3.62,0,0,1,507.1,8a3.7,3.7,0,0,1-.4,1.85,3.17,3.17,0,0,1-1,1.18,3.45,3.45,0,0,1-1.25.56,14.57,14.57,0,0,1-2.52.16h-1.58v4.53l-2.41,0Zm2.43-10V9.74h1.32a6.21,6.21,0,0,0,1.92-.18,1.75,1.75,0,0,0,.77-.58,1.64,1.64,0,0,0,.27-.93A1.6,1.6,0,0,0,504.26,7a1.64,1.64,0,0,0-1-.53,11.9,11.9,0,0,0-1.74-.09S500.36,6.33,500.36,6.33Z" transform="translate(0 0.05)" style="fill: #000"/>
      <path d="M518.69,16.3h-2.63l-1-2.72h-4.79l-1,2.72h-2.57l4.68-12h2.55Zm-4.46-4.75-1.65-4.44L511,11.55Z" transform="translate(0 0.05)" style="fill: #000"/>
      <path d="M521.59,16.3v-5L517.2,4.32h2.85l2.82,4.75,2.78-4.75h2.79l-4.41,7v5Z" transform="translate(0 0.05)" style="fill: #000"/>
    </g>
    <g>
      <path d="M529.6,16.3V4.3h8.88v2H532V9h6v2h-6v3.26h6.71v2Z" transform="translate(0 0.05)" style="fill: #64b3df"/>
      <path d="M540.76,16.3V4.3h8.89v2h-6.46V9h6v2h-6v3.26h6.71v2Z" transform="translate(0 0.05)" style="fill: #64b3df"/>
      <path d="M552,16.3V4.3H557a8.49,8.49,0,0,1,2.79.33,2.79,2.79,0,0,1,1.4,1.14,3.51,3.51,0,0,1,.53,1.89,3.24,3.24,0,0,1-.8,2.23,3.8,3.8,0,0,1-2.38,1.1,5.56,5.56,0,0,1,1.31,1A13.53,13.53,0,0,1,561.27,14l1.46,2.33h-2.9l-1.75-2.61a19.61,19.61,0,0,0-1.27-1.75,2,2,0,0,0-.73-.51,4,4,0,0,0-1.21-.13h-.49v5Zm2.41-6.92h1.79a9.75,9.75,0,0,0,2.18-.15,1.26,1.26,0,0,0,.67-.5,1.63,1.63,0,0,0,.25-.91,1.43,1.43,0,0,0-.32-1,1.54,1.54,0,0,0-.91-.47,15.94,15.94,0,0,0-1.76,0h-1.9V9.38Z" transform="translate(0 0.05)" style="fill: #64b3df"/>
    </g>
  </g>
  <g>
    <path d="M746.28,0a4.36,4.36,0,0,0-2.76,1.14l-.09-.6a.31.31,0,0,0-.32-.27h-.83a.27.27,0,0,0-.28.27V12a.28.28,0,0,0,.28.28h1.09a.29.29,0,0,0,.28-.28V8a3.83,3.83,0,0,0,2.56,1c2.29,0,3.65-2,3.65-4.46C749.86,2.25,749,0,746.28,0Zm1.09,7.07a2.05,2.05,0,0,1-1.62.53,3.94,3.94,0,0,1-2.1-.79V2.17a3.74,3.74,0,0,1,2.18-.77c1.81,0,2.31,1.42,2.31,3.05A3.67,3.67,0,0,1,747.37,7.1Z" transform="translate(0 0.05)" style="fill: #333e47"/>
    <path d="M757.88,8.53a.29.29,0,0,1-.28.28h-.82a.32.32,0,0,1-.32-.28L756.38,8a5,5,0,0,1-1.34.8,3.37,3.37,0,0,1-3-.15,2.41,2.41,0,0,1-1-2.07,2.56,2.56,0,0,1,.65-1.76,3.26,3.26,0,0,1,2.49-1,7.93,7.93,0,0,1,2.18.29V3c0-1.14-.48-1.63-1.75-1.63a8.48,8.48,0,0,0-2.73.47.26.26,0,0,1-.26-.28V.93a.4.4,0,0,1,.27-.35A8.37,8.37,0,0,1,754.72,0c1.44,0,3.16.33,3.16,2.55v6ZM756.31,6.9V5.21A8.83,8.83,0,0,0,754.5,5a2.1,2.1,0,0,0-1.48.48,1.37,1.37,0,0,0-.34,1,1.3,1.3,0,0,0,.51,1.13,2.12,2.12,0,0,0,1.69.07A3.66,3.66,0,0,0,756.31,6.9Z" transform="translate(0 0.05)" style="fill: #333e47"/>
    <path d="M759.42,12v-.6c0-.17.09-.29.26-.28a3.64,3.64,0,0,0,1.14,0,1.33,1.33,0,0,0,.94-.82c.26-.6.43-1.08.54-1.4L759,.68c-.06-.14-.08-.4.2-.4h1.16a.36.36,0,0,1,.36.28l2.4,6.67,2.3-6.67a.36.36,0,0,1,.36-.28h1.09c.28,0,.26.26.21.4l-3.29,8.47c-.43,1.12-1,2.92-2.27,3.23a3.32,3.32,0,0,1-1.92-.09A.38.38,0,0,1,759.42,12Z" transform="translate(0 0.05)" style="fill: #333e47"/>
    <path d="M770.21,11.62a6.36,6.36,0,0,0-3.45,1c-.31.22-.26.52.09.48,1.13-.14,3.64-.44,4.09.13s-.5,2.94-.92,4c-.13.32.14.45.43.21,1.88-1.58,2.37-4.87,2-5.35A3.92,3.92,0,0,0,770.21,11.62Z" transform="translate(0 0.05)" style="fill: #f79c34"/>
    <path d="M736.8,12.82c-.26,0-.38.37-.1.63,4.7,4.41,10.91,6.57,17.81,6.57a25.07,25.07,0,0,0,14.58-4.63c.66-.5.1-1.25-.57-1a34.27,34.27,0,0,1-13.6,2.89c-6.47,0-12.75-1.35-17.82-4.42A.46.46,0,0,0,736.8,12.82Z" transform="translate(0 0.05)" style="fill: #f79c34"/>
  </g>
  <path d="M796.33,10a10,10,0,1,1-10-10A10,10,0,0,1,796.33,10Z" transform="translate(0 0.05)" style="fill: #ffc107"/>
  <path d="M782.83,15V5h4.1a4.48,4.48,0,0,1,2.74.7,2.36,2.36,0,0,1,.94,2,2.25,2.25,0,0,1-.38,1.29,2.15,2.15,0,0,1-1,.83,2,2,0,0,1,1.2.77,2.28,2.28,0,0,1,.44,1.43,2.63,2.63,0,0,1-.91,2.18,4.07,4.07,0,0,1-2.6.76Zm2-6H787c1,0,1.54-.41,1.54-1.22a1.15,1.15,0,0,0-.39-1,2,2,0,0,0-1.24-.3h-2.1Zm0,1.5v3h2.43c.48,0,1.57-.24,1.57-1.31s-.55-1.68-1.5-1.69Z" transform="translate(0 0.05)" style="fill: #fff8e1"/>
  <path d="M784.33,3.53h1.5V6h-1.5Zm2.5,0h1.5V6h-1.5ZM784.33,14h1.5v2.5h-1.5Zm2.5,0h1.5v2.5h-1.5Z" transform="translate(0 0.05)" style="fill: #fff8e1"/>
</svg>
