<svg width="7" height="10" viewBox="0 0 7 10" fill="none" xmlns="http://www.w3.org/2000/svg">
<path d="M0 6.49671C0 5.4291 0.317262 4.61325 0.997092 3.7825C1.41752 3.26874 2.00481 2.75177 2.36775 2.01435C2.81864 1.09822 3.00112 -9.15527e-05 3.00112 -9.15527e-05C3.92961 1.59286 3.71425 2.34862 3.4359 3.19749C3.22582 3.83815 3.58428 4.38313 4.1615 4.41153C4.58027 4.43213 4.88278 4.22819 5.00803 3.6224C5.14005 2.98384 4.93717 2.07769 4.87684 1.87947C6.16296 2.80174 7.17864 5.05305 6.97357 6.697C6.87018 8.53857 5.34988 9.99991 3.48959 9.99991C1.58623 9.99991 0 8.38997 0 6.49671Z" fill="#F0A534"/>
<path d="M0 6.49671C0 5.4291 0.317262 4.61325 0.997092 3.7825C1.41752 3.26874 2.00481 2.75177 2.36775 2.01435C2.81864 1.09822 3.00112 -9.15527e-05 3.00112 -9.15527e-05C3.92961 1.59286 3.71425 2.34862 3.4359 3.19749C3.22582 3.83815 3.58428 4.38313 4.1615 4.41153C4.58027 4.43213 4.88278 4.22819 5.00803 3.6224C5.14005 2.98384 4.93717 2.07769 4.87684 1.87947C6.16296 2.80174 7.17864 5.05305 6.97357 6.697C6.87018 8.53857 5.34988 9.99991 3.48959 9.99991C1.58623 9.99991 0 8.38997 0 6.49671Z" fill="url(#paint0_radial_489_5996)"/>
<defs>
<radialGradient id="paint0_radial_489_5996" cx="0" cy="0" r="1" gradientUnits="userSpaceOnUse" gradientTransform="translate(3.50006 8.64572) rotate(-90) scale(6.83338 4.78337)">
<stop stop-color="#FFD464"/>
<stop offset="0.192708" stop-color="#FFD15A"/>
<stop offset="1" stop-color="#FF2F2F"/>
</radialGradient>
</defs>
</svg>
