<svg xmlns="http://www.w3.org/2000/svg" width="12" height="100" viewBox="0 0 12 100">
  <defs>
    <style>
      .cls-1 {
        fill: #1d1a1a;
      }

      .cls-1, .cls-2 {
        fill-rule: evenodd;
      }

      .cls-2 {
        fill: #fefefe;
      }
    </style>
  </defs>
  <path class="cls-1" d="M11.717,90.686a1.008,1.008,0,0,1-1.425,0L7,87.394V99a1,1,0,0,1-2,0V87.394L1.708,90.686A1.008,1.008,0,0,1,.283,89.26L5.26,84.283a0.92,0.92,0,0,1,.251-0.131,0.987,0.987,0,0,1,.2-0.1,0.919,0.919,0,0,1,.172-0.033,0.989,0.989,0,0,1,.861.266l4.977,4.977A1.008,1.008,0,0,1,11.717,90.686Z"/>
  <path data-name="Arrow" class="cls-2" d="M11.686,6.686a1.008,1.008,0,0,1-1.425,0L7,3.425V15a1,1,0,0,1-2,0V3.394L1.708,6.686A1.008,1.008,0,0,1,.283,5.26L5.26,0.283A0.892,0.892,0,0,1,5.366.228,0.981,0.981,0,0,1,5.726.04,0.919,0.919,0,0,1,5.86.014a0.981,0.981,0,0,1,.706.174C6.589,0.2,6.615.217,6.637,0.236s0.05,0.026.071,0.047L11.686,5.26A1.008,1.008,0,0,1,11.686,6.686Z"/>
</svg>
