<svg width="644" height="44" viewBox="0 0 644 44" fill="none" xmlns="http://www.w3.org/2000/svg">
  <defs>
    <linearGradient id="gradient" x1="399" y1="-700" x2="389" y2="-720" gradientTransform="matrix(1, 0, 0, -1, 0, -700)" gradientUnits="userSpaceOnUse">
      <stop offset="0" stop-color="#9e42b4"/>
      <stop offset="0.07" stop-color="#9e42b4"/>
      <stop offset="0.47" stop-color="#e5566f"/>
      <stop offset="1" stop-color="#fdc76d"/>
    </linearGradient>
  </defs>
  <circle cx="58" cy="10" r="10" style="fill: #1f7aef"/>
  <path d="M59.56,19.88V13h2.33l.45-2.91H59.56V8.17a1.46,1.46,0,0,1,1.31-1.58h1.58V4.13a15.28,15.28,0,0,0-2.24-.2c-2.28,0-3.77,1.39-3.77,3.91v2.22H53.9V13h2.54v6.91a10.2,10.2,0,0,0,3.12,0Z" transform="translate(0 0)" style="fill: #fff"/>
  <path d="M81.63,7.28s.36-5.17,4-5.22c2.92,0,3.48,1.3,3.48,1.3A6.52,6.52,0,0,0,91.46,2a4,4,0,0,1-1,2.33A2.4,2.4,0,0,0,92,3.8a2.89,2.89,0,0,1-.59,1.14,3,3,0,0,1-1,.79A15,15,0,0,1,88,14.87C85.33,18.68,80.58,19,78,19a13.88,13.88,0,0,1-6-1.74s4,0,5.73-1.25a29.1,29.1,0,0,1-3.92-3.26,4,4,0,0,0,1.42-.14A21.27,21.27,0,0,1,72,8.13a5.31,5.31,0,0,0,1.49.07S71.2,4.44,72.29,2C72.29,2,76.19,7,81.63,7.28Z" transform="translate(0 0)" style="fill: #1da1f2;fill-rule: evenodd"/>
  <path d="M169.38,9.32q8-3.6,10.74-4.75C185.23,2.39,186.29,2,187,2a1.29,1.29,0,0,1,.71.22.77.77,0,0,1,.26.51,3.05,3.05,0,0,1,0,.74c-.28,3-1.48,10.24-2.09,13.59-.25,1.41-.76,1.89-1.25,1.93-1.07.1-1.89-.72-2.92-1.42-1.62-1.09-2.54-1.77-4.11-2.83-1.82-1.23-.64-1.91.39-3,.28-.29,5-4.68,5.08-5.08a.41.41,0,0,0-.09-.34.33.33,0,0,0-.38,0c-.12.06-2.75,1.8-7.77,5.27a3.41,3.41,0,0,1-2,.76,12.94,12.94,0,0,1-2.87-.7c-1.15-.38-2.06-.58-2-1.24C168.05,10,168.5,9.67,169.38,9.32Z" transform="translate(0 0)" style="fill: #24a1de;fill-rule: evenodd"/>
  <path d="M192,20l1.41-5.14A9.94,9.94,0,0,1,205.85.76a9.66,9.66,0,0,1,3.24,2.15A9.91,9.91,0,0,1,202,19.83h0a10,10,0,0,1-4.76-1.21Zm5.52-3.17.31.18A8.24,8.24,0,0,0,202,18.15h0a8.26,8.26,0,0,0,8.28-8.23,8.18,8.18,0,0,0-.63-3.16,8.29,8.29,0,0,0-15.93,3.15A8.2,8.2,0,0,0,195,14.29l.2.32-.84,3Zm9.54-4.56c-.06-.1-.23-.16-.48-.28s-1.47-.73-1.7-.81-.39-.12-.56.12a10.84,10.84,0,0,1-.79,1c-.14.17-.29.19-.54.07a7.1,7.1,0,0,1-2-1.23,7.4,7.4,0,0,1-1.38-1.72c-.15-.25,0-.38.11-.5s.25-.29.37-.44a1.33,1.33,0,0,0,.25-.41.47.47,0,0,0,0-.43c-.06-.13-.56-1.35-.77-1.84s-.4-.42-.56-.43h-.47a1.18,1.18,0,0,0-.37.09,1.05,1.05,0,0,0-.3.22,2.79,2.79,0,0,0-.87,2,4.73,4.73,0,0,0,1,2.56A10.93,10.93,0,0,0,202.25,14a14.17,14.17,0,0,0,1.42.52,3.44,3.44,0,0,0,1.56.1,2.55,2.55,0,0,0,1.68-1.18,2.08,2.08,0,0,0,.15-1.18Z" transform="translate(0 0)" style="fill: #34d36a;fill-rule: evenodd"/>
  <path d="M227.25,9.15a.35.35,0,0,1-.22-.08.33.33,0,0,1-.09-.21,1.46,1.46,0,0,0-.41-1.14,1.42,1.42,0,0,0-.53-.34,1.47,1.47,0,0,0-.62-.1.32.32,0,0,1-.21-.1.27.27,0,0,1-.08-.23.28.28,0,0,1,.1-.21.32.32,0,0,1,.23-.07,2.06,2.06,0,0,1,.85.15,1.88,1.88,0,0,1,.71.47,2.11,2.11,0,0,1,.46.72,2,2,0,0,1,.12.84.21.21,0,0,1,0,.11.24.24,0,0,1-.06.11l-.1.07h-.15Z" transform="translate(0 0)" style="fill: #7362ef"/>
  <path d="M228.83,9.14h.22a.15.15,0,0,0,.09-.06.21.21,0,0,0,.06-.1.21.21,0,0,0,0-.11,3.63,3.63,0,0,0-1-2.66A4.14,4.14,0,0,0,225.43,5h-.23l-.08.09a.21.21,0,0,0,0,.11v.12a.36.36,0,0,0,.07.1.21.21,0,0,0,.1.06h.12a3.59,3.59,0,0,1,2.44,1,3,3,0,0,1,.65,1.07,2.93,2.93,0,0,1,.18,1.24v.1a.15.15,0,0,0,.06.09Z" transform="translate(0 0)" style="fill: #7362ef"/>
  <path d="M230.56,10a.32.32,0,0,1-.3-.3,5.38,5.38,0,0,0-3.51-5.39,5.6,5.6,0,0,0-2.18-.38.31.31,0,0,1-.22-.09.3.3,0,0,1,0-.41h0a.36.36,0,0,1,.22-.09,6.63,6.63,0,0,1,2.41.43,5.82,5.82,0,0,1,3.46,3.42,5.94,5.94,0,0,1,.42,2.5.29.29,0,0,1-.29.29h0Z" transform="translate(0 0)" style="fill: #7362ef"/>
  <path d="M226.34,11.39a.71.71,0,0,1-.29,0,4.86,4.86,0,0,1-3.28-3.28.48.48,0,0,1,0-.29A.8.8,0,0,1,223,7.6l.47-.36a.82.82,0,0,0,.15-1l-.1-.16a7.8,7.8,0,0,0-.5-.77l-.69-.85a.66.66,0,0,0-.44-.25.68.68,0,0,0-.5.1,3.91,3.91,0,0,0-.85.92,1.55,1.55,0,0,0-.38.78v.11a1,1,0,0,0,.06.34,11.35,11.35,0,0,0,1,2.15,13.49,13.49,0,0,0,1.21,1.8c.23.28.47.56.72.82h0c.26.25.53.49.82.72a13.41,13.41,0,0,0,1.8,1.2,12.43,12.43,0,0,0,2.16,1,1,1,0,0,0,.34,0h.11a1.58,1.58,0,0,0,.79-.38,3.43,3.43,0,0,0,.77-1,.65.65,0,0,0,.1-.49.62.62,0,0,0-.25-.43s-.57-.48-.85-.69a9.19,9.19,0,0,0-.93-.6.82.82,0,0,0-1,.14l-.37.47A.73.73,0,0,1,226.34,11.39Z" transform="translate(0 0)" style="fill: #7362ef"/>
  <path d="M232.87,2c-.5-.46-2.51-1.92-7-1.94,0,0-5.28-.32-7.87,2-1.44,1.44-1.94,3.53-2,6.13s-.12,7.46,4.58,8.78v2s0,.82.51,1,.89-.23,1.35-.75q.13-.16.3-.33c.34-.37.81-.91,1.16-1.32a18.08,18.08,0,0,0,6-.44l.24-.07c1-.26,4.13-1,4.68-5.48C235.43,6.55,234.52,3.38,232.87,2Zm.54,9.26c-.45,3.66-2.91,4.23-3.79,4.44h-.24a16.43,16.43,0,0,1-5.13.45s-2,2.42-2.67,3.08a.32.32,0,0,1-.13.1.22.22,0,0,1-.16,0c-.11,0-.14-.15-.14-.34V15.66c-3.85-1.07-3.75-5-3.7-7.2V8.25c.05-2.17.46-3.95,1.67-5.15,2.18-2,6.67-1.67,6.67-1.67,3.78,0,5.6,1.15,6,1.53,1.43,1.2,2.14,4,1.62,8.25Z" transform="translate(0 0)" style="fill: #7362ef;fill-rule: evenodd"/>
  <path d="M258.43,14.14c-.91-.45-3.49-2.1-3-3.48.14-.36.56-.62,1.17-1.05a1.36,1.36,0,0,0,.45-1.87h0L257,7.61a1.19,1.19,0,0,0-1.1-.24l-.83.24c.07-1.75,0-3.54-1.16-4.94a5.38,5.38,0,0,0-7.61-.16h0l-.16.16c-1.21,1.4-1.24,3.18-1.17,4.94l-.83-.24a1.14,1.14,0,0,0-1.1.24,1.37,1.37,0,0,0,.25,1.92l.11.08c.6.43,1,.7,1.16,1.05.53,1.37-2.07,3-3,3.48-.7.35-.78,1.09,0,1.44.59.27,1.46.36,1.73.71s.09.66.44.91c.67.46,1.85.2,2.63.46,1.29.43,2.13,1.34,3.63,1.34s2.33-.91,3.63-1.34c.77-.26,2,0,2.62-.46.35-.25.23-.62.45-.9s1.13-.44,1.73-.71C259.22,15.24,259.13,14.49,258.43,14.14Z" transform="translate(0 0)" style="fill: #fffc00"/>
  <path d="M247.66,19.39a4.83,4.83,0,0,0,4.69,0,12.07,12.07,0,0,1,1.62-.78,4.35,4.35,0,0,1,1.08-.1,3.52,3.52,0,0,0,1.79-.49,1.75,1.75,0,0,0,.69-1.07c.44-.17.9-.25,1.33-.45A1.79,1.79,0,0,0,260,14.83a1.91,1.91,0,0,0-1.11-1.59h0A8.18,8.18,0,0,1,257.1,12c-.24-.22-.71-.61-.71-1a4.79,4.79,0,0,1,.82-.6h0a2.35,2.35,0,0,0,.7-3.25h0a2,2,0,0,0-.22-.29,2,2,0,0,0-1.61-.55A6.49,6.49,0,0,0,254.65,2,6.09,6.09,0,0,0,250,0h0a6.11,6.11,0,0,0-4.66,2,6.5,6.5,0,0,0-1.43,4.32,2,2,0,0,0-1.61.55,2.35,2.35,0,0,0,.19,3.32h0a3.15,3.15,0,0,0,.29.22h0a4.79,4.79,0,0,1,.82.6c0,.37-.47.76-.71,1a8.31,8.31,0,0,1-1.78,1.23h0a1.9,1.9,0,0,0-1.1,1.59,1.79,1.79,0,0,0,1.15,1.67c.43.2.89.28,1.33.45a1.78,1.78,0,0,0,.68,1.07,3.58,3.58,0,0,0,1.8.49,4.35,4.35,0,0,1,1.08.1A12,12,0,0,1,247.66,19.39ZM250,18c1.2,0,2.2-.92,3.31-1.29a4.93,4.93,0,0,1,1.43-.19,2.9,2.9,0,0,0,.83-.09,1.81,1.81,0,0,1,1-1.25,7,7,0,0,1,1-.35,10.34,10.34,0,0,1-1.87-1.35,4.9,4.9,0,0,1-1-1.3,2.31,2.31,0,0,1-.17-1.87,2.29,2.29,0,0,1,.71-.92c.19-.16.43-.32.65-.48s.47-.31.41-.59c-.69-.08-1.32.63-2,0a1,1,0,0,1-.28-.74c.07-1.77,0-3.17-.93-4.24A4.09,4.09,0,0,0,250,2h0a4.1,4.1,0,0,0-3.14,1.31c-.93,1.07-1,2.47-.93,4.24.07,1.47-1.46.68-2.23.77-.06.27.22.46.41.59s.46.32.65.48a2.29,2.29,0,0,1,.71.92,2.31,2.31,0,0,1-.17,1.87,4.88,4.88,0,0,1-1.05,1.3,10.34,10.34,0,0,1-1.87,1.35,7,7,0,0,1,1,.35,1.81,1.81,0,0,1,1,1.25,2.83,2.83,0,0,0,.82.09h0a5,5,0,0,1,1.44.19C247.79,17.08,248.8,18,250,18Z" transform="translate(0 0)" style="fill: #222;fill-rule: evenodd"/>
  <circle cx="298" cy="10" r="10" style="fill: #007ab9"/>
  <path d="M299.07,8.76" transform="translate(0 0)" style="fill: #fff"/>
  <path d="M304,14.93V10.8c0-2.2-1.18-3.23-2.76-3.23a2.4,2.4,0,0,0-2.15,1.19v-1H296.7V15h2.39V11a1.43,1.43,0,0,1,.08-.58,1.29,1.29,0,0,1,1.22-.87c.87,0,1.21.66,1.21,1.62V15ZM292.83,5.51a1.34,1.34,0,1,1,1.43,1.25h-.1a1.24,1.24,0,0,1-1.33-1.14h0Zm2.53,9.42H293V7.74h2.39Z" transform="translate(0 0)" style="fill: #fff;fill-rule: evenodd"/>
  <path d="M317.83,2A5.72,5.72,0,0,0,312,7.6v4.8a5.72,5.72,0,0,0,5.83,5.6h8.34A5.72,5.72,0,0,0,332,12.4V7.6A5.72,5.72,0,0,0,326.17,2Z" transform="translate(0 0)" style="fill: #fc0017;fill-rule: evenodd"/>
  <path d="M326.17,10,319.5,6.8v6.4Z" transform="translate(0 0)" style="fill: #fff;fill-rule: evenodd"/>
  <path d="M379,5a5.23,5.23,0,0,1-3.12-1,5,5,0,0,1-2-3,5,5,0,0,1-.1-.95h-3.35V13.81a3,3,0,0,1-2.08,2.81,3.25,3.25,0,0,1-1.12.14,3,3,0,1,1,.16-5.9,2.82,2.82,0,0,1,1,.15V7.69a6.73,6.73,0,0,0-1-.07,6.41,6.41,0,0,0-4.82,2.11,6,6,0,0,0,.28,8.46,7.34,7.34,0,0,0,.6.51,6.51,6.51,0,0,0,3.94,1.3,6.73,6.73,0,0,0,1-.07A6.43,6.43,0,0,0,372,18.19a6,6,0,0,0,1.88-4.35V6.54a9,9,0,0,0,1.88,1.07,8.72,8.72,0,0,0,3.31.65V5Z" transform="translate(0 0)" style="fill: #222"/>
  <path d="M394,5a5,5,0,1,1-5,5A5,5,0,0,1,394,5Zm0,2.5a2.5,2.5,0,1,1-2.5,2.5A2.5,2.5,0,0,1,394,7.5Z" transform="translate(0 0)" style="fill-rule: evenodd;fill: url(#gradient)"/>
  <path d="M390.67,0A6.66,6.66,0,0,0,384,6.65h0v6.68A6.66,6.66,0,0,0,390.65,20h6.68A6.66,6.66,0,0,0,404,13.35h0V6.67A6.66,6.66,0,0,0,397.35,0h-6.68Zm6.66,2.5h-6.66a4.17,4.17,0,0,0-4.17,4.17h0v6.66a4.17,4.17,0,0,0,4.17,4.17h6.66a4.17,4.17,0,0,0,4.17-4.17h0V6.67a4.14,4.14,0,0,0-1-2.71,1.23,1.23,0,0,1,.17.62,1.25,1.25,0,1,1-1.25-1.25,1.23,1.23,0,0,1,.62.17,4.14,4.14,0,0,0-2.71-1Z" transform="translate(0 0)" style="fill-rule: evenodd;fill: url(#gradient)"/>
  <circle cx="418" cy="10" r="10" style="fill: #e60019"/>
  <path d="M415.05,19.56l-.7-.25a9.86,9.86,0,0,1,0-2.87c.19-.78,1.17-5,1.17-5a3.59,3.59,0,0,1-.29-1.48c0-1.39.8-2.43,1.81-2.43a1.25,1.25,0,0,1,1.31,1.19h0a1.31,1.31,0,0,1,0,.28,7.65,7.65,0,0,1-.46,2c-.13.43-.26.86-.37,1.29a1.44,1.44,0,0,0,1,1.77,1.24,1.24,0,0,0,.47,0c1.78,0,3.15-1.88,3.15-4.57a4,4,0,0,0-3.93-4.07H418a4.34,4.34,0,0,0-4.52,4.14v.2a4,4,0,0,0,.74,2.28.29.29,0,0,1,.07.28c-.05.19-.12.5-.19.75h0a1.3,1.3,0,0,1-.09.39.25.25,0,0,1-.33.14h0a4.53,4.53,0,0,1-2-3.88c0-3.15,2.29-6,6.61-6a5.86,5.86,0,0,1,6.15,5.56h0v.21c0,3.44-2.17,6.22-5.18,6.22A2.6,2.6,0,0,1,417,14.6l-.65,2.4A11.22,11.22,0,0,1,415.05,19.56Z" transform="translate(0 0)" style="fill: #fff"/>
  <circle cx="440" cy="12" r="8" style="fill: #3ae7bc"/>
  <circle cx="445.5" cy="6.5" r="6.5" style="fill: #ff7188"/>
  <path d="M445.5,13A6.5,6.5,0,0,1,439,6.5a6.3,6.3,0,0,1,.49-2.5H440a8,8,0,0,1,8,8v.51A6.3,6.3,0,0,1,445.5,13Z" transform="translate(0 0)" style="fill: #2e57db;fill-rule: evenodd"/>
  <path d="M547.58,10.23a11,11,0,0,0-.16-1.9H538v3.76h5.39a4.6,4.6,0,0,1-2,3V17.6h3.22A9.77,9.77,0,0,0,547.58,10.23Z" transform="translate(0 0)" style="fill: #4285f4"/>
  <path d="M538,20a9.58,9.58,0,0,0,6.61-2.42l-3.22-2.51a6,6,0,0,1-8.31-1.72h0a6.36,6.36,0,0,1-.69-1.44h-3.31v2.57A10,10,0,0,0,538,20Z" transform="translate(0 0)" style="fill: #34a853"/>
  <path d="M532.39,11.91a5.62,5.62,0,0,1-.31-1.91,5.92,5.92,0,0,1,.31-1.91V5.52h-3.31a9.85,9.85,0,0,0,0,9Z" transform="translate(0 0)" style="fill: #fbbc05"/>
  <path d="M538,4a5.46,5.46,0,0,1,3.83,1.5l2.85-2.85A9.55,9.55,0,0,0,538,0a10,10,0,0,0-8.92,5.52l3.31,2.57A6,6,0,0,1,538,4Z" transform="translate(0 0)" style="fill: #ea4335"/>
  <path d="M553.25,4A1.27,1.27,0,0,0,552,5.29h0v7.28A3.38,3.38,0,0,0,555.33,16h9.59a1.27,1.27,0,0,0,1.25-1.29h0V7.43A3.39,3.39,0,0,0,562.83,4Z" transform="translate(0 0)" style="fill: #4b92fb"/>
  <path d="M567.9,6.66l2.73-2.35A.84.84,0,0,1,572,5V15a.85.85,0,0,1-.83.85.87.87,0,0,1-.54-.19l-2.73-2.35a2.59,2.59,0,0,1-.9-2V8.63A2.6,2.6,0,0,1,567.9,6.66Z" transform="translate(0 0)" style="fill: #4b92fb"/>
  <path d="M632.24.66a9.48,9.48,0,0,1,11.1,7.52,10.1,10.1,0,0,1,.17,1.82h0a9.35,9.35,0,0,1-.17,1.75,5.65,5.65,0,0,1-7.64,7.6,10.26,10.26,0,0,1-1.75.16,9.48,9.48,0,0,1-9.29-11.27,5.6,5.6,0,0,1,5-8.24A5.53,5.53,0,0,1,632.24.66Z" transform="translate(0 0)" style="fill: #00aff0;fill-rule: evenodd"/>
  <path d="M629.19,12.86c0,1.24,1.5,2.89,4.85,2.89s4.78-1.54,4.78-3.61c0-1.33-.62-2.75-3-3.29l-2.2-.49c-.84-.19-1.81-.44-1.81-1.24s.68-1.35,1.9-1.35a2.76,2.76,0,0,1,2.4,1.07,1.38,1.38,0,0,0,1.07.63,1.11,1.11,0,0,0,1.21-1h0c0-1.53-2.44-2.67-4.5-2.67-2.24,0-4.63,1-4.63,3.49,0,1.23.44,2.53,2.84,3.14l3,.74c.91.22,1.13.73,1.13,1.19,0,.77-.76,1.51-2.13,1.51a2.72,2.72,0,0,1-2.52-1.27c-.33-.42-.61-.79-1.22-.79a1,1,0,0,0-1.15.82s0,.07,0,.1A.57.57,0,0,0,629.19,12.86Z" transform="translate(0 0)" style="fill: #fff;fill-rule: evenodd"/>
  <path d="M33.17,0a9.26,9.26,0,0,0-9.49,9,8.72,8.72,0,0,0,3,6.55V20l3.9-2.35a11.39,11.39,0,0,0,2.59.36,9.28,9.28,0,0,0,9.5-9A9.27,9.27,0,0,0,33.17,0Z" transform="translate(0 0)" style="fill: #448aff"/>
  <path d="M26.61,12.18l5.47-6L34.79,8.9l4.93-2.73-5.46,6L31.53,9.44Z" transform="translate(0 0)" style="fill: #fff"/>
  <path d="M114.5,10A8.5,8.5,0,1,1,106,1.5,8.51,8.51,0,0,1,114.5,10Z" transform="translate(0 0)" style="fill: #fff"/>
  <path d="M104.5,18.5V15.75a.25.25,0,0,1,.5,0V18.5h1V15.25a.25.25,0,0,1,.5,0V18.5h1V15.75a.25.25,0,0,1,.5,0V18.5h.9a1,1,0,0,0,.1-.5V16c0-1.1-1-2.6-2.15-2.6H105.6c-1.15,0-2.15,1.55-2.15,2.6v2a1.72,1.72,0,0,0,.1.55Zm9.55-7.3h0a4.86,4.86,0,0,0-1.2-.2h0a11.68,11.68,0,0,0-1.45.15V11.1h0A14.32,14.32,0,0,1,113,11a5.92,5.92,0,0,1,1.25.2v.1S114.1,11.2,114.05,11.2Zm-.15.4h0a5.68,5.68,0,0,0-1.3-.2c-.45,0-1.5.1-1.55.1s0,0,0-.05h0s1.1-.1,1.55-.1a5.18,5.18,0,0,1,1.3.2v.1S114,11.6,113.9,11.6Zm-16-.4h-.05a.14.14,0,0,1,.05-.1,8.33,8.33,0,0,1,1.65-.25c.4,0,1.75.1,1.8.1a.05.05,0,1,1,0,.1S100,11,99.6,11a9.93,9.93,0,0,0-1.7.3Zm.2.75h0v-.1a4.89,4.89,0,0,1,1.45-.5,12.27,12.27,0,0,1,2.1,0m0,.1h0a11.13,11.13,0,0,0-2,0A5.73,5.73,0,0,0,98.1,12Z" transform="translate(0 0)" style="fill: #455a64"/>
  <path d="M101.1,9.75c0-2.2,2.3-4.25,5.15-4.25s5.15,2,5.15,4.25-1.65,3.75-5.15,3.75S101.1,12,101.1,9.75Z" transform="translate(0 0)" style="fill: #455a64"/>
  <path d="M108.3,6.15A3.15,3.15,0,0,1,110.7,5c.6.6.2,2.4,0,2.9Zm-4.1,0A3.15,3.15,0,0,0,101.8,5c-.6.6-.2,2.4,0,2.9Zm-.15,9.8h-1.4a1.5,1.5,0,0,1-1.4-.75,3.83,3.83,0,0,0-1.3-1.65c-.15-.1,0-.2.2-.2a1.57,1.57,0,0,1,1,.55c.35.45.75,1,1.4,1a2.24,2.24,0,0,0,1.75-.45Z" transform="translate(0 0)" style="fill: #455a64"/>
  <path d="M106,0a10,10,0,1,0,10,10A10,10,0,0,0,106,0Zm0,18a8,8,0,1,1,8-8A8,8,0,0,1,106,18Z" transform="translate(0 0)" style="fill: #00bcd4"/>
  <path d="M148.23,8.23a2.26,2.26,0,0,0-3.16,0,2.3,2.3,0,0,0,.39,3.23h.07Zm11.7,0a2.24,2.24,0,0,1,3.16,0,2.3,2.3,0,0,1-.39,3.23h-.07ZM161.18,2a1.74,1.74,0,1,0,1.74,1.74h0A1.72,1.72,0,0,0,161.22,2h0Z" transform="translate(0 0)" style="fill: #fff"/>
  <path d="M154.12,6.31c-5,0-9,2.87-9,6.41s4,6.42,9,6.42h0c4.95,0,9-2.87,9-6.41S159.12,6.31,154.12,6.31Z" transform="translate(0 0)" style="fill: #fff"/>
  <path d="M157.24,10.19a1.43,1.43,0,0,0,0,2.86h0a1.43,1.43,0,1,0,0-2.86Zm-6.31,0a1.44,1.44,0,0,0-1.44,1.43,1.43,1.43,0,0,0,1.43,1.43h0a1.43,1.43,0,1,0,0-2.86h0Z" transform="translate(0 0)" style="fill: #d84315"/>
  <g>
    <path d="M154.08,15.84a7.87,7.87,0,0,1-4-.94,5,5,0,0,0,7,.93,5.12,5.12,0,0,0,.93-.93A7.92,7.92,0,0,1,154.08,15.84Zm8.84-3.9-.58-.8a1.85,1.85,0,0,0,.74-1.31,1.62,1.62,0,0,0-.36-1.25,1.5,1.5,0,0,0-1.14-.49,2,2,0,0,0-1.31.51l-.67-.73a3,3,0,0,1,2-.77,2.48,2.48,0,0,1,1.88.82,2.55,2.55,0,0,1,.6,2A2.78,2.78,0,0,1,162.92,11.94Zm-17.68,0a2.81,2.81,0,0,1-1.14-2,2.64,2.64,0,0,1,.6-2,2.48,2.48,0,0,1,1.88-.82h0a2.9,2.9,0,0,1,2,.77l-.66.73a2.07,2.07,0,0,0-1.32-.51,1.5,1.5,0,0,0-1.14.49,1.62,1.62,0,0,0-.36,1.25,1.85,1.85,0,0,0,.74,1.31Zm9.34-5h-1c0-1.43,0-5.23,2.46-5.23a2.37,2.37,0,0,1,2,1c.31.36.48.54.8.54h.68v1h-.68a2,2,0,0,1-1.55-.89,1.46,1.46,0,0,0-1.21-.69c-1,0-1.5,1.33-1.5,4.22Z" transform="translate(0 0)" style="fill: #37474f"/>
    <path d="M154.12,6.94c4.67,0,8.47,2.6,8.47,5.78s-3.8,5.79-8.47,5.79-8.47-2.6-8.47-5.79,3.8-5.78,8.47-5.78m0-1c-5.22,0-9.46,3-9.46,6.77s4.24,6.78,9.46,6.78,9.46-3,9.46-6.78S159.35,6,154.12,6Zm7.06-3.46a1.24,1.24,0,1,1-1.24,1.24,1.26,1.26,0,0,1,1.24-1.24m0-1a2.23,2.23,0,1,0,2.23,2.23h0A2.23,2.23,0,0,0,161.18,1.48Z" transform="translate(0 0)" style="fill: #37474f"/>
  </g>
  <path d="M264.31,2.11A2.13,2.13,0,0,1,266.42,0h14.77a2.14,2.14,0,0,1,2.12,2.11V16.89A2.14,2.14,0,0,1,281.19,19H266.42a2.13,2.13,0,0,1-2.11-2.11Z" transform="translate(0 0)" style="fill: #e1e7ea"/>
  <path d="M269.58,5.8a3.7,3.7,0,1,0,3.69,3.71h0A3.7,3.7,0,0,0,269.58,5.8Z" transform="translate(0 0)" style="fill: #1565c0"/>
  <path d="M278,5.8a3.7,3.7,0,1,0,3.69,3.71h0A3.7,3.7,0,0,0,278,5.8Z" transform="translate(0 0)" style="fill: #ff4081"/>
  <path d="M338,2.11A2.12,2.12,0,0,1,340.08,0h14.79A2.1,2.1,0,0,1,357,2.07v0h0V16.89A2.1,2.1,0,0,1,354.89,19H340.1a2.11,2.11,0,0,1-2.1-2.11h0Z" transform="translate(0 0)" style="fill: #2196f3"/>
  <path d="M349.07,5.8h3.7V6.86h-3.7Zm-2.85,3.4a1.57,1.57,0,0,0,.95-1.51c0-1.9-2.08-1.9-2.47-1.9h-3.55v7.39h3.7c.32,0,2.63-.09,2.63-2.11A1.81,1.81,0,0,0,346.22,9.2Zm-3.43-2.11h1.53c.16,0,1.16,0,1.16.82a.93.93,0,0,1-.93.95h-1.82Zm1.76,4.82h-1.78v-2h1.78a1.08,1.08,0,0,1,1.22.92h0V11c0,.94-1.13,1-1.28,1Zm7.44-.09a1.5,1.5,0,0,1-2.06-.46,1.53,1.53,0,0,1-.23-.81h4.12a5.12,5.12,0,0,0-.08-1.17,2.61,2.61,0,0,0-2.69-2,2.85,2.85,0,0,0-3,2.66v.24a2.67,2.67,0,0,0,.24,1.15,2.77,2.77,0,0,0,.57,1,3.76,3.76,0,0,0,.91.62,3.61,3.61,0,0,0,1.22.22,3.17,3.17,0,0,0,1.72-.45,2.74,2.74,0,0,0,1.06-1.38h-1.39a1,1,0,0,1-.43.42Zm-.9-3.36c.8,0,1.14.84,1.23,1.22H349.7a1.38,1.38,0,0,1,1.35-1.22Z" transform="translate(0 0)" style="fill: #fff"/>
  <path d="M500,17.22A2.77,2.77,0,0,1,497.24,20H482.78A2.77,2.77,0,0,1,480,17.24h0V2.78A2.77,2.77,0,0,1,482.76,0h14.46A2.77,2.77,0,0,1,500,2.76h0Z" transform="translate(0 0)" style="fill: #01579b"/>
  <path d="M494.44,16.05a.2.2,0,0,1-.06.14,6,6,0,0,1-3.85,1c-3.18,0-3.28-3.56-3.28-4V8.82h-1.48a.18.18,0,0,1-.18-.18V7a.18.18,0,0,1,.11-.17s2.87-1.16,2.87-3.85a.18.18,0,0,1,.18-.18h1.65a.19.19,0,0,1,.19.18V6.67h3.15a.18.18,0,0,1,.18.18V8.71a.18.18,0,0,1-.18.18h-3.15v4.28a1.53,1.53,0,0,0,1.53,1.4A4.47,4.47,0,0,0,494.2,14a.19.19,0,0,1,.18,0,.17.17,0,0,1,.09.16v1.91Z" transform="translate(0 0)" style="fill: #fff"/>
  <path d="M508.52,19h12.15a3.43,3.43,0,0,0,3.43-3.42V3.42A3.43,3.43,0,0,0,520.67,0H508.52a3.42,3.42,0,0,0-3.42,3.42h0V15.55A3.42,3.42,0,0,0,508.49,19Z" transform="translate(0 0)" style="fill: #00c300"/>
  <path d="M521.51,8.65c0-3.1-3.11-5.61-6.92-5.61s-6.93,2.51-6.93,5.61c0,2.77,2.47,5.1,5.79,5.54.23.05.53.15.62.34a1.67,1.67,0,0,1,0,.63s-.09.48-.1.59-.14.68.6.37a22.28,22.28,0,0,0,5.44-4h0A5.13,5.13,0,0,0,521.51,8.65Zm-9.63,1.84h-1.37a.37.37,0,0,1-.37-.36h0V7.38a.37.37,0,0,1,.73,0V9.77h1a.36.36,0,1,1,0,.72Zm1.42-.36a.36.36,0,0,1-.36.36.34.34,0,0,1-.36-.35h0V7.38a.36.36,0,0,1,.36-.36.34.34,0,0,1,.36.35h0Zm3.31,0a.35.35,0,0,1-.25.34h-.12a.35.35,0,0,1-.28-.14l-1.41-1.9v1.7a.37.37,0,0,1-.37.36.36.36,0,0,1-.36-.36h0V7.38a.37.37,0,0,1,.25-.35h.11a.44.44,0,0,1,.3.15l1.4,1.9V7.38a.36.36,0,0,1,.36-.36h0a.37.37,0,0,1,.37.36Zm2.23-1.74a.36.36,0,0,1,.36.36.37.37,0,0,1-.36.37h-1v.65h1a.36.36,0,1,1,0,.72h-1.38a.36.36,0,0,1-.36-.36h0V8.75h0V7.39h0a.36.36,0,0,1,.36-.36h1.38a.36.36,0,0,1,.36.36h0a.37.37,0,0,1-.36.37h-1V8.4Z" transform="translate(0 0)" style="fill: #fff"/>
  <path d="M596.29,16.34a2.63,2.63,0,0,1-2.6,2.66H579.93a2.64,2.64,0,0,1-2.64-2.64h0V2.64A2.64,2.64,0,0,1,579.93,0h13.7a2.62,2.62,0,0,1,2.64,2.6v0h0Z" transform="translate(0 0)" style="fill: #006064"/>
  <path d="M582.71,12.87h-2.14a.35.35,0,0,1-.28-.14.38.38,0,0,1,0-.33l2.26-4h0l-1.43-2.5a.31.31,0,0,1,0-.32.33.33,0,0,1,.29-.13h2.09a.65.65,0,0,1,.6.39l1.47,2.54-2.3,4A.66.66,0,0,1,582.71,12.87Z" transform="translate(0 0)" style="fill: #fff"/>
  <path d="M592.87,3.31l-4.75,8.34h0l3,5.49a.34.34,0,0,1,0,.34.31.31,0,0,1-.28.13h-2.13a.66.66,0,0,1-.59-.4l-3-5.56,4.75-8.41a.6.6,0,0,1,.57-.4h2.16a.31.31,0,0,1,.28.13A.37.37,0,0,1,592.87,3.31Z" transform="translate(0 0)" style="fill: #cddc39"/>
  <path d="M620.92,4.6,615,.86l-4.09,3.37L617,7.8Zm-20,6.48L607,14.64l3.93-3-5.82-3.7ZM607,.86l-6.07,3.92,4.18,3.15,5.82-3.7Zm3.93,10.77,4,3,6-3.56L617,7.8Z" transform="translate(0 0)" style="fill: #1e88e5"/>
  <path d="M615.47,15.6l-.64.38-.59-.45L610.92,13l-3.25,2.5-.59.45-.65-.38-1.63-1V16.1l6.11,4,6.12-4V14.67Z" transform="translate(0 0)" style="fill: #1e88e5"/>
  <circle cx="130.03" cy="10" r="9.69" style="fill: #ed3675"/>
  <path d="M130,0a10,10,0,1,0,10,10A10,10,0,0,0,130,0Zm6.61,4.61a8.51,8.51,0,0,1,1.93,5.31,20.47,20.47,0,0,0-5.95-.27l-.18-.44c-.17-.41-.37-.84-.56-1.24a11.55,11.55,0,0,0,4.79-3.36ZM130,1.47a8.49,8.49,0,0,1,5.66,2.15,9.64,9.64,0,0,1-4.48,3.08,49.11,49.11,0,0,0-3.18-5A9,9,0,0,1,130,1.47Zm-3.63.81a56.59,56.59,0,0,1,3.17,4.93,31.92,31.92,0,0,1-7.9,1,8.61,8.61,0,0,1,4.76-5.93ZM121.49,10V9.75a31,31,0,0,0,8.77-1.21c.25.47.48,1,.69,1.45l-.33.1a13.47,13.47,0,0,0-6.94,5.63A8.57,8.57,0,0,1,121.49,10ZM130,18.55a8.57,8.57,0,0,1-5.24-1.8,11.74,11.74,0,0,1,6.71-5.34h.05a35.33,35.33,0,0,1,1.82,6.47A8.34,8.34,0,0,1,130,18.55Zm4.76-1.47A35.42,35.42,0,0,0,133.13,11a12.59,12.59,0,0,1,5.32.37,8.47,8.47,0,0,1-3.66,5.71Z" transform="translate(0 0)" style="fill: #bd1949;fill-rule: evenodd"/>
  <circle cx="460.87" cy="10.61" r="5.18" style="fill: #000"/>
  <ellipse cx="469.5" cy="10.61" rx="2.59" ry="4.75" style="fill: #000"/>
  <ellipse cx="473.82" cy="10.61" rx="0.86" ry="4.32" style="fill: #000"/>
  <circle cx="460.87" cy="33.61" r="5.18" style="fill: #fff"/>
  <ellipse cx="469.5" cy="33.61" rx="2.59" ry="4.75" style="fill: #fff"/>
  <ellipse cx="473.82" cy="33.61" rx="0.86" ry="4.32" style="fill: #fff"/>
  <path d="M379,29a5.23,5.23,0,0,1-3.12-1,5,5,0,0,1-2.06-4h-3.35V37.81a3,3,0,0,1-2.08,2.81,3.25,3.25,0,0,1-1.12.14,3,3,0,1,1,.16-5.9,2.82,2.82,0,0,1,1,.15V31.69a6.73,6.73,0,0,0-1-.07,6.41,6.41,0,0,0-4.82,2.11,6,6,0,0,0,.28,8.46,7.34,7.34,0,0,0,.6.51,6.51,6.51,0,0,0,3.94,1.3,6.73,6.73,0,0,0,1-.07A6.48,6.48,0,0,0,372,42.19a6,6,0,0,0,1.88-4.35v-7.3a9,9,0,0,0,1.88,1.07,8.72,8.72,0,0,0,3.31.65V29Z" transform="translate(0 0)" style="fill: #fff"/>
  <polygon points="16.57 0.88 1.89 17.88 0.14 17.88 14.81 0.88 16.57 0.88" style="fill: #000"/>
  <polygon points="11.91 17.41 0.9 1.35 5.13 1.35 16.14 17.41 11.91 17.41" style="fill: #fff;fill-rule: evenodd"/>
  <path d="M4.63,2.3l9.72,14.16H12.41L2.69,2.3H4.63M5.37.88H0l11.66,17H17Z" transform="translate(0 0)" style="fill: #000"/>
  <polygon points="16.57 25.88 1.89 42.88 0.14 42.88 14.81 25.88 16.57 25.88" style="fill: #fff"/>
  <polygon points="11.91 42.41 0.9 26.35 5.13 26.35 16.14 42.41 11.91 42.41" style="fill: #474747;fill-rule: evenodd"/>
  <path d="M4.63,27.3l9.72,14.16H12.41L2.69,27.3H4.63m.74-1.42H0l11.66,17H17l-11.67-17Z" transform="translate(0 0)" style="fill: #fff"/>
</svg>
