<svg xmlns="http://www.w3.org/2000/svg" width="15" height="15" viewBox="0 0 15 15">
  <defs>
    <style>
      .cls-1 {
        fill: #f5f5f5;
        fill-rule: evenodd;
      }
    </style>
  </defs>
  <path data-name="Ellipse 50 copy" class="cls-1" d="M888,1468v-7.5a7.5,7.5,0,0,0,13.7,4.21c0.018-.02.027-0.04,0.044-0.06,0.041-.06.089-0.12,0.127-0.18h0A1.023,1.023,0,0,0,902,1464a0.991,0.991,0,0,0-1.878-.45l-0.011-.01A5.51,5.51,0,1,1,895.5,1455a5.441,5.441,0,0,1,4.2,2H898a1,1,0,0,0,0,2h4a1,1,0,0,0,1-1v-4a1,1,0,0,0-1-1h1v15H888Zm7.512-15H902a1,1,0,0,0-1,1v1.44A7.423,7.423,0,0,0,895.512,1453ZM888,1460.5V1453h7.493A7.5,7.5,0,0,0,888,1460.5Z" transform="translate(-888 -1453)"/>
</svg>
