<?xml version="1.0" encoding="utf-8"?>
<svg version="1.1" id="Layer_1" xmlns="http://www.w3.org/2000/svg" xmlns:xlink="http://www.w3.org/1999/xlink" x="0px" y="0px" viewBox="0 0 74 110"  width="30px" height="30px" style="enable-background:new 0 0 74 110;" xml:space="preserve">
	<style type="text/css">
		.st0{fill:#FFFFFF;}
		.st1{fill:#EE5050;}
	</style>
	<g id="XMLID_1938_">
		<g id="XMLID_4214_">
			<path id="XMLID_4279_" class="st0" d="M62.6,53c-0.7-1.4-1.6-2.4-2.3-3.1l5-9.1c3.2-5.7,4.9-10.9,5.6-15.4
			c0.1-0.2,0.1-0.4,0.1-0.5c0.7-4.6,0.4-8.4-0.1-11.4C69.7,7,66.7,3.3,66.6,3.1c-0.4-0.5-1-0.8-1.6-0.9c-0.2,0-4.9-0.6-11.1,1.8
			c-2.8,1.1-6.2,2.9-9.7,5.9c-0.1,0.1-0.3,0.2-0.4,0.3c-3.4,3-6.9,7.2-10.1,12.9l-5,9.1c-1-0.3-2.4-0.5-3.9-0.3
			c-3.2,0.3-7.7,1.9-11.4,8.6l-3,5.5c-0.7,1.2-0.2,2.7,1,3.4l7.3,4.1l2.1,7.5c0.2,0.6,0.6,1.2,1.2,1.5l16.4,9.1
			c0.6,0.3,1.3,0.4,1.9,0.2l7.5-2.1l7.3,4.1c1.2,0.7,2.7,0.2,3.4-1l3-5.5C65,60.6,64.1,55.9,62.6,53z M19.7,48.3l-3.8-2.1l1.8-3.3
			c2.9-5.2,6.2-6.1,8.4-6L19.7,48.3z M55.4,8.8c3.5-1.4,6.4-1.6,7.9-1.7c0.8,1.3,2.1,3.9,2.7,7.6c0.3,1.9,0.5,3.9,0.4,6l-16.3-9.1
			C51.8,10.5,53.6,9.5,55.4,8.8z M54.9,49.3l-8.6,15.5l-6.5,1.9l-14.6-8.1L23.3,52l8.6-15.5L38,25.6c2.4-4.2,5-7.8,8-10.6l19.8,11
			c-0.8,4-2.5,8.1-4.8,12.3L54.9,49.3z M55.2,68.1L51.3,66l6.4-11.4c0.2,0.3,0.4,0.6,0.6,1c1.2,2.5,0.8,5.6-1.3,9.3L55.2,68.1z" />
		</g>
	</g>
	<path id="XMLID_4378_" class="st1" d="M18.7,66.4c-0.6-0.3-1.4-0.4-2-0.2c-0.3,0.1-6.6,2.3-9.5,9.3c-2.6,6.2-1.8,14.1,2.6,23.3
	c0.2,0.5,0.6,0.9,1,1.1c0.4,0.2,1,0.4,1.5,0.3c10.1-1.2,17.2-4.5,21.1-10.1c4.4-6.2,2.9-12.7,2.9-13c-0.2-0.7-0.6-1.3-1.2-1.6
	L18.7,66.4z M29.3,87.3c-2.8,4-8.2,6.6-15.8,7.7c-3.1-7.1-3.7-13-1.8-17.5c1.5-3.6,4.2-5.4,5.6-6.2l4.9,2.7l-4.9,8.7
	c-0.7,1.2-0.2,2.7,1,3.4c1.2,0.7,2.7,0.2,3.4-1l4.9-8.7l4.9,2.7C31.6,80.9,31.5,84.2,29.3,87.3z"/>
	<path id="XMLID_4345_" class="st0" d="M44,42.4c4.2,2.3,9.6,0.8,11.9-3.4c2.3-4.2,0.8-9.6-3.4-11.9s-9.6-0.8-11.9,3.4
	C38.3,34.7,39.8,40,44,42.4z M50.1,31.4c1.8,1,2.5,3.3,1.5,5.1c-1,1.8-3.3,2.5-5.1,1.5S44,34.7,45,32.9C46,31.1,48.3,30.4,50.1,31.4
	z"/>
</svg>
