<svg width="210" height="35" xmlns="http://www.w3.org/2000/svg">
	<polygon id="svg_1" fill=" #ffffff" points="42.589996337890625,2 41.25,9.220000267028809 27.480003356933594,9.220000267028809 26.599998474121094,13.930000305175781 26.110000610351562,16.56999969482422 25.459999084472656,20.09000015258789 24.580001831054688,24.790000915527344 24.580001831054688,24.799999237060547 23.18000030517578,32.36000061035156 13.930000305175781,32.36000061035156 15.330001831054688,24.799999237060547 15.339996337890625,24.790000915527344 16.209999084472656,20.09000015258789 16.87000274658203,16.56999969482422 17.360000610351562,13.930000305175781 18.230003356933594,9.220000267028809 2.770000457763672,9.220000267028809 4.1100006103515625,2 42.589996337890625,2 "/>
	<path id="svg_2" fill=" #ffffff" d="m84,2l-1.34,7.22l-0.88,4.72l-0.49,2.64l-0.66,3.52l-0.87,4.7l0,0l0,0l-0.26,1.43a8.34,8.34 0 0 1 -8,6.1l-20.1,0l0,0a8.33,8.33 0 0 1 -7.84,-7.54a0,0 0 0 1 0,0q0,-0.38 0,-0.77a8.16,8.16 0 0 1 0.08,-1.15l0.15,-0.78l0.37,-2l0.66,-3.52l0.49,-2.64l0.88,-4.72l1.28,-7.21l9.39,0l-1.34,7.22l-0.88,4.72l-0.4,2.16l-0.09,0.48l-0.51,2.76l0,0c0,0.05 0,0.11 0,0.16l-0.11,0.6c-0.45,2.49 1.86,4.52 4.18,4.7c0.48,0 8.45,0 8.45,0l0.28,0l0.29,0a4.56,4.56 0 0 0 4,-3.59c0,-0.08 0,-0.17 0,-0.26l0,0l0.16,-0.85l0.65,-3.52l0.16,-0.87l0.33,-1.77l0.97,-4.72l1.3,-7.22l9.7,0z"/>
	<path id="svg_3" fill=" #ffffff" d="m123.51,9.22a7.28,7.28 0 0 0 -7.28,-7.22l-27.33,0l-1.34,7.22l-0.88,4.72l-0.49,2.64l-0.66,3.52l-0.87,4.7l0,0l-1.41,7.56l9.56,0l1.39,-8.06l0,0l13.8,0l0.28,0a2.36,2.36 0 0 1 2.08,2.34a1.9,1.9 0 0 1 0,0.2l0,0a2.16,2.16 0 0 1 -0.08,0.46l0,0l-0.83,5.06l9.9,0l1.38,-8.06l0,0l0,0c0,-0.09 0,-0.18 0,-0.28a4.42,4.42 0 0 0 -4.13,-4.41l0.07,0a7.28,7.28 0 0 0 5.19,-3.52a7.19,7.19 0 0 0 0.78,-1.91l0.14,-0.72l0,-0.13l0.53,-2.23l0.16,-0.88a7.16,7.16 0 0 0 0.06,-0.9s0,0 0,-0.07m-10.51,4a0.81,0.81 0 0 1 -0.07,0.35l0,0a3.67,3.67 0 0 1 -0.74,1.36a3.77,3.77 0 0 1 -2.87,1.15l-13.6,0l0.49,-2.64l0.9,-4.21l12.23,0a3.68,3.68 0 0 1 3.64,3.63c0,0.1 0,0.2 0,0.3"/>
	<path id="svg_4" fill=" #ffffff" d="m164.81,9.22a7.29,7.29 0 0 0 -7.28,-7.22l-27.7,0l-1.34,7.22l-0.88,4.72l-0.49,2.64l-0.66,3.52l-0.87,4.7l0,0l-1.41,7.56l30.46,0a7.07,7.07 0 0 0 7,-5.11c0.15,-0.61 0.71,-3.55 0.77,-4c0,-0.12 0.07,-0.64 0.07,-0.76a7.26,7.26 0 0 0 -2.24,-5.25a7.15,7.15 0 0 0 1.15,-0.63a7.29,7.29 0 0 0 3.05,-4.41l0.12,-0.62l0.14,-0.74l0,0l0.06,-0.36l0,0a7.24,7.24 0 0 0 0.09,-1.15l0,-0.11m-11.92,5.25s-1.46,0 -1.45,0l-14,0l1,-5.28l14.09,0a2.64,2.64 0 0 1 0.4,5.25m-2.15,10.26s-1.32,0.08 -1.31,0.09l-14,0l1,-5.28l13.95,-0.06a2.64,2.64 0 0 1 0.4,5.25"/>
	<path id="svg_5" fill=" #ffffff" d="m207,9.22a7.65,7.65 0 0 0 -7.65,-7.22l-21.89,0a7.65,7.65 0 0 0 -7.36,5.57l-0.25,1.35c0,0.1 0,0.2 0,0.29l0,0l-0.88,4.72l-0.49,2.64l-0.66,3.52s-0.78,4.19 -0.87,4.7c-0.74,4.09 3,7.57 6.86,7.57l23.62,0a7.66,7.66 0 0 0 6.47,-5.36l0.31,-1.64c0,-0.17 0,-0.35 0,-0.52a0,0 0 0 0 0,0l0.08,0l0.88,-4.7l0.65,-3.52l0.49,-2.64l0.48,-2.59l0.11,-0.57a7.81,7.81 0 0 0 0.1,-1.17c0,-0.14 0,-0.29 0,-0.43m-10.1,4.13a3.57,3.57 0 0 1 -0.08,0.43l0,0.15l-0.49,2.64l0,0.09l-0.09,0.46l-0.55,3l-0.29,1.59l0,0c0,0.08 0,0.16 0,0.24a3.68,3.68 0 0 1 -3.23,2.86l-0.36,0l-10.92,0l-0.36,0a3.68,3.68 0 0 1 -3.17,-4.7l0,0l0.44,-2.35l0.08,-0.45l0.13,-0.72l0.49,-2.64l0.28,-1.5a3.16,3.16 0 0 1 0.08,-0.43a3.68,3.68 0 0 1 3.57,-2.79l10.84,0a3.68,3.68 0 0 1 3.68,3.68a3.87,3.87 0 0 1 0,0.46"/>
</svg>