<svg width="165" height="35" xmlns="http://www.w3.org/2000/svg" viewBox="0 0 329.69 30.41">
  	<path d="M24.34,9.43,20.07,32.92h-9.5L14.83,9.43H1.76L3,2.51H38.67L37.41,9.43ZM69.78,2.51h9.5L75.35,24.16a9.88,9.88,0,0,1-3.82,6.61c-2,1.43-5,2.15-8.9,2.15H49c-3.92,0-6.63-.72-8.11-2.15s-2-3.64-1.42-6.61L43.42,2.51h9.5L49.51,21.33a8.3,8.3,0,0,0-.16,2.07,2.42,2.42,0,0,0,.52,1.44,2.75,2.75,0,0,0,1.46.87,10.37,10.37,0,0,0,2.73.29h6a11.78,11.78,0,0,0,2.81-.29,4.33,4.33,0,0,0,1.8-.87,3.84,3.84,0,0,0,1-1.44,10.5,10.5,0,0,0,.59-2.07Zm36.79,19.87,8.29,10.54H104.27L95.75,22.43H90l-1.9,10.49H78.56L84.09,2.51h24.74q5.88,0,8.11,2.15t1.42,6.6l-.43,2.36a10.28,10.28,0,0,1-3.4,6.4Q111.89,22.17,106.57,22.38ZM104.44,9.43H92.34l-1.1,6h12.1a8.79,8.79,0,0,0,3.89-.6,3.22,3.22,0,0,0,1.41-2.39,6.05,6.05,0,0,0,.12-1.6,1.18,1.18,0,0,0-.5-.92,3.13,3.13,0,0,0-1.39-.42A22.62,22.62,0,0,0,104.44,9.43Zm52.25,14.1-.19,1Q155.7,29,153,31t-8.57,2H119.13l5.52-30.41h25.28c3.89,0,6.5.65,7.85,2s1.75,3.44,1.22,6.37l-.19,1.05A7.76,7.76,0,0,1,157.43,15,14.67,14.67,0,0,1,155,17.66a6.84,6.84,0,0,1,1.52,2.62A6.38,6.38,0,0,1,156.69,23.53Zm-13.81-2.46h-12.1L129.89,26H142c.93,0,1.71,0,2.33-.08a5.1,5.1,0,0,0,1.52-.32,1.77,1.77,0,0,0,.88-.7,3.44,3.44,0,0,0,.44-1.21,4.62,4.62,0,0,0,.09-1.42,1,1,0,0,0-.5-.78,3.19,3.19,0,0,0-1.37-.34C144.76,21.09,143.93,21.07,142.88,21.07ZM145,9.43H132.9L132,14.15h12.1c.94,0,1.71,0,2.33-.06a4.9,4.9,0,0,0,1.51-.28,1.92,1.92,0,0,0,.88-.68,3.13,3.13,0,0,0,.43-1.18,5,5,0,0,0,.1-1.42,1,1,0,0,0-.51-.76,3.57,3.57,0,0,0-1.38-.29C146.87,9.45,146,9.43,145,9.43Zm54.59,1.83-2.34,12.9a9.92,9.92,0,0,1-3.82,6.61c-2,1.43-5,2.15-8.9,2.15H170.92q-5.88,0-8.12-2.15t-1.42-6.61l2.35-12.9a9.84,9.84,0,0,1,3.82-6.6q3-2.15,8.9-2.15h13.61q5.88,0,8.11,2.15T199.59,11.26ZM185,9.43H179a11.7,11.7,0,0,0-2.84.29,4.37,4.37,0,0,0-1.77.86,4,4,0,0,0-1.05,1.47,9.42,9.42,0,0,0-.59,2l-1.31,7.24a8.3,8.3,0,0,0-.16,2.07,2.42,2.42,0,0,0,.52,1.44,2.75,2.75,0,0,0,1.46.87A10.37,10.37,0,0,0,176,26h6a11.78,11.78,0,0,0,2.81-.29,4.33,4.33,0,0,0,1.8-.87,3.71,3.71,0,0,0,1-1.44,9.83,9.83,0,0,0,.6-2.07l1.31-7.24a8.89,8.89,0,0,0,.16-2,2.58,2.58,0,0,0-.52-1.47,2.86,2.86,0,0,0-1.49-.86A10.43,10.43,0,0,0,185,9.43Zm53.4,12-.5,2.78a9.92,9.92,0,0,1-3.82,6.61c-2,1.43-5,2.15-8.9,2.15H211.59q-5.88,0-8.12-2.15c-1.48-1.44-2-3.64-1.42-6.61l2.35-12.9a9.84,9.84,0,0,1,3.82-6.6c2-1.43,5-2.15,8.89-2.15h13.61c3.93,0,6.63.72,8.12,2.15s2,3.63,1.42,6.6L239.75,14h-9.5a9,9,0,0,0,.16-2,2.33,2.33,0,0,0-.53-1.44,2.92,2.92,0,0,0-1.49-.84,10.43,10.43,0,0,0-2.7-.29h-6.05a11.64,11.64,0,0,0-2.84.29,4.37,4.37,0,0,0-1.77.86A4,4,0,0,0,214,12.05a9.42,9.42,0,0,0-.59,2l-1.32,7.24a9.38,9.38,0,0,0-.16,2.07,2.49,2.49,0,0,0,.53,1.44,2.71,2.71,0,0,0,1.46.87,10.37,10.37,0,0,0,2.73.29h6.05a11.63,11.63,0,0,0,2.8-.29,4.43,4.43,0,0,0,1.8-.84,3.57,3.57,0,0,0,1-1.42,9.49,9.49,0,0,0,.6-2.07ZM256.05,2.51l9.57,16.3L281,2.51h9.4l-5.52,30.41h-9.51l2.91-16L263.81,31.76h-1.3l-9-14.83-2.9,16h-9.51l5.53-30.41ZM327,27.31a10.47,10.47,0,0,1-3.41,4.06,9,9,0,0,1-5.28,1.55H289.58L290.84,26h22.73c.69,0,1.07-.23,1.15-.69a.55.55,0,0,0-.16-.6,3,3,0,0,0-.43-.29l-17.68-8.8a4.53,4.53,0,0,1-2.31-2.76,8,8,0,0,1-.21-3.9,3.24,3.24,0,0,1,.21-.84,10.42,10.42,0,0,1,3.41-4.07,8.92,8.92,0,0,1,5.28-1.54h28.62L330.2,9.43H307.46a1.57,1.57,0,0,0-.8.21.75.75,0,0,0-.41.47v.05a1,1,0,0,0,.26.53,1.55,1.55,0,0,0,.4.31l17.73,8.86a5.12,5.12,0,0,1,2.1,2.26,6.5,6.5,0,0,1,.42,4.35A3.3,3.3,0,0,1,327,27.31Z" transform="translate(-1.76 -2.51)" fill="#ffffff"/>
</svg>
