<svg id="Group_10_copy" data-name="Group 10 copy" xmlns="http://www.w3.org/2000/svg" width="40" height="40" viewBox="0 0 40 40">
	<defs>
		<style>
			.cls-1,
			.cls-2 {
				fill: #307fdd;
				fill-rule: evenodd;
			}

			.cls-2 {
				opacity: 0.1;
			}
		</style>
	</defs>
	<path id="Ellipse_3_copy" data-name="Ellipse 3 copy" class="cls-1" d="M707,96h-1.1a5,5,0,0,1-9.8,0H683.9a5,5,0,0,1-9.8,0H673a3,3,0,0,1-3-3V80a3,3,0,0,1,3-3h26.974c1.657,0,2.884,1.325,4.044,2.609L710,85.989V93A3,3,0,0,1,707,96Zm-6,2a3,3,0,1,0-3-3A3,3,0,0,0,701,98Zm-22,0a3,3,0,1,0-3-3A3,3,0,0,0,679,98Zm29-11h-9a2,2,0,0,1-2-2V82a1,1,0,0,1,2,0v3h7.51l-4.646-4.9A3.29,3.29,0,0,0,699.81,79H673a1,1,0,0,0-1,1V93a1,1,0,0,0,1,1h1.1a5,5,0,0,1,9.8,0h12.2a5,5,0,0,1,9.8,0H707a1,1,0,0,0,1-1V87Zm-17,1h-5a1,1,0,0,1,0-2h5A1,1,0,0,1,691,88Zm0-3H679a1,1,0,0,1,0-2h12A1,1,0,0,1,691,85ZM680.076,69.593a1,1,0,0,1,1.322-.5l3.45,1.546a2.454,2.454,0,0,1,2.568-.458l2.872-2.913A1,1,0,0,1,691.7,68.68L688.825,71.6a2.463,2.463,0,0,1,.175.9,2.5,2.5,0,0,1-5,0c0-.017,0-0.033,0-0.05l-3.426-1.535A1,1,0,0,1,680.076,69.593ZM686.5,73a0.5,0.5,0,1,0-.5-0.5A0.5,0.5,0,0,0,686.5,73Zm10.188,2a10.5,10.5,0,1,0-20.376,0h-2.061a12.5,12.5,0,1,1,24.5,0h-2.061Z" transform="translate(-670 -60)" />
	<path class="cls-2" d="M701,99a4,4,0,1,1,4-4A4,4,0,0,1,701,99ZM679.13,75a9.5,9.5,0,1,1,18.74,0H679.13ZM683,95a4,4,0,1,1-4-4A4,4,0,0,1,683,95Z" transform="translate(-670 -60)" />
</svg>