<svg id="Group_11_copy" data-name="Group 11 copy" xmlns="http://www.w3.org/2000/svg" width="40" height="40" viewBox="0 0 40 40">
	<defs>
		<style>
			.cls-1,
			.cls-2 {
				fill: #307fdd;
				fill-rule: evenodd;
			}

			.cls-2 {
				opacity: 0.1;
			}
		</style>
	</defs>
	<path id="Rounded_Rectangle_10_copy" data-name="Rounded Rectangle 10 copy" class="cls-1" d="M1246,82V98a2,2,0,0,1-2,2h-32a2,2,0,0,1-2-2V82a2,2,0,0,1-2-2V73a2,2,0,0,1,2-2h5.82a6.492,6.492,0,0,1,4.68-11,8.494,8.494,0,0,1,7.5,4.5,8.494,8.494,0,0,1,7.5-4.5,6.492,6.492,0,0,1,4.68,11H1246a2,2,0,0,1,2,2v7A2,2,0,0,1,1246,82Zm-12,16h10V82h-10V98Zm-10,0h8V82h-5a1,1,0,0,1,0-2h5V73h-8V98Zm-14-18h9a1,1,0,0,1,0,2h-7V98h10V73h-12v7Zm17-11.5a6.5,6.5,0,0,0-6.5-6.5,4.5,4.5,0,0,0,0,9h6.5V68.5Zm13-2a4.5,4.5,0,0,0-4.5-4.5,6.5,6.5,0,0,0-6.5,6.5V71h6.5A4.5,4.5,0,0,0,1240,66.5Zm6,6.5h-12v7h12V73Z" transform="translate(-1208 -60)" />
	<path class="cls-2" d="M1244,80V98h-10V76h12v4h-2Zm-21,18h-8V80h-2V76h10V98Z" transform="translate(-1208 -60)" />
</svg>