<svg width="171" height="34" viewBox="0 0 171 34" fill="none" xmlns="http://www.w3.org/2000/svg">
	<path class="fill-dark-light" d="M45.89,14V11.45h12V14H53.38V26h-3V14ZM68.8,11.43h3.07v9.45A5,5,0,0,1,69,25.54a7.92,7.92,0,0,1-6.33,0A4.94,4.94,0,0,1,59.8,20.9V11.45h3.09v9.19a3,3,0,0,0,.36,1.47,2.67,2.67,0,0,0,1,1,3.47,3.47,0,0,0,3.11,0,2.67,2.67,0,0,0,1-1,3,3,0,0,0,.37-1.47ZM74.4,26V11.45h5.74A6.34,6.34,0,0,1,83,12a4.14,4.14,0,0,1,1.79,1.65,5,5,0,0,1,.61,2.51,4.82,4.82,0,0,1-.62,2.49,4,4,0,0,1-1.81,1.6,6.69,6.69,0,0,1-2.86.55H76.22V18.37h3.34A3.87,3.87,0,0,0,81,18.13a1.78,1.78,0,0,0,.87-.73,2.29,2.29,0,0,0,.28-1.2A2.38,2.38,0,0,0,81.9,15a1.84,1.84,0,0,0-.88-.75A3.53,3.53,0,0,0,79.55,14H77.48V26Zm7.85-6.62L85.87,26H82.48L79,19.38ZM87.53,26V11.45h5.82A6.65,6.65,0,0,1,96,12a3.7,3.7,0,0,1,1.61,1.32,3.57,3.57,0,0,1,.54,1.93,3.23,3.23,0,0,1-.34,1.5,3,3,0,0,1-.94,1.05,4,4,0,0,1-1.35.58v.14a3.19,3.19,0,0,1,1.56.47,3.34,3.34,0,0,1,1.18,1.21,3.69,3.69,0,0,1,.5,1.8A3.73,3.73,0,0,1,98.17,24a3.79,3.79,0,0,1-1.68,1.44,6.37,6.37,0,0,1-2.75.53Zm3.07-8.46h2.28A2.79,2.79,0,0,0,94,17.32a1.94,1.94,0,0,0,.78-.64,1.81,1.81,0,0,0-.27-2.27A2.33,2.33,0,0,0,93,14H90.6Zm0,5.94h2.51A2.91,2.91,0,0,0,95,23a1.63,1.63,0,0,0,.59-1.32,2.09,2.09,0,0,0-.29-1.06,2,2,0,0,0-.83-.73,2.92,2.92,0,0,0-1.27-.26H90.6Zm23.51-4.75a8.52,8.52,0,0,1-.9,4,6.24,6.24,0,0,1-2.44,2.55,7.31,7.31,0,0,1-7,0,6.24,6.24,0,0,1-2.44-2.55,8.4,8.4,0,0,1-.89-4,8.39,8.39,0,0,1,.89-4,6.24,6.24,0,0,1,2.44-2.55,7.31,7.31,0,0,1,7,0,6.24,6.24,0,0,1,2.44,2.55,8.37,8.37,0,0,1,.9,4.08Zm-3.12,0a6.44,6.44,0,0,0-.46-2.6,3.57,3.57,0,0,0-4.69-1.87h0a4.59,4.59,0,0,0-.49.26,3.57,3.57,0,0,0-1.29,1.61,6.61,6.61,0,0,0-.46,2.6,6.53,6.53,0,0,0,.46,2.59A3.57,3.57,0,0,0,105.35,23a3.49,3.49,0,0,0,4.83-.94,3.28,3.28,0,0,0,.35-.67,6.38,6.38,0,0,0,.46-2.63Zm13.28-3.09a1.8,1.8,0,0,0-.73-1.34,2.94,2.94,0,0,0-1.75-.48,3.48,3.48,0,0,0-1.28.21,1.89,1.89,0,0,0-.79.58,1.4,1.4,0,0,0-.27.84,1.23,1.23,0,0,0,.17.68,1.33,1.33,0,0,0,.5.5,3.94,3.94,0,0,0,.74.37,9.07,9.07,0,0,0,.89.26l1.31.31a8.86,8.86,0,0,1,1.74.57,5.36,5.36,0,0,1,1.38.87,3.9,3.9,0,0,1,.91,1.22,4.07,4.07,0,0,1,.33,1.61,4,4,0,0,1-.68,2.31,4.31,4.31,0,0,1-1.93,1.52,8.89,8.89,0,0,1-6.06,0,4.36,4.36,0,0,1-2-1.6,4.73,4.73,0,0,1-.77-2.63h3a2.14,2.14,0,0,0,.42,1.22,2.34,2.34,0,0,0,1,.73,4.1,4.1,0,0,0,1.43.25,3.74,3.74,0,0,0,1.36-.23,1.94,1.94,0,0,0,.89-.63,1.42,1.42,0,0,0,.32-.93A1.27,1.27,0,0,0,124,21a2.41,2.41,0,0,0-.84-.57A10.55,10.55,0,0,0,121.8,20l-1.58-.4a6.63,6.63,0,0,1-2.91-1.4,3.2,3.2,0,0,1-1-2.56,3.82,3.82,0,0,1,.7-2.31,4.61,4.61,0,0,1,2-1.54,7.09,7.09,0,0,1,2.84-.56,6.72,6.72,0,0,1,2.83.56,4.42,4.42,0,0,1,1.88,1.54,4.17,4.17,0,0,1,.7,2.29ZM129.48,26V11.45h3.07v6h6.24v-6h3.07V26h-3.07V20h-6.24v6Zm28.29-7.27a8.29,8.29,0,0,1-.9,4,6.33,6.33,0,0,1-2.45,2.55,7.31,7.31,0,0,1-7,0A6.22,6.22,0,0,1,145,22.7a8.52,8.52,0,0,1-.9-4,8.51,8.51,0,0,1,.9-4,6.22,6.22,0,0,1,2.43-2.55,7.31,7.31,0,0,1,7,0,6.39,6.39,0,0,1,2.45,2.55,8.37,8.37,0,0,1,.9,4.08Zm-3.12,0a6.61,6.61,0,0,0-.46-2.6,3.57,3.57,0,0,0-1.29-1.61,3.49,3.49,0,0,0-4.83.94,3.56,3.56,0,0,0-.35.67,6.44,6.44,0,0,0-.46,2.6,6.36,6.36,0,0,0,.46,2.59,3.57,3.57,0,0,0,4.66,1.95h0a5.12,5.12,0,0,0,.52-.27,3.57,3.57,0,0,0,1.29-1.61,6.55,6.55,0,0,0,.46-2.63ZM160,26V11.45h5.74a5.86,5.86,0,0,1,2.82.63,4.39,4.39,0,0,1,1.78,1.74,5.43,5.43,0,0,1,.61,2.56,5.18,5.18,0,0,1-.62,2.56,4.29,4.29,0,0,1-1.81,1.72,6,6,0,0,1-2.86.62H162V18.82h3.16a3.24,3.24,0,0,0,1.47-.31,2,2,0,0,0,.86-.86,2.9,2.9,0,0,0,0-2.54,2,2,0,0,0-.87-.84,3.11,3.11,0,0,0-1.47-.3h-2.08V26Z" fill="#222222" />
	<path class="fill-theme-svg" d="M27.88,34H8.58a3.78,3.78,0,0,1-3.77-4L6.13,8A1.29,1.29,0,0,1,7.42,6.83H29A1.28,1.28,0,0,1,30.33,8l1.33,22a3.78,3.78,0,0,1-3.78,4ZM8.64,9.41,7.39,30.14a1.18,1.18,0,0,0,1.19,1.27h19.3a1.18,1.18,0,0,0,1.19-1.27L27.82,9.41ZM25.28,7.05H22.69a4.46,4.46,0,0,0-8.92,0H11.18a7.05,7.05,0,0,1,14.1,0ZM15.61,28.72a1.29,1.29,0,0,1-.43-2.51c11.26-3.93,17.25-7.9,18.21-10.08a.83.83,0,0,0,.09-.37c-.17-.15-.89-.51-4-.41a1.29,1.29,0,0,1-.08-2.58c2.69-.1,5.63,0,6.48,1.93a3,3,0,0,1-.08,2.47C34.28,20.56,26.9,24.85,16,28.65A1.29,1.29,0,0,1,15.61,28.72ZM3.43,26.3C1.9,26.3.68,25.88.18,24.7c-1-2.39,2.66-5.18,6-7.1a1.29,1.29,0,1,1,1.3,2.23C4.63,21.47,3.05,23,2.67,23.64c.78.19,4.2.33,16.87-4.87a1.29,1.29,0,1,1,1,2.39A110.31,110.31,0,0,1,8.6,25.4,21.06,21.06,0,0,1,3.43,26.3Z" fill="#5B7FFF" />
</svg>