<svg id="Group_8_copy_2" data-name="Group 8 copy 2" xmlns="http://www.w3.org/2000/svg" width="40" height="40" viewBox="0 0 40 40">
	<defs>
		<style>
			.cls-1,
			.cls-2 {
				fill: #307fdd;
				fill-rule: evenodd;
			}

			.cls-2 {
				opacity: 0.1;
			}
		</style>
	</defs>
	<path id="Ellipse_1_copy" data-name="Ellipse 1 copy" class="cls-1" d="M439,92v5a3,3,0,0,1-3,3H405a4,4,0,0,1-4-4V72h0.05a3.491,3.491,0,0,1,3.45-3h1.087a8,8,0,0,0,1.173,2H404.5a1.5,1.5,0,0,0,0,3h15.733a5.5,5.5,0,1,1,10.534,0H435V72a1,1,0,0,0-1-1h-1.151a7.423,7.423,0,0,0-.718-2H434a3,3,0,0,1,3,3v2.184A2.991,2.991,0,0,1,439,77v5a2,2,0,0,1,2,2v6A2,2,0,0,1,439,92ZM429,72.5a3.5,3.5,0,0,0-7,0,3.464,3.464,0,0,0,.35,1.5h6.3A3.464,3.464,0,0,0,429,72.5Zm8,4.5a1,1,0,0,0-1-1H403V96a2,2,0,0,0,2,2h31a1,1,0,0,0,1-1V92h-8.5a4.5,4.5,0,0,1-4.5-4.5v-1a4.5,4.5,0,0,1,4.5-4.5H437V77Zm2,7H428.5a2.5,2.5,0,0,0-2.5,2.5v1a2.5,2.5,0,0,0,2.5,2.5H439V84Zm-11.672,3A1.672,1.672,0,1,1,429,88.672,1.672,1.672,0,0,1,427.328,87ZM407,95a1,1,0,0,1-1-1V80a1,1,0,0,1,2,0V94A1,1,0,0,1,407,95Zm6-23a6,6,0,1,1,6-6A6,6,0,0,1,413,72Zm0-10a4,4,0,1,0,4,4A4,4,0,0,0,413,62Z" transform="translate(-401 -60)" />
	<path class="cls-2" d="M429,83a4,4,0,0,0,0,8h9v8H413V81a2,2,0,0,1,2-2h23v4h-9Zm-7.24-8a4.5,4.5,0,1,1,7.48,0h-7.48ZM413,71a5,5,0,1,1,5-5A5,5,0,0,1,413,71Z" transform="translate(-401 -60)" />
</svg>