<svg xmlns="http://www.w3.org/2000/svg" width="30" height="26" viewBox="0 0 30 26">
  <defs>
    <style>
      .cls-1 {
        fill: #333;
        fill-rule: evenodd;
      }
    </style>
  </defs>
  <path id="Rounded_Rectangle_1069_copy" data-name="Rounded Rectangle 1069 copy" class="cls-1" d="M47,872H36v3h5a1,1,0,1,1,0,2H29a1,1,0,0,1,0-2h5v-3H23a3,3,0,0,1-3-3V854a3,3,0,0,1,3-3H47a3,3,0,0,1,3,3v15A3,3,0,0,1,47,872Zm1-18a1,1,0,0,0-1-1H23a1,1,0,0,0-1,1v15a1,1,0,0,0,1,1H47a1,1,0,0,0,1-1V854Z" transform="translate(-20 -851)"/>
</svg>
