<svg xmlns="http://www.w3.org/2000/svg" width="16" height="26" viewBox="0 0 16 26">
  <defs>
    <style>
      .cls-1 {
        fill: #333;
        fill-rule: evenodd;
      }
    </style>
  </defs>
  <path id="Rounded_Rectangle_1073" data-name="Rounded Rectangle 1073" class="cls-1" d="M124,877h-8a4,4,0,0,1-4-4V855a4,4,0,0,1,4-4h8a4,4,0,0,1,4,4v18A4,4,0,0,1,124,877Zm2-22a2,2,0,0,0-2-2h0a1,1,0,0,1-1,1h-6a1,1,0,0,1-1-1h0a2,2,0,0,0-2,2v18a2,2,0,0,0,2,2h8a2,2,0,0,0,2-2V855Z" transform="translate(-112 -851)"/>
</svg>
