<svg width="40" height="40" viewBox="0 0 40 40" fill="none" xmlns="http://www.w3.org/2000/svg">
	<path d="M1 29C1 28.4477 1.44772 28 2 28H6C6.55228 28 7 28.4477 7 29V33C7 33.5523 6.55228 34 6 34H2C1.44772 34 1 33.5523 1 33V29Z" fill="#1D7CE6" fill-opacity="0.1"></path>
	<path d="M21 27C21 25.3431 22.3431 24 24 24H36C37.6569 24 39 25.3431 39 27V29C39 29.5523 38.5523 30 38 30H22C21.4477 30 21 29.5523 21 29V27Z" fill="#1D7CE6" fill-opacity="0.1"></path>
	<path d="M21 31C21 30.4477 21.4477 30 22 30H38C38.5523 30 39 30.4477 39 31V36C39 37.6569 37.6569 39 36 39H24C22.3431 39 21 37.6569 21 36V31Z" fill="#1D7CE6" fill-opacity="0.1"></path>
	<path d="M2 12C2 6.47715 6.47715 2 12 2C14.3088 2 16.4348 2.78242 18.1274 4.09656C18.6637 3.58703 19.2751 3.22103 19.9019 2.96869C17.7909 1.12025 15.0263 0 12 0C5.37258 0 0 5.37258 0 12C0 18.6274 5.37258 24 12 24C15.8655 24 19.3041 22.1723 21.4988 19.334C21.3358 19.1284 21.1659 18.9052 21 18.6727C20.8328 18.4384 20.6616 18.222 20.4944 18.0107C20.4058 17.8988 20.3184 17.7883 20.2333 17.6773C18.429 20.2888 15.4143 22 12 22C6.47715 22 2 17.5228 2 12Z" fill="#1D7CE6"></path>
	<path fill-rule="evenodd" clip-rule="evenodd" d="M13.1807 6.53379C13.3922 6.61575 13.522 6.82979 13.4969 7.05522L13.0586 11H15C15.1881 11 15.3602 11.1055 15.4456 11.2731C15.5309 11.4407 15.515 11.642 15.4044 11.7941L11.4044 17.2941C11.271 17.4775 11.0308 17.5482 10.8193 17.4662C10.6078 17.3843 10.478 17.1702 10.5031 16.9448L10.9414 13H9C8.81194 13 8.63978 12.8945 8.55444 12.7269C8.4691 12.5593 8.48502 12.358 8.59563 12.2059L12.5956 6.70591C12.729 6.52248 12.9692 6.45183 13.1807 6.53379Z" fill="#1D7CE6"></path>
	<path fill-rule="evenodd" clip-rule="evenodd" d="M0 29C0 27.8954 0.89543 27 2 27H6C7.10457 27 8 27.8954 8 29V33C8 34.1046 7.10457 35 6 35H2C0.895431 35 0 34.1046 0 33V29ZM6 29H2V33H6V29Z" fill="#1D7CE6"></path>
	<path fill-rule="evenodd" clip-rule="evenodd" d="M2 24H6V29H2V24Z" fill="#1D7CE6"></path>
	<path d="M11 23H13V40H11V23Z" fill="#1D7CE6"></path>
	<path d="M3 34H5V40H3V34Z" fill="#1D7CE6"></path>
	<path fill-rule="evenodd" clip-rule="evenodd" d="M24.1303 5.01212C24.4228 5.01846 24.7097 5.02469 25 5.02469C25.7074 5.02469 26.3715 5.08835 26.9476 5.31028C27.5655 5.54826 28.0423 5.95285 28.3684 6.53758C28.6725 7.08276 28.8184 7.73644 28.8981 8.44397C28.9787 9.15954 29 10.0194 29 11.0247V18.0247C29 19.1293 28.1046 20.0247 27 20.0247H26C24.8968 20.0247 24 19.1316 24 18.0257V12.8091C23.6679 12.9745 23.3474 13.1063 23.0387 13.2021C22.2626 13.4431 21.4688 13.4832 20.7587 13.1462C20.0406 12.8054 19.601 12.171 19.3481 11.468C19.0984 10.774 19 9.93778 19 9.02469C19 8.05181 19.1608 7.22875 19.5457 6.57308C19.9483 5.88744 20.5363 5.48551 21.1828 5.2655C21.7957 5.05692 22.4668 5.0095 23.0861 5.00134C23.4023 4.99717 23.7277 5.00346 24.0448 5.01027C24.0733 5.01088 24.1018 5.0115 24.1303 5.01212ZM21.2705 7.58568C21.1325 7.82064 21 8.24758 21 9.02469C21 9.81908 21.0891 10.3991 21.23 10.7909C21.3677 11.1737 21.5219 11.2946 21.6163 11.3394C21.7187 11.388 21.9562 11.4441 22.4457 11.2921C22.9372 11.1395 23.5889 10.8037 24.4188 10.211C24.7236 9.99323 25.1245 9.96412 25.4576 10.1355C25.7907 10.3069 26 10.6501 26 11.0247V18.0247H27V11.0247C27 10.03 26.9779 9.26485 26.9107 8.66791C26.8425 8.06294 26.736 7.71662 26.6217 7.5118C26.5295 7.34653 26.4222 7.25112 26.2287 7.1766C25.9936 7.08603 25.6194 7.02469 25 7.02469C24.6868 7.02469 24.3782 7.01798 24.089 7.0117C24.0597 7.01106 24.0307 7.01043 24.0018 7.00981C23.6827 7.00295 23.3895 6.99752 23.1125 7.00117C22.5455 7.00863 22.1325 7.05497 21.8271 7.15888C21.5553 7.25137 21.3908 7.38069 21.2705 7.58568ZM26 18.0247C25.9997 18.0241 25.9995 18.0242 26 18.0247C26.0005 18.0251 26.0002 18.0248 26 18.0247V18.0257C26 18.027 26.0001 18.0263 26 18.0257V18.0247Z" fill="#1D7CE6"></path>
	<path fill-rule="evenodd" clip-rule="evenodd" d="M34.8698 0.0121216C34.5772 0.0184664 34.2903 0.0246913 34 0.0246913C33.2926 0.0246913 32.6285 0.0883482 32.0524 0.310279C31.4345 0.548258 30.9577 0.952852 30.6316 1.53758C30.3275 2.08276 30.1816 2.73644 30.1019 3.44397C30.0213 4.15954 30 5.01944 30 6.02469V13.0247C30 14.1293 30.8954 15.0247 32 15.0247H33C34.1032 15.0247 35 14.1316 35 13.0257V7.8091C35.3321 7.97455 35.6526 8.10629 35.9613 8.20213C36.7374 8.44311 37.5312 8.48323 38.2413 8.14621C38.9594 7.80536 39.399 7.17095 39.6519 6.46796C39.9016 5.77396 40 4.93778 40 4.02469C40 3.0518 39.8392 2.22874 39.4543 1.57308C39.0517 0.887439 38.4637 0.485511 37.8172 0.265505C37.2043 0.0569165 36.5332 0.00949788 35.9139 0.00134057C35.5977 -0.00282323 35.2723 0.00345999 34.9552 0.0102738C34.9267 0.0108871 34.8982 0.0115049 34.8698 0.0121216ZM37.7295 2.58568C37.8675 2.82064 38 3.24758 38 4.02469C38 4.81908 37.9109 5.39914 37.77 5.79092C37.6323 6.1737 37.4781 6.29461 37.3837 6.33939C37.2813 6.388 37.0438 6.44407 36.5543 6.29208C36.0628 6.13948 35.4111 5.80373 34.5812 5.21096C34.2764 4.99323 33.8755 4.96412 33.5424 5.13552C33.2094 5.30693 33 5.6501 33 6.02469V13.0247H32V6.02469C32 5.02995 32.0221 4.26485 32.0893 3.66791C32.1575 3.06294 32.264 2.71662 32.3783 2.5118C32.4705 2.34653 32.5778 2.25112 32.7713 2.1766C33.0064 2.08603 33.3806 2.02469 34 2.02469C34.3132 2.02469 34.6218 2.01798 34.911 2.0117C34.9403 2.01106 34.9693 2.01043 34.9982 2.00981C35.3173 2.00295 35.6105 1.99752 35.8875 2.00117C36.4545 2.00864 36.8675 2.05497 37.1729 2.15888C37.4447 2.25137 37.6092 2.38069 37.7295 2.58568ZM33 13.0247C33.0003 13.0241 33.0005 13.0242 33 13.0247C32.9995 13.0251 32.9998 13.0248 33 13.0247V13.0257C33 13.027 32.9999 13.0263 33 13.0257V13.0247Z" fill="#1D7CE6"></path>
	<path fill-rule="evenodd" clip-rule="evenodd" d="M20 27C20 24.7909 21.7909 23 24 23H36C38.2091 23 40 24.7909 40 27V29C40 30.1046 39.1046 31 38 31H22C20.8954 31 20 30.1046 20 29V27ZM24 25C22.8954 25 22 25.8954 22 27V29H38V27C38 25.8954 37.1046 25 36 25H24Z" fill="#1D7CE6"></path>
	<path fill-rule="evenodd" clip-rule="evenodd" d="M20 31C20 29.8954 20.8954 29 22 29H38C39.1046 29 40 29.8954 40 31V36C40 38.2091 38.2091 40 36 40H24C21.7909 40 20 38.2091 20 36V31ZM38 31H22V36C22 37.1046 22.8954 38 24 38H36C37.1046 38 38 37.1046 38 36V31Z" fill="#1D7CE6"></path>
</svg>