<svg id="Group_5_copy_3" data-name="Group 5 copy 3" xmlns="http://www.w3.org/2000/svg" width="40.06" height="40" viewBox="0 0 40.06 40">
	<defs>
		<style>
			.cls-1,
			.cls-2 {
				fill: #347fda;
				fill-rule: evenodd;
			}

			.cls-2 {
				opacity: 0.1;
			}
		</style>
	</defs>
	<path id="Rounded_Rectangle_33" data-name="Rounded Rectangle 33" class="cls-1" d="M1289,376h-2a1.9,1.9,0,0,1-.78-0.186l-0.06.341,4.78,12.372a1.024,1.024,0,0,1,.06.784v0.526a29.052,29.052,0,0,1-22,0V389h0.02a0.962,0.962,0,0,1,.1-0.466l4.73-12.268-0.07-.447a1.94,1.94,0,0,1-.78.181h-2a2,2,0,0,1-2-2v-5a6,6,0,0,1,6-6h10a6,6,0,0,1,6,6v5A2,2,0,0,1,1289,376Zm-9,14c0.33,0,.64-0.022.96-0.031l-0.96-4.345-0.96,4.345C1279.36,389.978,1279.67,390,1280,390Zm-8.94-1h1.24a27.522,27.522,0,0,0,4.7.841s-0.01-.01,0-0.014l1.99-9.039a1,1,0,0,1,.82-0.793c0.01,0,.01,0,0.02,0a7.226,7.226,0,0,0,.34,0c0.01,0,.01,0,0.02,0a1,1,0,0,1,.82.793l1.99,9.039c0.01,0,0,.009,0,0.014a27.522,27.522,0,0,0,4.7-.841h1.3l-4.27-11.034A0.991,0.991,0,0,1,1284,377h-8a0.983,0.983,0,0,1-.67.943Zm6.72-24a2.964,2.964,0,0,0,4.44,0h-4.44Zm11.22,4a4,4,0,0,0-4-4h-0.42a5,5,0,0,1-9.16,0H1275a4,4,0,0,0-4,4v5h2v-2h0.13l-0.14-.836a1,1,0,0,1,.82-1.162,1.014,1.014,0,0,1,1.17.826l0.72,4.233A0.822,0.822,0,0,1,1276,375h8.31l0.71-4.172a1.014,1.014,0,0,1,1.17-.826,1,1,0,0,1,.82,1.162l-0.14.836H1287v2h2v-2h0v-3Zm-26-4a1,1,0,1,1,1-1A1,1,0,0,1,1263,365Zm0,3a1,1,0,1,1,1-1A1,1,0,0,1,1263,368.005Zm9.38-10.977c-1.21,2.043-3.91,3.687-5.38,4.471V369a1,1,0,0,1-2,0v-7.5c-1.47-.782-4.16-2.423-5.38-4.461A6.984,6.984,0,0,0,1253,364v6h3v-5a1,1,0,0,1,2,0v21h8a1,1,0,0,1,0,2h-8v2h8a1,1,0,0,1,0,2h-8a2,2,0,0,1-2-2V376h-3a2,2,0,0,1-2-2V364a9,9,0,0,1,8.01-8.942c0-.02-0.01-0.039-0.01-0.058a3,3,0,0,1,3-3h8a3,3,0,0,1,3,3c0,0.027-.01.052-0.01,0.079a8.988,8.988,0,0,1,7.49,5.921h-2.16A6.984,6.984,0,0,0,1272.38,357.028ZM1253,374h3v-2h-3v2Zm17-20h-8a1,1,0,0,0-1,1c0,2.4,5,4.8,5,4.8s5-2.279,5-4.8A1,1,0,0,0,1270,354Z" transform="translate(-1251 -352)"></path>
	<path class="cls-2" d="M1289,375h-3l-1,1h-9l-2-1-3-1-1-1v-6l1-1,1-1,1-1h3l1,1,1,1,2,1h1l1-1,2-1,1-1,3,1,1,1,1,1v7Zm-23-15c-3.31,0-6-3.134-6-7h12C1272,356.866,1269.31,360,1266,360Zm-14,11h6v4h-6v-4Zm15,19h-10v-3h10v3Zm15,1h-4l2-10Z" transform="translate(-1251 -352)"></path>
</svg>