<svg xmlns="http://www.w3.org/2000/svg" width="40" height="40.01" viewBox="0 0 40 40.01">
	<defs>
		<style>
			.cls-1,
			.cls-2 {
				fill: #347fda;
				fill-rule: evenodd;
			}

			.cls-2 {
				opacity: 0.1;
			}
		</style>
	</defs>
	<path class="cls-1" d="M8.77,2.51A6.28,6.28,0,0,1,15,7.73a1.25,1.25,0,0,0,1.44,1,1.26,1.26,0,0,0,1-1.44A8.77,8.77,0,1,0,7.31,17.43,1.25,1.25,0,0,0,7.73,15a6.27,6.27,0,0,1,1-12.45Zm22.45,0A6.26,6.26,0,0,1,32.27,15a1.25,1.25,0,0,0,.42,2.47A8.77,8.77,0,1,0,22.57,7.32a1.24,1.24,0,0,0,1,1.44,1.26,1.26,0,0,0,1.45-1A6.27,6.27,0,0,1,31.22,2.51ZM2.51,31.23a6.26,6.26,0,0,1,5.21-6.18,1.26,1.26,0,0,0,1-1.44,1.25,1.25,0,0,0-1.44-1,8.77,8.77,0,1,0,10.11,10.1,1.24,1.24,0,0,0-1-1.44,1.26,1.26,0,0,0-1.44,1A6.27,6.27,0,0,1,2.51,31.22Zm28.71,6.26A6.28,6.28,0,0,1,25,32.27a1.25,1.25,0,1,0-2.46.42A8.77,8.77,0,1,0,32.69,22.58a1.23,1.23,0,0,0-1.44,1,1.25,1.25,0,0,0,1,1.44,6.26,6.26,0,0,1-1.05,12.44ZM8.77,33.83a2.5,2.5,0,0,0,2.51-2.5,2.32,2.32,0,0,0-.09-.65l3.11-3.11H25.79l3.11,3.11a2.69,2.69,0,0,0-.08.65,2.51,2.51,0,1,0,2.5-2.51,2.37,2.37,0,0,0-.65.09L27.56,25.8V14.3l3.11-3.11a2.37,2.37,0,0,0,.65.09,2.51,2.51,0,1,0-2.5-2.51,2.75,2.75,0,0,0,.08.65l-3.11,3.11H14.3L11.19,9.42a2.27,2.27,0,0,0,.09-.65,2.51,2.51,0,1,0-2.51,2.51,2.32,2.32,0,0,0,.65-.09l3.11,3.11V25.8L9.42,28.91a2.27,2.27,0,0,0-.65-.09,2.51,2.51,0,1,0,0,5ZM15,25.06V15h10v10Z" transform="translate(0 0)"></path>
	<path class="cls-2" d="M25.4,25.28H14.77V14.66H25.4Z" transform="translate(0 0)"></path>
</svg>