<svg id="Group_231_copy" data-name="Group 231 copy" xmlns="http://www.w3.org/2000/svg" width="40" height="40" viewBox="0 0 40 40">
	<defs>
		<style>
			.cls-1,
			.cls-2 {
				fill: #1d7ce6;
				fill-rule: evenodd;
			}

			.cls-2 {
				opacity: 0.1;
			}
		</style>
	</defs>
	<path id="Rounded_Rectangle_1029_copy_2" data-name="Rounded Rectangle 1029 copy 2" class="cls-1" d="M706,3367H690a4,4,0,0,1-4-4v-32a4,4,0,0,1,4-4h16a4,4,0,0,1,4,4v32A4,4,0,0,1,706,3367Zm2-36a2,2,0,0,0-2-2h-3.1a1.465,1.465,0,0,1-1.4,2h-7a1.5,1.5,0,0,1-1.5-1.5,1.461,1.461,0,0,1,.1-0.5H690a2,2,0,0,0-2,2v32a2,2,0,0,0,2,2h16a2,2,0,0,0,2-2v-32Zm-14.309,28.7a1,1,0,0,1-1.414-1.42l10.021-10.01a1,1,0,0,1,1.414,1.41Zm0-6a1,1,0,0,1-1.414-1.42l10.021-10.01a1,1,0,0,1,1.414,1.41Zm0-6a1,1,0,0,1-1.414-1.42l10.021-10.01a1,1,0,0,1,1.414,1.42ZM674,3339v-5a3,3,0,0,1,6,0v5A3,3,0,0,1,674,3339Zm4,0v-5a1,1,0,0,0-2,0v5A1,1,0,0,0,678,3339Zm-4-10a2,2,0,0,0-2,2v32a2,2,0,0,0,2,2h9.1a5.917,5.917,0,0,0,.731,2H674a4,4,0,0,1-4-4v-32a4,4,0,0,1,4-4h9.832a5.917,5.917,0,0,0-.731,2H674Z" transform="translate(-670 -3327)"></path>
	<path id="Rounded_Rectangle_1069" data-name="Rounded Rectangle 1069" class="cls-2" d="M706,3366H690a3,3,0,0,1-3-3v-32a3,3,0,0,1,3-3h16a3,3,0,0,1,3,3v32A3,3,0,0,1,706,3366Zm-28-25h-2a1,1,0,0,1-1-1v-7a1,1,0,0,1,1-1h2a1,1,0,0,1,1,1v7A1,1,0,0,1,678,3341Z" transform="translate(-670 -3327)"></path>
</svg>