<svg xmlns="http://www.w3.org/2000/svg" width="35" height="40" viewBox="0 0 35 40">
	<defs>
		<style>
			.cls-1,
			.cls-2 {
				fill: #347fda;
				fill-rule: evenodd;
			}

			.cls-2 {
				opacity: 0.1;
			}
		</style>
	</defs>
	<path class="cls-1" d="M32.5,2.5A2.5,2.5,0,0,1,35,5V35a2.5,2.5,0,0,1-2.5,2.5H7.5A2.5,2.5,0,0,1,5,35V5A2.5,2.5,0,0,1,7.5,2.5Zm5,2.5a5,5,0,0,0-5-5H7.5a5,5,0,0,0-5,5V35a5,5,0,0,0,5,5h25a5,5,0,0,0,5-5Zm-15,26.25h-5a1.25,1.25,0,0,0,0,2.5h5a1.25,1.25,0,0,0,0-2.5Z" transform="translate(-2.5)"></path>
	<path class="cls-2" d="M35.23,37.5H4.77V2.5H35.23Z" transform="translate(-2.5)"></path>
</svg>