<svg id="Group_228_copy" data-name="Group 228 copy" xmlns="http://www.w3.org/2000/svg" width="40" height="40" viewBox="0 0 40 40">
	<defs>
		<style>
			.cls-1,
			.cls-2 {
				fill: #1d7ce6;
				fill-rule: evenodd;
			}

			.cls-2 {
				opacity: 0.1;
			}
		</style>
	</defs>
	<path id="Rounded_Rectangle_1090_copy" data-name="Rounded Rectangle 1090 copy" class="cls-1" d="M1236,2248h-2a11.861,11.861,0,0,1-3-.39,12.331,12.331,0,0,1-3,.39h-2a11.96,11.96,0,0,1-10.27-5.84,11.018,11.018,0,0,1-3.11-2.16h0.3c-2.89-1.96-4.92-6.59-4.92-12s2.03-10.04,4.92-12h-0.3a11.018,11.018,0,0,1,3.11-2.16A11.96,11.96,0,0,1,1226,2208h2a12.331,12.331,0,0,1,3,.39,11.861,11.861,0,0,1,3-.39h2a12,12,0,0,1,12,12v16A12,12,0,0,1,1236,2248Zm2-17v-11a9.949,9.949,0,0,0-1.09-4.55,10.121,10.121,0,0,0-1.81-2.49,5.3,5.3,0,0,0-9.75,2.04h-0.13c3.45,2.59,5.78,7.44,5.78,13s-2.33,10.41-5.78,13h0.13a7.079,7.079,0,0,0,12.65-5v-5Zm-20.4-15.74c3.65,1.21,6.4,6.45,6.4,12.74s-2.75,11.53-6.4,12.74a7.139,7.139,0,0,0,1.9.26c5.25,0,9.5-5.82,9.5-13s-4.25-13-9.5-13A7.139,7.139,0,0,0,1217.6,2215.26ZM1226,2246h1.44a12.179,12.179,0,0,1-3.8-4.02,9.147,9.147,0,0,1-4.14,1.02c-0.22,0-.43-0.02-0.65-0.04A9.919,9.919,0,0,0,1226,2246Zm-16-18c0,6.08,2.69,11,6,11s6-4.92,6-11-2.69-11-6-11S1210,2221.92,1210,2228Zm16-18a9.919,9.919,0,0,0-7.15,3.04c0.22-.02.43-0.04,0.65-0.04a9.147,9.147,0,0,1,4.14,1.02,12.179,12.179,0,0,1,3.8-4.02H1226Zm20,10a10,10,0,0,0-10-10h-1.37a11.939,11.939,0,0,1,5.37,10v2.02a4.922,4.922,0,0,1,6,0V2220Zm0,11h0v-5a3,3,0,0,0-6,0v10a12.032,12.032,0,0,1-5.37,10H1236a10,10,0,0,0,10-10v-5Zm-4,1a1,1,0,1,1,1,1A1,1,0,0,1,1242,2232Zm1-3a1,1,0,1,1,1-1A1,1,0,0,1,1243,2229Zm-26-9a1,1,0,0,1-1,1c-1.1,0-2,3.13-2,7s0.9,7,2,7,2-3.13,2-7a1,1,0,0,1,2,0c0,4.97-1.79,9-4,9s-4-4.03-4-9c0-4.65,1.58-8.44,3.59-8.91a1.115,1.115,0,0,1,.41-0.09A1,1,0,0,1,1217,2220Z" transform="translate(-1208 -2208)"></path>
	<path class="cls-2" d="M1214,2216l4-2,4,1,3,1,4,5,1,10-3,6-4,4-4,1-3-1-2-1h4l2-2,2-4,1-5v-4l-1-3-1-3-2-2-2-1h-3Zm19-7h4l4,1,4,3,2,4v21l-1,3-1,1-2,2-2,2-2,1h-6v-1l3-2,2-3,1-3v-3s0.01-13.5,0-14,0-3,0-3l-1-3-2-2-1-2-2-1v-1Z" transform="translate(-1208 -2208)"></path>
</svg>