<svg xmlns="http://www.w3.org/2000/svg" width="37" height="14" viewBox="0 0 37 14">
  <defs>
    <style>
      .cls-1 {
        fill: #e61d1d;
      }

      .cls-1, .cls-2 {
        fill-rule: evenodd;
      }

      .cls-2 {
        fill: #59b615;
      }
    </style>
  </defs>
  <path id="Rounded_Rectangle_943" data-name="Rounded Rectangle 943" class="cls-1" d="M336,4201H324a3,3,0,0,1-3-3v-1.18a2.988,2.988,0,0,0,0-5.64V4190a3,3,0,0,1,3-3h12a3,3,0,0,1,3,3v1.18a2.988,2.988,0,0,0,0,5.64V4198A3,3,0,0,1,336,4201Zm1-3.03a4.94,4.94,0,0,1,0-7.94V4190a1,1,0,0,0-1-1h-7v1a1,1,0,0,1-2,0v-1h-3a1,1,0,0,0-1,1v0.03a4.94,4.94,0,0,1,0,7.94V4198a1,1,0,0,0,1,1h3v-1a1,1,0,0,1,2,0v1h7a1,1,0,0,0,1-1v-0.03Zm-9-1.97a1,1,0,0,1-1-1v-2a1,1,0,0,1,2,0v2A1,1,0,0,1,328,4196Z" transform="translate(-321 -4187)"/>
  <path id="Rounded_Rectangle_943-2" data-name="Rounded Rectangle 943" class="cls-2" d="M355,4201H343a3,3,0,0,1-3-3v-1.18a2.988,2.988,0,0,0,0-5.64V4190a3,3,0,0,1,3-3h12a3,3,0,0,1,3,3v1.18a2.988,2.988,0,0,0,0,5.64V4198A3,3,0,0,1,355,4201Zm1-3.03a4.94,4.94,0,0,1,0-7.94V4190a1,1,0,0,0-1-1h-7v1a1,1,0,0,1-2,0v-1h-3a1,1,0,0,0-1,1v0.03a4.94,4.94,0,0,1,0,7.94V4198a1,1,0,0,0,1,1h3v-1a1,1,0,0,1,2,0v1h7a1,1,0,0,0,1-1v-0.03Zm-9-1.97a1,1,0,0,1-1-1v-2a1,1,0,0,1,2,0v2A1,1,0,0,1,347,4196Z" transform="translate(-321 -4187)"/>
</svg>
