<svg width="0" height="0" class="hidden">
    <symbol xmlns="http://www.w3.org/2000/svg" viewBox="0 0 14 14" id="compare_small">
        <path fill-rule="evenodd" clip-rule="evenodd" d="M1 5C1.55228 5 2 5.44772 2 6V9C2 9.55228 1.55228 10 1 10C0.447715 10 0 9.55228 0 9V6C0 5.44772 0.447715 5 1 5Z"/>
        <path fill-rule="evenodd" clip-rule="evenodd" d="M5 2C4.44772 2 4 2.44772 4 3V9C4 9.55228 4.44772 10 5 10C5.55228 10 6 9.55228 6 9V3C6 2.44772 5.55228 2 5 2Z"/>
        <path fill-rule="evenodd" clip-rule="evenodd" d="M9 0C9.55229 0 10 0.447715 10 1V9C10 9.55229 9.55229 10 9 10C8.44771 10 8 9.55229 8 9V1C8 0.447715 8.44771 0 9 0Z"/>
        <path fill-rule="evenodd" clip-rule="evenodd" d="M13 4C12.4477 4 12 4.44772 12 5V9C12 9.55228 12.4477 10 13 10C13.5523 10 14 9.55228 14 9V5C14 4.44772 13.5523 4 13 4Z"/>
        <path fill-rule="evenodd" clip-rule="evenodd" d="M0 13C0 12.4477 0.447715 12 1 12H13C13.5523 12 14 12.4477 14 13C14 13.5523 13.5523 14 13 14H1C0.447715 14 0 13.5523 0 13Z"/>
    </symbol>
     <symbol xmlns="http://www.w3.org/2000/svg" viewBox="0 0 14 18" id="compare">
        <path fill-rule="evenodd" clip-rule="evenodd" d="M1 7C1.55228 7 2 7.44772 2 8V13C2 13.5523 1.55228 14 1 14C0.447715 14 0 13.5523 0 13V8C0 7.44772 0.447715 7 1 7Z"/>
        <path fill-rule="evenodd" clip-rule="evenodd" d="M5 4C4.44772 4 4 4.44772 4 5V13C4 13.5523 4.44772 14 5 14C5.55228 14 6 13.5523 6 13V5C6 4.44772 5.55228 4 5 4Z"/>
        <path fill-rule="evenodd" clip-rule="evenodd" d="M9 0C9.55229 0 10 0.447715 10 1V13C10 13.5523 9.55229 14 9 14C8.44771 14 8 13.5523 8 13V1C8 0.447715 8.44771 0 9 0Z"/>
        <path fill-rule="evenodd" clip-rule="evenodd" d="M0 17C0 16.4477 0.447715 16 1 16H13C13.5523 16 14 16.4477 14 17C14 17.5523 13.5523 18 13 18H1C0.447715 18 0 17.5523 0 17Z"/>
        <path fill-rule="evenodd" clip-rule="evenodd" d="M13 5C12.4477 5 12 5.44772 12 6V13C12 13.5523 12.4477 14 13 14C13.5523 14 14 13.5523 14 13V6C14 5.44772 13.5523 5 13 5Z"/>
    </symbol>
    <symbol xmlns="http://www.w3.org/2000/svg" viewBox="0 0 11 14" width="11" height="14" id="question">
        <path fill-rule="evenodd" clip-rule="evenodd" d="M5.5146 2.03369C4.45959 2.03372 3.24533 2.6612 2.96994 4.1758C2.87115 4.71917 2.35056 5.07957 1.80719 4.98078C1.26381 4.88198 0.903408 4.3614 1.0022 3.81802C1.48987 1.1359 3.73124 0.0337409 5.51455 0.0336914C6.91272 0.0336525 8.00391 0.424602 8.77565 1.0855C9.54192 1.74172 9.92076 2.60395 9.99565 3.40728C10.0755 4.26352 9.89492 4.97988 9.5382 5.59011C9.19794 6.17216 8.72305 6.61131 8.30289 6.96322C8.13689 7.10226 7.9863 7.22296 7.8451 7.33614C7.58986 7.54072 7.36528 7.72073 7.13574 7.94003C6.81177 8.24954 6.58179 8.54922 6.44498 8.8965C6.24256 9.41035 5.6619 9.66281 5.14805 9.46038C4.6342 9.25796 4.38174 8.6773 4.58417 8.16345C4.86418 7.45264 5.30859 6.9196 5.75417 6.49391C6.04464 6.2164 6.3881 5.94027 6.68162 5.70428C6.80544 5.60473 6.92038 5.51232 7.01871 5.42997C7.39599 5.11397 7.65129 4.85495 7.81157 4.58077C7.95537 4.33477 8.04567 4.03685 8.00429 3.59293C7.97431 3.27137 7.82011 2.90036 7.47473 2.60458C7.13481 2.31348 6.53574 2.03366 5.5146 2.03369Z"/>
        <path d="M3.99999 12.5C3.99999 13.3284 4.67156 14 5.49999 14C6.32842 14 6.99999 13.3284 6.99999 12.5C6.99999 11.6716 6.32842 11 5.49999 11C4.67156 11 3.99999 11.6716 3.99999 12.5Z"/>
    </symbol>
    <symbol xmlns="http://www.w3.org/2000/svg" viewBox="0 0 12 13" width="12" height="13" fill="none" id="remove_img">
        <path d="M1 4H11" stroke-width="2" stroke-linecap="round" stroke-linejoin="round"/>
        <path d="M10 4L9.5586 11.0624C9.52566 11.5894 9.08861 12 8.56055 12H3.43945C2.91139 12 2.47434 11.5894 2.4414 11.0624L2 4" stroke-width="2"/>
        <path d="M8 4V2C8 1.44772 7.55228 1 7 1H5C4.44772 1 4 1.44772 4 2V4" stroke-width="2"/>
    </symbol>
    <symbol xmlns="http://www.w3.org/2000/svg" viewBox="0 0 8 7" width="8" height="7" id="plus">
        <path d="M6.50146 4C6.77761 4 7.00146 3.77614 7.00146 3.5C7.00146 3.22386 6.77761 3 6.50146 3V4ZM0.501474 3C0.225332 3 0.00147379 3.22386 0.00147413 3.5C0.00147379 3.77614 0.225332 4 0.501474 4V3ZM3.00147 6.5C3.00147 6.77614 3.22533 7 3.50147 7C3.77761 7 4.00147 6.77614 4.00147 6.5L3.00147 6.5ZM4.00147 0.500005C4.00147 0.223862 3.77761 4.50307e-06 3.50147 4.65059e-06C3.22533 4.43985e-06 3.00147 0.223862 3.00147 0.500005L4.00147 0.500005ZM6.50146 3L0.501474 3V4L6.50146 4V3ZM4.00147 6.5V0.500005L3.00147 0.500005V6.5L4.00147 6.5Z"/>
    </symbol>
    <symbol viewBox="0 0 20 16" xmlns="http://www.w3.org/2000/svg" id="compare-20-16">
        <path d="M0 1C0 0.447715 0.447715 0 1 0H13C13.5523 0 14 0.447715 14 1C14 1.55228 13.5523 2 13 2H1C0.447715 2 0 1.55228 0 1Z"/>
        <path d="M0 15C0 14.4477 0.447715 14 1 14H13C13.5523 14 14 14.4477 14 15C14 15.5523 13.5523 16 13 16H1C0.447715 16 0 15.5523 0 15Z"/>
        <path d="M13 7C12.4477 7 12 7.44772 12 8C12 8.55229 12.4477 9 13 9H15V11C15 11.5523 15.4477 12 16 12C16.5523 12 17 11.5523 17 11V9H19C19.5523 9 20 8.55229 20 8C20 7.44772 19.5523 7 19 7H17V5C17 4.44772 16.5523 4 16 4C15.4477 4 15 4.44772 15 5V7H13Z"/>
        <path d="M1 7C0.447715 7 0 7.44772 0 8C0 8.55229 0.447715 9 1 9H9C9.55229 9 10 8.55229 10 8C10 7.44772 9.55229 7 9 7H1Z"/>
    </symbol>
    <symbol viewBox="0 0 18 16" xmlns="http://www.w3.org/2000/svg" id="favorite-18-16">
        <path fill-rule="evenodd" clip-rule="evenodd" d="M1.381 1.82174C2.34318 0.674873 3.76177 0 5.52098 0C6.96294 0 8.14387 0.713899 8.99703 1.68332C9.84131 0.715432 11.012 0 12.4767 0C14.2583 0 15.681 0.671889 16.6405 1.8248C17.5794 2.95299 18 4.44961 18 6C18 8.44511 16.4984 10.5773 14.7999 12.2017C13.0767 13.8498 10.9846 15.1367 9.44211 15.897C9.1607 16.0357 8.83051 16.0343 8.55028 15.8932C7.01127 15.1183 4.92111 13.825 3.19921 12.1782C1.50328 10.5562 0 8.4318 0 6C0 4.44191 0.437452 2.9464 1.381 1.82174ZM2.91319 3.10719C2.33851 3.79218 2 4.79667 2 6C2 7.60597 3.01723 9.23667 4.58156 10.7328C5.96419 12.0551 7.64687 13.1485 9.00428 13.8753C10.3567 13.1629 12.0365 12.0772 13.4176 10.7563C14.98 9.26204 16 7.6229 16 6C16 4.78897 15.6703 3.78559 15.1032 3.10414C14.5567 2.4474 13.7178 2 12.4767 2C11.4317 2 10.5009 2.72433 9.88908 3.91274C9.71765 4.2457 9.37455 4.45497 9.00005 4.45499C8.62555 4.45501 8.28243 4.24578 8.11097 3.91283C7.50174 2.72985 6.54104 2 5.52098 2C4.31113 2 3.46923 2.44441 2.91319 3.10719Z"/>
    </symbol>
    <symbol viewBox="0 0 21 18" xmlns="http://www.w3.org/2000/svg" id="cart-21-18">
        <path fill-rule="evenodd" clip-rule="evenodd" d="M1 0C0.447715 0 0 0.447715 0 1C0 1.55228 0.447715 2 1 2H4.27924L5.04402 4.29435C5.04858 4.30917 5.05348 4.32385 5.0587 4.33837L7.45302 11.5213C7.95652 13.0318 9.55233 13.8859 11.0884 13.467L18.7894 11.3667C20.0945 11.0107 21 9.82526 21 8.47241V6C21 4.34315 19.6569 3 18 3H6.72076L6.17661 1.36754C5.90438 0.55086 5.1401 0 4.27924 0H1ZM9.35039 10.8889L7.38743 5H18C18.5523 5 19 5.44772 19 6V8.47241C19 8.92336 18.6982 9.31852 18.2631 9.43717L10.5622 11.5374C10.0502 11.6771 9.51822 11.3924 9.35039 10.8889Z"/>
        <path d="M8 16C8 17.1046 7.10457 18 6 18C4.89543 18 4 17.1046 4 16C4 14.8954 4.89543 14 6 14C7.10457 14 8 14.8954 8 16Z"/>
        <path d="M19 16C19 17.1046 18.1046 18 17 18C15.8954 18 15 17.1046 15 16C15 14.8954 15.8954 14 17 14C18.1046 14 19 14.8954 19 16Z"/>
    </symbol>
    <symbol viewBox="0 0 13 13" xmlns="http://www.w3.org/2000/svg" id="star-13-13">
        <path d="M6.05163 0.288589C6.23504 -0.0830334 6.76496 -0.0830334 6.94837 0.288589L8.50624 3.44518C8.57907 3.59275 8.71986 3.69504 8.88271 3.7187L12.3662 4.22488C12.7763 4.28448 12.9401 4.78846 12.6433 5.07773L10.1226 7.53479C10.0048 7.64966 9.95102 7.81516 9.97884 7.97736L10.5739 11.4468C10.6439 11.8552 10.2152 12.1667 9.84842 11.9739L6.73267 10.3358C6.58701 10.2593 6.41299 10.2593 6.26733 10.3358L3.15159 11.9739C2.78478 12.1667 2.35606 11.8552 2.42612 11.4468L3.02117 7.97736C3.04899 7.81516 2.99521 7.64966 2.87737 7.53479L0.356683 5.07773C0.0599248 4.78846 0.22368 4.28448 0.63379 4.22488L4.1173 3.7187C4.28015 3.69504 4.42093 3.59275 4.49376 3.44518L6.05163 0.288589Z"/>
    </symbol>
    <symbol viewBox="0 0 20 22" fill="none" xmlns="http://www.w3.org/2000/svg" id="like-20-22">
        <path d="M8.4818 19.9992L8.50148 20H8.52119H14.5659C14.8811 20 15.2572 19.9536 15.6121 19.8661C15.9467 19.7836 16.3789 19.6368 16.7222 19.3684L16.1062 18.5807L16.7222 19.3684C17.2603 18.9476 17.6266 18.3457 17.7518 17.6748C17.9913 16.8208 18.129 15.9827 18.2773 15.0575C18.2845 15.0129 18.2917 14.9681 18.2989 14.9229C18.4458 14.0055 18.6123 12.9661 18.9012 11.6449C19.1572 10.4964 18.9068 9.51326 18.2171 8.83845C17.579 8.21413 16.7114 8 15.9901 8L13.495 8H12.5188C12.6278 7.7075 12.7338 7.39897 12.8299 7.087C13.1037 6.1977 13.3591 5.08733 13.237 4.22355C13.1583 3.6673 12.9612 3.08001 12.5322 2.63479C12.0688 2.15391 11.4434 1.95149 10.7697 2.00989C10.3916 2.04266 10.0247 2.15079 9.69908 2.3815C9.3785 2.60862 9.17276 2.90181 9.02879 3.17913C8.89014 3.44621 8.78673 3.74333 8.6979 4.01516C8.66356 4.12024 8.63132 4.22176 8.59885 4.32401C8.53918 4.5119 8.47873 4.70222 8.40308 4.92155C8.18601 5.55092 7.87302 6.23731 7.51313 6.84881C7.14627 7.47213 6.76605 7.95715 6.43584 8.23611C5.73703 8.82649 4.86772 9.0081 4.49824 9.0081H3.14235C1.95909 9.0081 1 9.96738 1 11.1505L1.00002 16.8559C1.00002 18.0391 1.95911 18.9984 3.14237 18.9984H5.90506C5.90685 18.9992 5.90872 19.0002 5.91067 19.0011C5.97974 19.0357 6.07918 19.0968 6.22874 19.1994C6.77915 19.5772 7.5359 19.9619 8.4818 19.9992Z" stroke-width="2"/>
    </symbol>
    <symbol viewBox="0 0 20 22" fill="none" xmlns="http://www.w3.org/2000/svg" id="dislike-20-22">
        <path d="M11.5182 2.00078L11.4985 2H11.4788H5.4341C5.11891 2 4.74276 2.04641 4.38793 2.13388C4.05334 2.21637 3.62106 2.36317 3.27779 2.63161L3.89381 3.41934L3.27779 2.63161C2.73965 3.05245 2.37341 3.6543 2.24824 4.32518C2.0087 5.17921 1.87104 6.01728 1.72267 6.94255C1.71552 6.9871 1.70834 7.03194 1.70111 7.07706C1.55418 7.99455 1.38772 9.03393 1.09876 10.3551C0.84284 11.5036 1.09323 12.4867 1.78294 13.1616C2.42104 13.7859 3.28856 14 4.00987 14L6.50495 14H7.48117C7.37221 14.2925 7.26615 14.601 7.17011 14.913C6.89633 15.8023 6.64088 16.9127 6.76302 17.7764C6.84168 18.3327 7.03876 18.92 7.46782 19.3652C7.93123 19.8461 8.5566 20.0485 9.23029 19.9901C9.6084 19.9573 9.97527 19.8492 10.3009 19.6185C10.6215 19.3914 10.8272 19.0982 10.9712 18.8209C11.1099 18.5538 11.2133 18.2567 11.3021 17.9848C11.3364 17.8798 11.3687 17.7782 11.4012 17.676C11.4608 17.4881 11.5213 17.2978 11.5969 17.0785C11.814 16.4491 12.127 15.7627 12.4869 15.1512C12.8537 14.5279 13.234 14.0429 13.5642 13.7639C14.263 13.1735 15.1323 12.9919 15.5018 12.9919H16.8576C18.0409 12.9919 19 12.0326 19 10.8495L19 5.14408C19 3.96092 18.0409 3.00164 16.8576 3.00164H14.0949C14.0931 3.00076 14.0913 2.99983 14.0893 2.99886C14.0203 2.96429 13.9208 2.90324 13.7713 2.8006C13.2208 2.42284 12.4641 2.03806 11.5182 2.00078Z" stroke-width="2"/>
    </symbol>
    <symbol viewBox="0 0 12 12" fill="none" xmlns="http://www.w3.org/2000/svg" id="comment_answer-12-12">
        <path opacity="0.35" d="M11 11H6C4.89543 11 4 10.1046 4 9V1M4 1L7 4M4 1L1 4" stroke-width="2" stroke-linecap="round" stroke-linejoin="round"/>
    </symbol>
    <symbol viewBox="0 0 8 8" xmlns="http://www.w3.org/2000/svg" id="close-8-8">
        <path d="M1 1L7 7M7 1L1 7" stroke-width="2" stroke-linecap="round"/>
    </symbol>
    <symbol viewBox="0 0 16 16" xmlns="http://www.w3.org/2000/svg" id="share-16-16">
        <path d="M8.70711 0.292894C8.31658 -0.0976312 7.68342 -0.0976312 7.29289 0.292894L4.29289 3.29289C3.90237 3.68342 3.90237 4.31658 4.29289 4.70711C4.68342 5.09763 5.31658 5.09763 5.70711 4.70711L7 3.41421V10C7 10.5523 7.44772 11 8 11C8.55228 11 9 10.5523 9 10V3.41421L10.2929 4.70711C10.6834 5.09763 11.3166 5.09763 11.7071 4.70711C12.0976 4.31658 12.0976 3.68342 11.7071 3.29289L8.70711 0.292894Z" />
        <path d="M2 10C2 9.44772 2.44771 9 3 9C3.55228 9 4 8.55228 4 8C4 7.44772 3.55228 7 3 7C1.34315 7 0 8.34315 0 10V13C0 14.6569 1.34315 16 3 16H13C14.6569 16 16 14.6569 16 13V10C16 8.34315 14.6569 7 13 7C12.4477 7 12 7.44772 12 8C12 8.55228 12.4477 9 13 9C13.5523 9 14 9.44772 14 10V13C14 13.5523 13.5523 14 13 14H3C2.44772 14 2 13.5523 2 13V10Z" />
    </symbol>
    <symbol viewBox="0 0 18 11" xmlns="http://www.w3.org/2000/svg" id="table_sizes">
        <path d="M12 10C12 10.5523 12.4477 11 13 11C13.5523 11 14 10.5523 14 10H12ZM14 5C14 4.44772 13.5523 4 13 4C12.4477 4 12 4.44772 12 5H14ZM8 10C8 10.5523 8.44772 11 9 11C9.55228 11 10 10.5523 10 10H8ZM10 7C10 6.44772 9.55228 6 9 6C8.44772 6 8 6.44772 8 7H10ZM4 10C4 10.5523 4.44772 11 5 11C5.55228 11 6 10.5523 6 10H4ZM6 5C6 4.44772 5.55228 4 5 4C4.44772 4 4 4.44772 4 5H6ZM18 8V3H16V8H18ZM18 3C18 1.34312 16.6569 0 15 0V2C15.5523 2 16 2.44768 16 3H18ZM15 0H3V2H15V0ZM3 0C1.34312 0 0 1.34312 0 3H2C2 2.44768 2.44768 2 3 2V0ZM0 3V8H2V3H0ZM0 8C0 9.65688 1.34312 11 3 11V9C2.44768 9 2 8.55232 2 8H0ZM3 11H15V9H3V11ZM15 11C16.6569 11 18 9.65688 18 8H16C16 8.55232 15.5523 9 15 9V11ZM14 10V5H12V10H14ZM10 10V7H8V10H10ZM6 10V5H4V10H6Z" />
    </symbol>
    <symbol viewBox="0 0 14 14" xmlns="http://www.w3.org/2000/svg" id="rss-14-14">
        <path d="M1531,255a1,1,0,0,0,1-1v-1a10,10,0,0,1,10-10h1a1,1,0,1,0,0-2h-1a12,12,0,0,0-12,12v1A1,1,0,0,0,1531,255Zm12-9h-1a7,7,0,0,0-7,7v1a1,1,0,1,0,2,0v-1a5,5,0,0,1,5-5h1A1,1,0,0,0,1543,246Zm-1,5a2,2,0,1,0,2,2A2,2,0,0,0,1542,251Z" transform="translate(-1530 -241)" />
    </symbol>
    <symbol viewBox="0 0 18 14" xmlns="http://www.w3.org/2000/svg" id="eye-18-14">
        <path fill-rule="evenodd" clip-rule="evenodd" d="M17.3729 8.88706C17.547 8.60672 17.678 8.37091 17.7669 8.20184C17.8839 7.9794 17.9996 7.74645 17.9996 7.5C17.9996 7.2503 17.8831 7.01908 17.7669 6.79816C17.678 6.62909 17.547 6.39328 17.3729 6.11294C17.0257 5.55408 16.5006 4.80828 15.7859 4.05952C14.3588 2.5645 12.1147 1 9 1C5.8853 1 3.64122 2.5645 2.21415 4.05952C1.49942 4.80828 0.974291 5.55408 0.627122 6.11294C0.452975 6.39328 0.322052 6.62909 0.233122 6.79816C0.116963 7.01901 0.000244751 7.25044 0.000183132 7.5C0.000119368 7.75846 0.116051 7.97926 0.233122 8.20184C0.322052 8.37091 0.452975 8.60672 0.627122 8.88706C0.974291 9.44592 1.49942 10.1917 2.21415 10.9405C3.64122 12.4355 5.8853 14 9 14C12.1147 14 14.3588 12.4355 15.7859 10.9405C16.5006 10.1917 17.0257 9.44592 17.3729 8.88706ZM2.326 7.16831C2.2497 7.29114 2.18397 7.40269 2.12871 7.5C2.18397 7.59731 2.2497 7.70886 2.326 7.83169C2.61946 8.30408 3.06308 8.93328 3.66086 9.55952C4.85879 10.8145 6.6147 12 9 12C11.3853 12 13.1412 10.8145 14.3391 9.55952C14.9369 8.93328 15.3805 8.30408 15.674 7.83169C15.7503 7.70886 15.816 7.59731 15.8713 7.5C15.816 7.40269 15.7503 7.29114 15.674 7.16831C15.3805 6.69592 14.9369 6.06672 14.3391 5.44048C14.2304 5.32653 14.117 5.21316 13.999 5.10119C13.9451 7.8159 11.7276 10 9 10C6.27239 10 4.0549 7.81591 4.001 5.1012C3.88299 5.21316 3.76962 5.32653 3.66086 5.44048C3.06308 6.06672 2.61946 6.69592 2.326 7.16831ZM6.3927 3.51505C6.14279 3.9529 6 4.45977 6 5C6 6.65685 7.34315 8 9 8C10.6569 8 12 6.65685 12 5C12 4.45977 11.8572 3.95289 11.6073 3.51505C10.8395 3.19686 9.972 3 9 3C8.028 3 7.16051 3.19686 6.3927 3.51505Z"/>
    </symbol>
</svg>