<svg width="0" height="0" class="hidden">
    <symbol xmlns="http://www.w3.org/2000/svg" viewBox="0 0 10 10" id="table">
        <path d="M1 0C0.447754 0 0 0.447723 0 1C0 1.55228 0.447754 2 1 2C1.55225 2 2 1.55228 2 1C2 0.447723 1.55225 0 1 0Z"/>
        <path d="M4 1C4 0.447723 4.44775 0 5 0C5.55225 0 6 0.447723 6 1C6 1.55228 5.55225 2 5 2C4.44775 2 4 1.55228 4 1Z"/>
        <path d="M8 1C8 0.447723 8.44775 0 9 0C9.55225 0 10 0.447723 10 1C10 1.55228 9.55225 2 9 2C8.44775 2 8 1.55228 8 1Z"/>
        <path d="M1 4C0.447754 4 0 4.44772 0 5C0 5.55228 0.447754 6 1 6C1.55225 6 2 5.55228 2 5C2 4.44772 1.55225 4 1 4Z"/>
        <path d="M4 5C4 4.44772 4.44775 4 5 4C5.55225 4 6 4.44772 6 5C6 5.55228 5.55225 6 5 6C4.44775 6 4 5.55228 4 5Z"/>
        <path d="M9 4C8.44775 4 8 4.44772 8 5C8 5.55228 8.44775 6 9 6C9.55225 6 10 5.55228 10 5C10 4.44772 9.55225 4 9 4Z"/>
        <path d="M0 9C0 8.44772 0.447754 8 1 8C1.55225 8 2 8.44772 2 9C2 9.55228 1.55225 10 1 10C0.447754 10 0 9.55228 0 9Z"/>
        <path d="M5 8C4.44775 8 4 8.44772 4 9C4 9.55228 4.44775 10 5 10C5.55225 10 6 9.55228 6 9C6 8.44772 5.55225 8 5 8Z"/>
        <path d="M8 9C8 8.44772 8.44775 8 9 8C9.55225 8 10 8.44772 10 9C10 9.55228 9.55225 10 9 10C8.44775 10 8 9.55228 8 9Z"/>
    </symbol>
    <symbol xmlns="http://www.w3.org/2000/svg" viewBox="0 0 10 10" id="list">
        <path d="M0 1C0 0.447723 0.447754 0 1 0C1.55225 0 2 0.447723 2 1C2 1.55228 1.55225 2 1 2C0.447754 2 0 1.55228 0 1Z"/>
        <path d="M5 0C4.44775 0 4 0.447723 4 1C4 1.55228 4.44775 2 5 2H9C9.55225 2 10 1.55228 10 1C10 0.447723 9.55225 0 9 0H5Z"/>
        <path d="M0 5C0 4.44772 0.447754 4 1 4C1.55225 4 2 4.44772 2 5C2 5.55228 1.55225 6 1 6C0.447754 6 0 5.55228 0 5Z"/>
        <path d="M5 4C4.44775 4 4 4.44772 4 5C4 5.55228 4.44775 6 5 6H9C9.55225 6 10 5.55228 10 5C10 4.44772 9.55225 4 9 4H5Z"/>
        <path d="M1 8C0.447754 8 0 8.44772 0 9C0 9.55228 0.447754 10 1 10C1.55225 10 2 9.55228 2 9C2 8.44772 1.55225 8 1 8Z"/>
        <path d="M4 9C4 8.44772 4.44775 8 5 8H9C9.55225 8 10 8.44772 10 9C10 9.55228 9.55225 10 9 10H5C4.44775 10 4 9.55228 4 9Z"/>
    </symbol>
    <symbol xmlns="http://www.w3.org/2000/svg" viewBox="0 0 10 10" id="price">
        <path d="M0.5 0C0.223858 0 0 0.223858 0 0.5C0 0.776142 0.223858 1 0.5 1H9.5C9.77614 1 10 0.776142 10 0.5C10 0.223858 9.77614 0 9.5 0H0.5Z"/>
        <path d="M0 6.5C0 6.22386 0.223858 6 0.5 6H9.5C9.77614 6 10 6.22386 10 6.5C10 6.77614 9.77614 7 9.5 7H0.5C0.223858 7 0 6.77614 0 6.5Z"/>
        <path d="M0.5 9C0.223858 9 0 9.22386 0 9.5C0 9.77614 0.223858 10 0.5 10H9.5C9.77614 10 10 9.77614 10 9.5C10 9.22386 9.77614 9 9.5 9H0.5Z"/>
        <path d="M0 3.5C0 3.22386 0.223858 3 0.5 3H9.5C9.77614 3 10 3.22386 10 3.5C10 3.77614 9.77614 4 9.5 4H0.5C0.223858 4 0 3.77614 0 3.5Z"/>
    </symbol>
</svg>