<svg width="0" height="0" class="hidden">
    <symbol viewBox="0 0 18 18" xmlns="http://www.w3.org/2000/svg" id="file-download-18-18">
        <path d="M10 1C10 0.447715 9.55228 0 9 0C8.44772 0 8 0.447715 8 1V9.58579L5.70711 7.29289C5.31658 6.90237 4.68342 6.90237 4.29289 7.29289C3.90237 7.68342 3.90237 8.31658 4.29289 8.70711L8.29289 12.7071C8.68342 13.0976 9.31658 13.0976 9.70711 12.7071L13.7071 8.70711C14.0976 8.31658 14.0976 7.68342 13.7071 7.29289C13.3166 6.90237 12.6834 6.90237 12.2929 7.29289L10 9.58579V1ZM17 18C17.5523 18 18 17.5523 18 17C18 16.4477 17.5523 16 17 16L1 16C0.447714 16 0 16.4477 0 17C0 17.5523 0.447714 18 1 18H17Z"/>
    </symbol>
    <symbol viewBox="0 0 18 18" xmlns="http://www.w3.org/2000/svg" id="image-preview-18-16">
        <path d="M2.55078 0C1.44621 0 0.550781 0.89543 0.550781 2V4C0.550781 4.55228 0.998496 5 1.55078 5C2.10307 5 2.55078 4.55228 2.55078 4V2H4.69206C5.24435 2 5.69206 1.55228 5.69206 1C5.69206 0.447715 5.24435 0 4.69206 0H2.55078ZM13.0688 0C12.5165 0 12.0688 0.447715 12.0688 1C12.0688 1.55228 12.5165 2 13.0688 2H15.2101V4C15.2101 4.55228 15.6578 5 16.2101 5C16.7624 5 17.2101 4.55228 17.2101 4V2C17.2101 0.895432 16.3147 0 15.2101 0H13.0688ZM2.55078 12C2.55078 11.4477 2.10307 11 1.55078 11C0.998496 11 0.550781 11.4477 0.550781 12V14C0.550781 15.1046 1.44621 16 2.55078 16H4.69206C5.24435 16 5.69206 15.5523 5.69206 15C5.69206 14.4477 5.24435 14 4.69206 14H2.55078V12ZM17.2101 12C17.2101 11.4477 16.7624 11 16.2101 11C15.6578 11 15.2101 11.4477 15.2101 12V14H13.0688C12.5165 14 12.0688 14.4477 12.0688 15C12.0688 15.5523 12.5165 16 13.0688 16H15.2101C16.3147 16 17.2101 15.1046 17.2101 14V12ZM6.73914 4C5.63457 4 4.73914 4.89543 4.73914 6V10C4.73914 11.1046 5.63457 12 6.73914 12H11.0217C12.1263 12 13.0217 11.1046 13.0217 10V6C13.0217 4.89543 12.1263 4 11.0217 4H6.73914ZM6.73914 6H11.0217V10H6.73914V6Z"/>
    </symbol>
</svg>