<svg width="0" height="0" class="hidden">
    <symbol width="80" height="80" viewBox="0 0 80 80" xmlns="http://www.w3.org/2000/svg" id="success-80-80">
        <path d="M55.7071 31.7071C56.0976 31.3166 56.0976 30.6834 55.7071 30.2929C55.3166 29.9024 54.6834 29.9024 54.2929 30.2929L34 50.5858L25.7071 42.2929C25.3166 41.9024 24.6834 41.9024 24.2929 42.2929C23.9024 42.6834 23.9024 43.3166 24.2929 43.7071L33.2929 52.7071C33.6834 53.0976 34.3166 53.0976 34.7071 52.7071L55.7071 31.7071Z"/>
        <path fill-rule="evenodd" clip-rule="evenodd" d="M80 40C80 62.0914 62.0914 80 40 80C17.9086 80 0 62.0914 0 40C0 17.9086 17.9086 0 40 0C62.0914 0 80 17.9086 80 40ZM78 40C78 60.9868 60.9868 78 40 78C19.0132 78 2 60.9868 2 40C2 19.0132 19.0132 2 40 2C60.9868 2 78 19.0132 78 40Z"/>
    </symbol>
</svg>