<svg width="0" height="0" class="hidden">
    <symbol viewBox="0 0 15 3" xmlns="http://www.w3.org/2000/svg" id="dots-15-3">
        <path d="M0 1.5C0 2.32843 0.671573 3 1.5 3C2.32843 3 3 2.32843 3 1.5C3 0.671574 2.32843 0 1.5 0C0.671573 0 0 0.671574 0 1.5Z"/>
        <path d="M6 1.5C6 2.32843 6.67157 3 7.5 3C8.32843 3 9 2.32843 9 1.5C9 0.671574 8.32843 0 7.5 0C6.67157 0 6 0.671574 6 1.5Z"/>
        <path d="M13.5 3C12.6716 3 12 2.32843 12 1.5C12 0.671574 12.6716 0 13.5 0C14.3284 0 15 0.671574 15 1.5C15 2.32843 14.3284 3 13.5 3Z"/>
    </symbol>
    <symbol viewBox="0 0 18 18" xmlns="http://www.w3.org/2000/svg" id="search-18-18">
        <path fill-rule="evenodd" clip-rule="evenodd" d="M2 8C2 4.68629 4.68629 2 8 2C11.3137 2 14 4.68629 14 8C14 11.3137 11.3137 14 8 14C4.68629 14 2 11.3137 2 8ZM8 0C3.58172 0 0 3.58172 0 8C0 12.4183 3.58172 16 8 16C9.84871 16 11.551 15.3729 12.9056 14.3199L16.2929 17.7071C16.6834 18.0976 17.3166 18.0976 17.7071 17.7071C18.0976 17.3166 18.0976 16.6834 17.7071 16.2929L14.3199 12.9056C15.3729 11.551 16 9.84871 16 8C16 3.58172 12.4183 0 8 0Z"/>
    </symbol>
    <symbol viewBox="0 0 17 16" xmlns="http://www.w3.org/2000/svg" id="region-17-16">
        <path fill-rule="evenodd" clip-rule="evenodd" d="M15.0773 0.105087C16.1503 -0.345643 17.2286 0.734363 16.7774 1.80781L11.1256 15.2525C10.6432 16.4 8.95507 16.1724 8.79328 14.9381L8.39886 11.929C8.16338 10.1325 6.75061 8.71874 4.95545 8.48327L1.94398 8.08825C0.710041 7.9264 0.483078 6.23583 1.63059 5.75379L15.0773 0.105087ZM14.271 2.61278L5.06391 6.48048L5.21516 6.50032C7.90789 6.85353 10.0271 8.9741 10.3803 11.6689L10.4002 11.8208L14.271 2.61278Z"/>
    </symbol>
    <symbol viewBox="0 0 16 12" xmlns="http://www.w3.org/2000/svg" id="burger-16-12">
        <path d="M0 1C0 0.447716 0.447716 0 1 0H15C15.5523 0 16 0.447716 16 1C16 1.55228 15.5523 2 15 2H1C0.447716 2 0 1.55228 0 1Z"/>
        <path d="M0 6C0 5.44772 0.447716 5 1 5H15C15.5523 5 16 5.44772 16 6C16 6.55228 15.5523 7 15 7H1C0.447716 7 0 6.55228 0 6Z"/>
        <path d="M0 11C0 10.4477 0.447716 10 1 10H15C15.5523 10 16 10.4477 16 11C16 11.5523 15.5523 12 15 12H1C0.447716 12 0 11.5523 0 11Z"/>
    </symbol>
    <symbol viewBox="0 0 16 16" xmlns="http://www.w3.org/2000/svg" id="burger-16-16">
        <path fill-rule="evenodd" clip-rule="evenodd" d="M0 3C0 2.44772 0.447715 2 1 2H2C2.55228 2 3 2.44772 3 3C3 3.55228 2.55228 4 2 4H1C0.447715 4 0 3.55228 0 3ZM5 3C5 2.44772 5.44772 2 6 2H15C15.5523 2 16 2.44772 16 3C16 3.55228 15.5523 4 15 4H6C5.44772 4 5 3.55228 5 3ZM0 8C0 7.44772 0.447715 7 1 7H2C2.55228 7 3 7.44772 3 8C3 8.55228 2.55228 9 2 9H1C0.447715 9 0 8.55228 0 8ZM5 8C5 7.44772 5.44772 7 6 7H15C15.5523 7 16 7.44772 16 8C16 8.55228 15.5523 9 15 9H6C5.44772 9 5 8.55228 5 8ZM0 13C0 12.4477 0.447715 12 1 12H2C2.55228 12 3 12.4477 3 13C3 13.5523 2.55228 14 2 14H1C0.447715 14 0 13.5523 0 13ZM5 13C5 12.4477 5.44772 12 6 12H15C15.5523 12 16 12.4477 16 13C16 13.5523 15.5523 14 15 14H6C5.44772 14 5 13.5523 5 13Z" />
    </symbol>
    <symbol viewBox="0 0 22 20" xmlns="http://www.w3.org/2000/svg" id="log-in-22-20">
        <path fill-rule="evenodd" clip-rule="evenodd" d="M7 4C4.23858 4 2 6.23858 2 9V13C2 14.5793 2.73221 15.9876 3.87568 16.9039C4.68318 15.1531 6.44521 14 8.41537 14H9H9.66312C11.6159 14 13.3642 15.1328 14.1812 16.8576C15.292 15.9406 16 14.553 16 13V9C16 8.44772 16.4477 8 17 8C17.5523 8 18 8.44772 18 9V13C18 16.866 14.866 20 11 20H7C3.13401 20 0 16.866 0 13V9C0 5.13401 3.13401 2 7 2H11C11.5523 2 12 2.44772 12 3C12 3.55228 11.5523 4 11 4H7ZM7 18C6.53511 18 6.08505 17.9366 5.65798 17.8179C6.12587 16.7251 7.20518 16 8.41537 16H9.66312C10.8659 16 11.9394 16.7163 12.4119 17.7979C11.9641 17.9294 11.4903 18 11 18H7Z"/>
        <path fill-rule="evenodd" clip-rule="evenodd" d="M9 14C6.79086 14 5 12.2091 5 10C5 7.79086 6.79086 6 9 6C11.2091 6 13 7.79086 13 10C13 12.2091 11.2091 14 9 14ZM7 10C7 8.89543 7.89543 8 9 8C10.1046 8 11 8.89543 11 10C11 11.1046 10.1046 12 9 12C7.89543 12 7 11.1046 7 10Z"/>
        <path style="fill: var(--theme-more-color)" d="M21.707 1.70703C22.0977 1.31665 22.0977 0.68335 21.707 0.292969C21.3164 -0.0976562 20.6836 -0.0976562 20.293 0.292969L17 3.58569L15.707 2.29297C15.3164 1.90234 14.6836 1.90234 14.293 2.29297C13.9023 2.68335 13.9023 3.31665 14.293 3.70703L16.293 5.70703C16.6836 6.09766 17.3164 6.09766 17.707 5.70703L21.707 1.70703Z" />
    </symbol>
    <symbol viewBox="0 0 18 18" xmlns="http://www.w3.org/2000/svg" id="log-out-18-18">
        <path fill-rule="evenodd" clip-rule="evenodd" d="M9 12C6.79086 12 5 10.2091 5 8C5 5.79086 6.79086 4 9 4C11.2091 4 13 5.79086 13 8C13 10.2091 11.2091 12 9 12ZM7 8C7 6.89543 7.89543 6 9 6C10.1046 6 11 6.89543 11 8C11 9.10457 10.1046 10 9 10C7.89543 10 7 9.10457 7 8Z"/>
        <path fill-rule="evenodd" clip-rule="evenodd" d="M0 7C0 3.13401 3.13401 0 7 0H11C14.866 0 18 3.13401 18 7V11C18 14.866 14.866 18 11 18H7C3.13401 18 0 14.866 0 11V7ZM7 2C4.23858 2 2 4.23858 2 7V11C2 12.3775 2.55706 13.6249 3.45821 14.5293C4.33412 12.9873 5.98323 12 7.80545 12H9H10.0394C11.9 12 13.5802 13.0294 14.441 14.6276C15.4012 13.7165 16 12.4282 16 11V7C16 4.23858 13.7614 2 11 2H7ZM7 16C6.33948 16 5.70887 15.8719 5.13166 15.6392C5.6374 14.6446 6.66491 14 7.80545 14H10.0394C11.199 14 12.2419 14.6664 12.7382 15.6896C12.1968 15.8903 11.6112 16 11 16H7Z"/>
    </symbol>
    <symbol viewBox="0 0 16 16" xmlns="http://www.w3.org/2000/svg" id="close-16-16">
        <path fill-rule="evenodd" clip-rule="evenodd" d="M0.292893 0.292893C0.683417 -0.0976311 1.31658 -0.0976311 1.70711 0.292893L8 6.58579L14.2929 0.292893C14.6834 -0.0976311 15.3166 -0.0976311 15.7071 0.292893C16.0976 0.683417 16.0976 1.31658 15.7071 1.70711L9.41421 8L15.7071 14.2929C16.0976 14.6834 16.0976 15.3166 15.7071 15.7071C15.3166 16.0976 14.6834 16.0976 14.2929 15.7071L8 9.41421L1.70711 15.7071C1.31658 16.0976 0.683417 16.0976 0.292893 15.7071C-0.0976311 15.3166 -0.0976311 14.6834 0.292893 14.2929L6.58579 8L0.292893 1.70711C-0.0976311 1.31658 -0.0976311 0.683417 0.292893 0.292893Z" />
    </symbol>
    <symbol viewBox="0 0 9 9" fill="none" xmlns="http://www.w3.org/2000/svg" id="close-9-9">
        <path d="M8 1L1 8M1 1L8 8" stroke="#999999" stroke-width="2" stroke-linecap="round" stroke-linejoin="round"/>
    </symbol>
    <symbol viewBox="0 0 14 14" xmlns="http://www.w3.org/2000/svg" id="close-14-14">
        <path fill-rule="evenodd" clip-rule="evenodd" d="M0.292893 0.292893C0.683417 -0.0976311 1.31658 -0.0976311 1.70711 0.292893L7 5.58579L12.2929 0.292893C12.6834 -0.0976311 13.3166 -0.0976311 13.7071 0.292893C14.0976 0.683417 14.0976 1.31658 13.7071 1.70711L8.41421 7L13.7071 12.2929C14.0976 12.6834 14.0976 13.3166 13.7071 13.7071C13.3166 14.0976 12.6834 14.0976 12.2929 13.7071L7 8.41421L1.70711 13.7071C1.31658 14.0976 0.683417 14.0976 0.292893 13.7071C-0.0976311 13.3166 -0.0976311 12.6834 0.292893 12.2929L5.58579 7L0.292893 1.70711C-0.0976311 1.31658 -0.0976311 0.683417 0.292893 0.292893Z"/>
    </symbol>
    <symbol viewBox="0 0 11 9" fill="none" xmlns="http://www.w3.org/2000/svg" id="logout-11-9">
        <path d="M3.5 4.5H10.5M10.5 4.5L8.5 2.5M10.5 4.5L8.5 6.5" stroke-linecap="round" stroke-linejoin="round"/>
        <path d="M5.5 0.5H2.5C1.39543 0.5 0.5 1.39543 0.5 2.5V6.5C0.5 7.60457 1.39543 8.5 2.5 8.5H5.5" stroke-linecap="round" stroke-linejoin="round"/>
    </symbol>
    <symbol viewBox="0 0 14 18" xmlns="http://www.w3.org/2000/svg" id="phone-14-18">
        <path fill-rule="evenodd" clip-rule="evenodd" d="M6.63104 7.97841C6.80463 8.37048 7.0041 8.78717 7.15518 9.07225C7.27009 9.28907 7.49877 9.67951 7.75313 10.0735C7.76214 10.0675 7.77119 10.0616 7.78029 10.0557C8.42453 9.63686 9.0857 9.68158 9.33213 9.70774C9.65095 9.7416 9.94005 9.82627 10.1562 9.90146C10.5996 10.0556 11.0572 10.2844 11.4507 10.5088C11.8534 10.7384 12.2607 11.0047 12.6067 11.2698C12.7791 11.4018 12.9587 11.5506 13.1228 11.7095C13.2598 11.8422 13.4996 12.0889 13.6819 12.4208C13.9567 12.9214 13.9912 13.4324 13.9984 13.6733C14.0076 13.9837 13.9774 14.2994 13.9216 14.5917C13.8662 14.8818 13.7732 15.2138 13.6215 15.5388C13.4853 15.8308 13.2157 16.3046 12.7088 16.6593C12.2763 16.9621 12.101 17.0614 11.5704 17.3623C11.5097 17.3967 11.4445 17.4337 11.3736 17.4739C10.0199 18.2431 8.63271 17.9822 7.88102 17.8407C7.83467 17.832 7.79075 17.8237 7.74939 17.8162C6.75715 17.6353 5.7137 16.9402 4.80916 16.0871C3.83349 15.1669 2.7972 13.855 1.8574 12.1001C-0.0332021 8.56968 -0.11428 5.48344 0.0632851 4.44905C0.155366 3.91264 0.377274 3.31038 0.67849 2.76835C0.975733 2.23348 1.45254 1.57218 2.16387 1.10241C2.86272 0.640891 3.08665 0.498187 3.5503 0.267086C4.05424 0.0159067 4.54851 -0.00825558 4.84873 0.00182873C5.18399 0.01309 5.50575 0.0758517 5.78987 0.161581C6.29082 0.312738 7.02383 0.643641 7.53773 1.30319C7.84738 1.70061 7.96266 2.13768 8.0032 2.29536C8.0629 2.52757 8.10186 2.76842 8.12854 2.98699C8.18252 3.42919 8.20461 3.93488 8.19668 4.4186C8.1889 4.89393 8.15099 5.42764 8.05633 5.9073C8.00998 6.14217 7.93607 6.43773 7.80765 6.73085C7.7078 6.95878 7.43069 7.53172 6.78987 7.89289C6.7363 7.92309 6.68325 7.95156 6.63104 7.97841ZM4.36756 7.68433C4.55311 8.29107 5.08198 9.4331 5.38688 10.0084C5.69177 10.5837 6.4713 11.8462 6.90539 12.2852C7.33947 12.7242 7.68815 12.619 7.8981 12.5196C7.99603 12.4732 8.11572 12.3629 8.26158 12.2285C8.42842 12.0748 8.62948 11.8895 8.87134 11.7322C9.32463 11.4376 11.633 12.8464 11.9276 13.3829C12.1 13.6969 11.9533 14.7465 11.561 15.0211C11.208 15.2682 11.1075 15.3251 10.5781 15.6255C10.5193 15.6588 10.4551 15.6952 10.3847 15.7353C9.68103 16.1351 8.95879 16.0037 8.10853 15.8487C7.25828 15.6936 5.31836 14.3246 3.62164 11.1563C1.92491 7.98792 1.93885 5.3504 2.03552 4.78725C2.13219 4.22409 2.57448 3.22841 3.267 2.77107C3.95952 2.31373 4.09679 2.22961 4.44334 2.05688C4.78989 1.88414 5.64012 2.12285 5.95894 2.53204C6.27777 2.94122 6.32266 5.86013 5.80696 6.15079C5.54379 6.29912 5.29676 6.38092 5.09355 6.44822C4.89855 6.5128 4.74389 6.56401 4.65399 6.64783C4.65164 6.65003 4.64927 6.65224 4.64688 6.65446C4.4631 6.8257 4.18439 7.08538 4.36756 7.68433Z" />
    </symbol>
    <symbol viewBox="0 0 16 16" xmlns="http://www.w3.org/2000/svg" id="remove-16-16">
        <path fill-rule="evenodd" clip-rule="evenodd" d="M7 0C5.34315 0 4 1.34315 4 3V4H1C0.447715 4 0 4.44772 0 5C0 5.55228 0.447715 6 1 6H1.59494L2.32478 13.2984C2.47814 14.832 3.76864 15.9999 5.3099 15.9999H10.6899C12.2312 15.9999 13.5217 14.832 13.6751 13.2984L14.4049 6H15C15.5523 6 16 5.55228 16 5C16 4.44772 15.5523 4 15 4H12V3C12 1.34315 10.6569 0 9 0H7ZM10 4V3C10 2.44772 9.55228 2 9 2H7C6.44772 2 6 2.44772 6 3V4H10ZM3.60492 6H12.3949L11.685 13.0994C11.6339 13.6106 11.2037 13.9999 10.6899 13.9999H5.3099C4.79614 13.9999 4.36598 13.6106 4.31486 13.0994L3.60492 6Z" />
    </symbol>
</svg>