<svg width="0" height="0" class="hidden">
    <symbol xmlns="http://www.w3.org/2000/svg" viewBox="0 0 16 16" id="light-16-16">
        <path d="M9 1C9 1.55228 8.55229 2 8 2C7.44772 2 7 1.55228 7 1C7 0.447715 7.44772 0 8 0C8.55229 0 9 0.447715 9 1Z" stroke="none"/>
        <path fill-rule="evenodd" clip-rule="evenodd" d="M8 13C10.7614 13 13 10.7614 13 8C13 5.23858 10.7614 3 8 3C5.23858 3 3 5.23858 3 8C3 10.7614 5.23858 13 8 13ZM8 11C9.65685 11 11 9.65685 11 8C11 6.34315 9.65685 5 8 5C6.34315 5 5 6.34315 5 8C5 9.65685 6.34315 11 8 11Z" stroke="none"/>
        <path d="M13 4C13.5523 4 14 3.55228 14 3C14 2.44772 13.5523 2 13 2C12.4477 2 12 2.44772 12 3C12 3.55228 12.4477 4 13 4Z" stroke="none"/>
        <path d="M15 9C14.4477 9 14 8.55228 14 8C14 7.44772 14.4477 7 15 7C15.5523 7 16 7.44772 16 8C16 8.55229 15.5523 9 15 9Z" stroke="none"/>
        <path d="M13 12C12.4477 12 12 12.4477 12 13C12 13.5523 12.4477 14 13 14C13.5523 14 14 13.5523 14 13C14 12.4477 13.5523 12 13 12Z" stroke="none"/>
        <path d="M9 15C9 15.5523 8.55229 16 8 16C7.44772 16 7 15.5523 7 15C7 14.4477 7.44772 14 8 14C8.55229 14 9 14.4477 9 15Z" stroke="none"/>
        <path d="M2 13C2 13.5523 2.44772 14 3 14C3.55228 14 4 13.5523 4 13C4 12.4477 3.55228 12 3 12C2.44772 12 2 12.4477 2 13Z" stroke="none"/>
        <path d="M1 9C0.447715 9 0 8.55228 0 8C0 7.44772 0.447715 7 1 7C1.55228 7 2 7.44772 2 8C2 8.55229 1.55228 9 1 9Z" stroke="none"/>
        <path d="M2 3C2 3.55228 2.44772 4 3 4C3.55228 4 4 3.55228 4 3C4 2.44772 3.55228 2 3 2C2.44772 2 2 2.44772 2 3Z" stroke="none"/>
    </symbol>

    <symbol xmlns="http://www.w3.org/2000/svg" viewBox="0 0 14 14" id="dark-14-14">
        <path fill-rule="evenodd" clip-rule="evenodd" d="M11.1627 9.98213C7.79973 9.73371 5.14844 6.92647 5.14844 3.5C5.14844 3.11681 5.18179 2.74072 5.24581 2.37473C3.42807 3.12327 2.14844 4.9122 2.14844 7C2.14844 9.76142 4.38701 12 7.14844 12C8.79061 12 10.2506 11.2076 11.1627 9.98213ZM12.3413 7.94698C13.1465 7.82255 14.06 8.38506 13.8088 9.16007C12.8985 11.969 10.2606 14 7.14844 14C3.28244 14 0.148438 10.866 0.148438 7C0.148438 3.13401 3.28244 0 7.14844 0C7.77382 0 8.01035 0.778271 7.70772 1.32555C7.35131 1.97009 7.14844 2.71135 7.14844 3.5C7.14844 5.98528 9.16316 8 11.6484 8C11.8841 8 12.1155 7.98189 12.3413 7.94698Z" stroke="none"/>
    </symbol>
</svg>