<svg width="0" height="0" class="hidden">
	<symbol viewBox="0 0 32 32" xmlns="http://www.w3.org/2000/svg" id="profile-32-32">
		<path fill-rule="evenodd" clip-rule="evenodd" d="M8.68417 8.50098C8.68417 7.12027 9.80345 6.00098 11.1842 6.00098C12.5649 6.00098 13.6842 7.12027 13.6842 8.50098C13.6842 9.88169 12.5649 11.001 11.1842 11.001C9.80345 11.001 8.68417 9.88169 8.68417 8.50098ZM11.1842 3.00098C8.1466 3.00098 5.68417 5.46341 5.68417 8.50098C5.68417 11.5385 8.1466 14.001 11.1842 14.001C14.2217 14.001 16.6842 11.5385 16.6842 8.50098C16.6842 5.46341 14.2217 3.00098 11.1842 3.00098ZM14.2141 16C17.3296 16 20.1207 17.9261 21.2262 20.8389L22.0143 22.9155C23.1318 25.8601 20.9565 29.0122 17.8071 29.0122H4.50414C1.35466 29.0122 -0.820566 25.8601 0.296931 22.9155L1.08505 20.8389C2.19049 17.9261 4.98157 16 8.09706 16H14.2141ZM18.4213 21.9033C17.7581 20.1556 16.0834 19 14.2141 19H8.09706C6.22776 19 4.55312 20.1556 3.88985 21.9033L3.10174 23.98C2.72924 24.9615 3.45431 26.0122 4.50414 26.0122H17.8071C18.8569 26.0122 19.582 24.9615 19.2095 23.98L18.4213 21.9033ZM17.9951 4.5127C17.9951 3.68427 18.6667 3.0127 19.4951 3.0127C22.5327 3.0127 24.9951 5.47513 24.9951 8.5127C24.9951 11.5503 22.5327 14.0127 19.4951 14.0127C18.6667 14.0127 17.9951 13.3411 17.9951 12.5127C17.9951 11.6843 18.6667 11.0127 19.4951 11.0127C20.8758 11.0127 21.9951 9.89341 21.9951 8.5127C21.9951 7.13198 20.8758 6.0127 19.4951 6.0127C18.6667 6.0127 17.9951 5.34112 17.9951 4.5127ZM27.0357 21.2537C26.5186 19.8967 25.2173 19 23.7651 19H23.5039C22.6755 19 22.0039 18.3284 22.0039 17.5C22.0039 16.6716 22.6755 16 23.5039 16H23.7651C26.462 16 28.8787 17.6653 29.839 20.1854L30.8734 22.8998C31.9958 25.8453 29.8204 29.0022 26.6683 29.0022H25.5C24.6716 29.0022 24 28.3306 24 27.5022C24 26.6738 24.6716 26.0022 25.5 26.0022H26.6683C27.719 26.0022 28.4442 24.9499 28.07 23.9681L27.0357 21.2537Z" />
	</symbol>
	<symbol viewBox="0 0 32 32" xmlns="http://www.w3.org/2000/svg" id="orders-32-32">
		<path fill-rule="evenodd" clip-rule="evenodd" d="M0 25V11.9943C0 11.1633 0.129477 10.3374 0.383771 9.54628L1.89074 4.85794C2.82123 1.96306 5.5142 0 8.55494 0H23.4451C26.4858 0 29.1788 1.96307 30.1093 4.85794L31.6162 9.54628L30 10.0658L31.6162 9.54628C31.8705 10.3374 32 11.1633 32 11.9943V25C32 28.866 28.866 32 25 32H7C3.13401 32 0 28.866 0 25ZM27.2532 5.77597L28.2948 9.0166H3.70519L4.74682 5.77596C5.27853 4.12175 6.81737 3 8.55494 3H23.4451C25.1826 3 26.7215 4.12175 27.2532 5.77597ZM29 12.0166H3V25C3 27.2091 4.79086 29 7 29H25C27.2091 29 29 27.2091 29 25V12.0166ZM11.5039 14.999C10.6755 14.999 10.0039 15.6706 10.0039 16.499C10.0039 17.3274 10.6755 17.999 11.5039 17.999H20.4984C21.3268 17.999 21.9984 17.3274 21.9984 16.499C21.9984 15.6706 21.3268 14.999 20.4984 14.999H11.5039Z" />
	</symbol>
	<symbol  viewBox="0 0 32 32" xmlns="http://www.w3.org/2000/svg" id="help-32-32">
		<path fill-rule="evenodd" clip-rule="evenodd" d="M16 32C7.16344 32 0 24.8366 0 16C0 7.16344 7.16344 0 16 0C24.8366 0 32 7.16344 32 16C32 24.8366 24.8366 32 16 32ZM5.69828 8.0696C4.00633 10.2642 3 13.0146 3 16C3 19.1134 4.09445 21.9711 5.9196 24.2095L9.48513 20.644C8.55012 19.3346 8 17.7316 8 16C8 14.3976 8.47114 12.9052 9.28245 11.6538L5.69828 8.0696ZM7.79073 5.91941L11.3563 9.48495C12.6656 8.55006 14.2685 8 16 8C17.7316 8 19.3346 8.55013 20.644 9.48513L24.2095 5.9196C21.9711 4.09445 19.1134 3 16 3C12.8867 3 10.0291 4.09437 7.79073 5.91941ZM26.3019 8.06984L22.7177 11.654C23.5289 12.9054 24 14.3977 24 16C24 17.7315 23.4499 19.3344 22.515 20.6437L26.0806 24.2093C27.9056 21.9709 29 19.1133 29 16C29 13.0147 27.9937 10.2644 26.3019 8.06984ZM23.9304 26.3017L20.3462 22.7176C19.0948 23.5289 17.6024 24 16 24C14.3977 24 12.9054 23.5289 11.654 22.7177L8.06984 26.3019C10.2644 27.9937 13.0147 29 16 29C18.9854 29 21.7358 27.9937 23.9304 26.3017ZM18.146 20.5173C19.0299 20.0967 19.7709 19.4242 20.2761 18.5927C20.2999 18.5536 20.3231 18.5142 20.3458 18.4744C20.7621 17.7448 21 16.9002 21 16C21 15.232 20.8269 14.5045 20.5175 13.8543C20.0968 12.9702 19.4243 12.2292 18.5927 11.7239C18.5537 11.7002 18.5144 11.677 18.4747 11.6544C17.745 11.2379 16.9003 11 16 11C15.0998 11 14.2552 11.2379 13.5256 11.6542C12.6465 12.1559 11.9343 12.9165 11.4931 13.8323C11.4896 13.8395 11.4861 13.8467 11.4827 13.854C11.1732 14.5043 11 15.2319 11 16C11 16.9003 11.2379 17.745 11.6544 18.4747C12.156 19.3537 12.9166 20.0657 13.8323 20.5069C13.8396 20.5105 13.8469 20.514 13.8543 20.5175C14.5045 20.8269 15.232 21 16 21C16.7681 21 17.4957 20.8268 18.146 20.5173Z" />
	</symbol>
	<symbol viewBox="0 0 32 32" xmlns="http://www.w3.org/2000/svg" id="subscribe-32-32">
		<path fill-rule="evenodd" clip-rule="evenodd" d="M26 3H6C2.68629 3 0 5.68629 0 9V24C0 27.3137 2.68629 30 6 30H26C29.3137 30 32 27.3137 32 24V9C32 5.68629 29.3137 3 26 3ZM5.74469 6.01071C5.82885 6.00362 5.914 6 6 6H26C26.086 6 26.1711 6.00362 26.2553 6.01071L16.9684 13.8613C16.4093 14.3339 15.5907 14.3339 15.0316 13.8613L5.74469 6.01071ZM3.24019 7.82184C3.08558 8.18353 3 8.58177 3 9V24C3 25.6569 4.34315 27 6 27H26C27.6569 27 29 25.6569 29 24V9C29 8.58177 28.9144 8.18353 28.7598 7.82184L18.9051 16.1524C17.2279 17.5702 14.7721 17.5702 13.0949 16.1524L3.24019 7.82184Z" />
	</symbol>
	<symbol viewBox="0 0 32 32" xmlns="http://www.w3.org/2000/svg" id="favorite-32-32">
		<path fill-rule="evenodd" clip-rule="evenodd" d="M14.087 6.86637C13.9571 6.7593 13.8355 6.6407 13.7238 6.51132C12.6128 5.22424 11.2832 4.5 9.81507 4.5C7.53201 4.5 5.8798 5.36146 4.77162 6.70814C3.63731 8.0866 3 10.0684 3 12.375C3 15.5657 4.96767 18.6809 7.78187 21.425C10.3689 23.9476 13.5226 26.0088 16.0056 27.3409C18.4815 26.0358 21.6314 23.9884 24.2166 21.4676C27.0288 18.7255 29 15.5952 29 12.375C29 10.0596 28.381 8.079 27.259 6.70447C26.166 5.36537 24.5172 4.5 22.1809 4.5C20.672 4.5 19.3644 5.22721 18.2743 6.50134C18.1676 6.62601 18.0517 6.74078 17.9281 6.84499L17.2745 7.89018C17.0007 8.32801 16.5209 8.59422 16.0045 8.59487C15.4882 8.59552 15.0077 8.33051 14.7329 7.89337L14.087 6.86637ZM15.9947 4.55101C15.3414 3.79411 14.5799 3.12315 13.7197 2.60454C12.5831 1.91926 11.2743 1.5 9.81507 1.5C6.6876 1.5 4.16565 2.72321 2.45511 4.8019C0.777692 6.84034 0 9.55095 0 12.375C0 16.7826 2.6725 20.6331 5.68749 23.5729C8.74863 26.5578 12.4645 28.9019 15.2005 30.3064C15.6987 30.5621 16.2857 30.5646 16.786 30.3132C19.5282 28.9352 23.2475 26.6027 26.311 23.6156C29.3304 20.6713 32 16.8068 32 12.375C32 9.56492 31.2522 6.8523 29.5831 4.80744C27.8774 2.7178 25.3481 1.5 22.1809 1.5C20.6919 1.5 19.3738 1.924 18.2374 2.61511C17.3865 3.13261 16.6374 3.79986 15.9947 4.55101Z" />
	</symbol>
</svg>