<svg width="0" height="0" class="hidden">
    <symbol viewBox="0 0 18 18" xmlns="http://www.w3.org/2000/svg" id="main-18-18">
        <path fill-rule="evenodd" clip-rule="evenodd" d="M10.3726 0.568791C9.60198 -0.158347 8.39802 -0.158347 7.62741 0.568791L0.313705 7.46993C0.113483 7.65886 0 7.92197 0 8.19725V17C0 17.5523 0.447715 18 1 18H6C6.55228 18 7 17.5523 7 17C7 17 7 17 7 16.9999V11.9999C7 10.8954 7.89543 9.99993 9 9.99993C10.1046 9.99993 11 10.8954 11 11.9999V16.9999C11 17 11 17 11 17C11 17.5523 11.4477 18 12 18H17C17.5523 18 18 17.5523 18 17V8.19725C18 7.92197 17.8865 7.65886 17.6863 7.46993L10.3726 0.568791ZM13 16H16V8.62857L9 2.02344L2 8.62857V16H5V11.9999C5 9.79079 6.79086 7.99993 9 7.99993C11.2091 7.99993 13 9.79079 13 11.9999V16Z"/>
    </symbol>
    <symbol viewBox="0 0 18 16" xmlns="http://www.w3.org/2000/svg" id="burger-18-16">
        <path fill-rule="evenodd" clip-rule="evenodd" d="M0 1C0 0.447715 0.447715 0 1 0H2C2.55228 0 3 0.447715 3 1C3 1.55228 2.55228 2 2 2H1C0.447715 2 0 1.55228 0 1ZM5 1C5 0.447715 5.44772 0 6 0H17C17.5523 0 18 0.447715 18 1C18 1.55228 17.5523 2 17 2H6C5.44772 2 5 1.55228 5 1ZM0 8C0 7.44772 0.447715 7 1 7H2C2.55228 7 3 7.44772 3 8C3 8.55228 2.55228 9 2 9H1C0.447715 9 0 8.55228 0 8ZM5 8C5 7.44772 5.44772 7 6 7H17C17.5523 7 18 7.44772 18 8C18 8.55228 17.5523 9 17 9H6C5.44772 9 5 8.55228 5 8ZM0 15C0 14.4477 0.447715 14 1 14H2C2.55228 14 3 14.4477 3 15C3 15.5523 2.55228 16 2 16H1C0.447715 16 0 15.5523 0 15ZM5 15C5 14.4477 5.44772 14 6 14H17C17.5523 14 18 14.4477 18 15C18 15.5523 17.5523 16 17 16H6C5.44772 16 5 15.5523 5 15Z"/>
    </symbol>
    <symbol viewBox="0 0 18 18" xmlns="http://www.w3.org/2000/svg" id="requisites-18-18">
        <path fill-rule="evenodd" clip-rule="evenodd" d="M0 4C0 1.79086 1.79086 0 4 0H14C16.2091 0 18 1.79086 18 4V14C18 16.2091 16.2091 18 14 18H4C1.79086 18 0 16.2091 0 14V4ZM4 2C2.89543 2 2 2.89543 2 4H5V2H4ZM7 2V4H16C16 2.89543 15.1046 2 14 2H7ZM5 6H2V8H5V6ZM2 12V10H5V12H2ZM2 14C2 15.1046 2.89543 16 4 16H5V14H2ZM7 14V16H14C15.1046 16 16 15.1046 16 14H7ZM16 12V10H7V12H16ZM16 6V8H7V6H16Z"/>
    </symbol>
    <symbol viewBox="0 0 18 18" xmlns="http://www.w3.org/2000/svg" id="blog-18-18">
        <path fill-rule="evenodd" clip-rule="evenodd" d="M13 0V1C13 0 12.9997 0 13 0H13.0011L13.0023 2.38419e-06L13.0054 1.16229e-05L13.0138 6.25253e-05L13.0391 0.000378489C13.0597 0.000716388 13.0877 0.00135267 13.1224 0.00254714C13.1915 0.00493294 13.2877 0.0095641 13.4048 0.0185705C13.6376 0.0364779 13.9601 0.0722161 14.3211 0.144419C15.0048 0.281159 15.9946 0.58035 16.7071 1.29289C17.4197 2.00544 17.7188 2.99519 17.8556 3.67888C17.9278 4.0399 17.9635 4.36238 17.9814 4.59518C17.9904 4.71226 17.9951 4.80846 17.9975 4.87765C17.9986 4.91229 17.9993 4.94029 17.9996 4.9609L17.9999 4.98623L18 4.99459L18 4.99893C18 4.99919 18 5 17 5H18C18 5.26522 17.8946 5.51957 17.7071 5.70711L11.3494 12.0648C10.791 12.6232 10.0798 13.0038 9.30543 13.1587L9.08652 13.2025C9.08612 13.2026 9.08573 13.2027 9.08533 13.2027L6.66699 13.6864C6.66719 13.6864 6.66679 13.6864 6.66699 13.6864L5.19612 13.9806C4.86826 14.0462 4.52932 13.9435 4.29289 13.7071C4.05647 13.4707 3.95385 13.1317 4.01942 12.8039L4.84128 8.69457C4.99615 7.92021 5.37677 7.20901 5.93518 6.65061L12.2929 0.292893C12.4804 0.105357 12.7348 0 13 0ZM6.73349 9.43157L6.27476 11.7252L8.56843 11.2665C8.35941 10.8949 8.09802 10.5122 7.79289 10.2071C7.48776 9.90198 7.1051 9.64059 6.73349 9.43157ZM10.3073 10.2784C10.0413 9.80641 9.67732 9.26311 9.20711 8.79289C8.73689 8.32268 8.19359 7.95872 7.72156 7.69265L13.3892 2.02498C13.5431 2.04058 13.7291 2.06563 13.9289 2.10558C14.4952 2.21884 15.0054 2.41965 15.2929 2.70711C15.5803 2.99456 15.7812 3.50481 15.8944 4.07112C15.9344 4.27088 15.9594 4.45691 15.975 4.61077L10.3073 10.2784Z" />
        <path d="M4 5C2.89543 5 2 5.89543 2 7V14C2 15.1046 2.89543 16 4 16H11C12.1046 16 13 15.1046 13 14V13C13 12.4477 13.4477 12 14 12C14.5523 12 15 12.4477 15 13V14C15 16.2091 13.2091 18 11 18H4C1.79086 18 0 16.2091 0 14V7C0 4.79086 1.79086 3 4 3H5C5.55228 3 6 3.44772 6 4C6 4.55228 5.55228 5 5 5H4Z" />
    </symbol>
    <symbol viewBox="0 0 18 20" xmlns="http://www.w3.org/2000/svg" id="sale-18-20">
        <path fill-rule="evenodd" clip-rule="evenodd" d="M9.08723 1.65885L1.35625 9.77638C-0.159603 11.368 0.968606 14.0005 3.1666 14.0005H5.29201L4.71284 15.8828C3.93657 18.4057 7.09221 20.2536 8.91263 18.3422L16.6436 10.2247C18.1595 8.63301 17.0312 6.00052 14.8333 6.00052H12.7078L13.287 4.11821C14.0633 1.59534 10.9076 -0.252582 9.08723 1.65885ZM3.1666 12.0005C2.727 12.0005 2.50135 11.474 2.80452 11.1557L10.5355 3.03816C10.8996 2.65588 11.5307 3.02546 11.3755 3.53004L10.199 7.35347C10.1001 7.675 10.3405 8.00052 10.6769 8.00052H14.8333C15.2729 8.00052 15.4985 8.52702 15.1953 8.84535L7.46435 16.9629C7.10027 17.3452 6.46914 16.9756 6.62439 16.471L7.80084 12.6476C7.89977 12.326 7.65935 12.0005 7.32295 12.0005H3.1666Z" />
    </symbol>
    <symbol viewBox="0 0 18 18" xmlns="http://www.w3.org/2000/svg" id="contacts-18-18">
        <path d="M9 8C10.1027 8 10.9966 7.10457 10.9966 6C10.9966 4.89543 10.1027 4 9 4C7.89729 4 7.00336 4.89543 7.00336 6C7.00336 7.10457 7.89729 8 9 8Z"/>
        <path fill-rule="evenodd" clip-rule="evenodd" d="M3.01009 6C3.01009 2.68629 5.69186 0 9 0C12.3081 0 14.9899 2.68629 14.9899 6C14.9899 7.47995 14.4537 8.83698 13.5665 9.883L9.77956 14.6247C9.5147 14.9563 9.06962 15.0842 8.66955 14.9436C8.26948 14.8031 8.00168 14.4247 8.00168 14V11.917C5.16874 11.441 3.01009 8.973 3.01009 6ZM9 2C6.79458 2 5.00673 3.79086 5.00673 6C5.00673 8.20914 6.79458 10 9 10C9.55136 10 9.99832 10.4477 9.99832 11V11.1492L12.017 8.62156C12.0238 8.61314 12.0306 8.60484 12.0376 8.59665C12.6341 7.89738 12.9933 6.99198 12.9933 6C12.9933 3.79086 11.2054 2 9 2Z"/>
        <path d="M3.67793 11.2567C4.08775 11.6262 4.12097 12.2585 3.75214 12.669L2.25879 14.331C1.68059 14.9746 2.13652 16 3.00083 16H14.9992C15.8635 16 16.3194 14.9746 15.7412 14.331L14.2479 12.669C13.879 12.2585 13.9123 11.6262 14.3221 11.2567C14.7319 10.8872 15.3631 10.9205 15.732 11.331L17.2253 12.9931C18.9599 14.9237 17.5921 18 14.9992 18H3.00083C0.407886 18 -0.959887 14.9237 0.774701 12.9931L2.26805 11.331C2.63688 10.9205 3.26811 10.8872 3.67793 11.2567Z"/>
    </symbol>
    <symbol viewBox="0 0 18 18" xmlns="http://www.w3.org/2000/svg" id="services-18-18">
        <path d="M6.00001 11C6.00001 9.34315 7.34315 8 9.00001 8C9.55229 8 10 7.55228 10 7C10 6.44772 9.55229 6 9.00001 6C6.23858 6 4.00001 8.23858 4.00001 11C4.00001 11.5523 4.44772 12 5.00001 12C5.55229 12 6.00001 11.5523 6.00001 11Z"/>
        <path fill-rule="evenodd" clip-rule="evenodd" d="M6.00001 1C6.00001 0.447715 6.44772 0 7.00001 0H11C11.5523 0 12 0.447715 12 1C12 1.55228 11.5523 2 11 2H10V3.06189C13.9463 3.55399 17 6.92038 17 11V13.1339C17.2516 13.2793 17.4358 13.5319 17.4864 13.8356L17.9864 16.8356C18.0347 17.1256 17.953 17.4221 17.763 17.6464C17.573 17.8707 17.294 18 17 18H1.00001C0.706055 18 0.426991 17.8707 0.236988 17.6464C0.0469841 17.4221 -0.0347118 17.1256 0.0136136 16.8356L0.513614 13.8356C0.564227 13.5319 0.748439 13.2793 1.00001 13.1339V11C1.00001 6.92038 4.0537 3.55399 8.00001 3.06189V2H7.00001C6.44772 2 6.00001 1.55228 6.00001 1ZM9.00001 5C5.6863 5 3.00001 7.68629 3.00001 11V13H15V11C15 7.68629 12.3137 5 9.00001 5ZM2.34713 15L2.18047 16H15.8195L15.6529 15H2.34713Z"/>
    </symbol>
    <symbol viewBox="0 0 18 18" xmlns="http://www.w3.org/2000/svg" id="brands-18-18">
        <path fill-rule="evenodd" clip-rule="evenodd" d="M5.99753 5.00018C4.89341 5.00018 3.99835 5.89564 3.99835 7.00025V8.00028C3.99835 9.10489 4.89341 10.0004 5.99753 10.0004H9.99588C11.1 10.0004 11.9951 9.10489 11.9951 8.00028V7.00025C11.9951 5.89564 11.1 5.00018 9.99588 5.00018H5.99753ZM5.99753 7.00025H9.99588V8.00028H5.99753V7.00025Z"/>
        <path fill-rule="evenodd" clip-rule="evenodd" d="M0 3.00011C0 1.34319 1.34259 0 2.99876 0H12.6559C13.774 0 14.7992 0.622286 15.3156 1.61439L17.6581 6.11455C17.8773 6.53566 17.9902 6.99583 17.9968 7.45717C17.9989 7.48363 18 7.51038 18 7.53737V8.92523C18 9.29878 17.9303 9.66905 17.7944 10.017L15.4221 16.0917C14.9727 17.2425 13.864 18 12.629 18H2.99876C1.34259 18 0 16.6568 0 14.9999V3.00011ZM12.6559 15.0005C13.0512 15.0005 13.4349 14.9227 13.7887 14.7783L13.56 15.3638C13.4102 15.7474 13.0406 15.9999 12.629 15.9999H2.99876C2.44671 15.9999 1.99918 15.5522 1.99918 14.9999V14.8298C2.31183 14.9404 2.64827 15.0005 2.99876 15.0005H12.6559ZM2.99876 13.0005C2.44671 13.0005 1.99918 12.5527 1.99918 12.0004V3.00011C1.99918 2.4478 2.44671 2.00007 2.99876 2.00007H12.6559C13.0286 2.00007 13.3703 2.2075 13.5425 2.5382L15.8849 7.03836C16.0356 7.32784 16.0356 7.67268 15.8849 7.96217L13.5425 12.4623C13.3703 12.793 13.0286 13.0005 12.6559 13.0005H2.99876Z"/>
    </symbol>
    <symbol viewBox="0 0 18 18" xmlns="http://www.w3.org/2000/svg" id="reviews-18-18">
        <path d="M7 12C8.10457 12 9 11.1046 9 10C9 11.1046 9.89543 12 11 12C12.1046 12 13 11.1046 13 10C13 9.2431 12.5795 8.58441 11.9595 8.24474L12.3775 7.47936C12.6423 6.99467 12.464 6.38713 11.9793 6.12238C11.4946 5.85764 10.887 6.03594 10.6223 6.52064L9.27485 8.98752C9.10018 9.28449 9 9.63055 9 10C9 9.2431 8.57955 8.58441 7.95946 8.24474L8.37751 7.47936C8.64226 6.99467 8.46395 6.38713 7.97926 6.12238C7.49457 5.85764 6.88703 6.03594 6.62228 6.52064L5.27485 8.9875C5.10018 9.28448 5 9.63054 5 10C5 11.1046 5.89543 12 7 12Z"/>
        <path fill-rule="evenodd" clip-rule="evenodd" d="M0 5C0 2.23858 2.23858 0 5 0H13C15.7614 0 18 2.23858 18 5V13C18 15.7614 15.7614 18 13 18H2C0.895431 18 0 17.1046 0 16V5ZM5 2C3.34315 2 2 3.34315 2 5V16H13C14.6569 16 16 14.6569 16 13V5C16 3.34315 14.6569 2 13 2H5Z"/>
    </symbol>
    <symbol viewBox="0 0 18 18" xmlns="http://www.w3.org/2000/svg" id="company-18-18">
        <path fill-rule="evenodd" clip-rule="evenodd" d="M0 3C0 1.34315 1.34315 0 3 0H15C16.6569 0 18 1.34315 18 3V15C18 16.6569 16.6569 18 15 18H3C1.34315 18 0 16.6569 0 15V3ZM3 2C2.44772 2 2 2.44772 2 3V15C2 15.5523 2.44772 16 3 16V2ZM5 2V16H15C15.5523 16 16 15.5523 16 15V3C16 2.44772 15.5523 2 15 2H14V8.79194C14 9.71429 12.9331 10.2271 12.2128 9.65089L10.5 8.28062L8.78716 9.65089C8.06692 10.2271 7 9.71429 7 8.79194V2H5ZM9 2H12V6.91938L11.1872 6.26911C10.7854 5.94771 10.2146 5.94771 9.81284 6.26911L9 6.91938V2Z"/>
    </symbol>
    <symbol viewBox="0 0 18 18" xmlns="http://www.w3.org/2000/svg" id="licenses-18-18">
        <path fill-rule="evenodd" clip-rule="evenodd" d="M9.00123 2.99869C6.79187 2.99869 5.00083 4.78877 5.00083 6.99694C5.00083 9.20512 6.79187 10.9952 9.00123 10.9952C11.2106 10.9952 13.0016 9.20512 13.0016 6.99694C13.0016 4.78877 11.2106 2.99869 9.00123 2.99869ZM7.00103 6.99694C7.00103 5.89286 7.89655 4.99782 9.00123 4.99782C10.1059 4.99782 11.0014 5.89286 11.0014 6.99694C11.0014 8.10103 10.1059 8.99607 9.00123 8.99607C7.89655 8.99607 7.00103 8.10103 7.00103 6.99694Z"/>
        <path fill-rule="evenodd" clip-rule="evenodd" d="M2.00053 6.99694C2.00053 3.13264 5.13485 0 9.00123 0C12.8676 0 16.0019 3.13264 16.0019 6.99694C16.0019 7.92235 15.8222 8.80579 15.4957 9.6143L17.8354 13.41C18.2362 14.0603 17.868 14.9109 17.1193 15.064L14.4877 15.6022L12.7025 17.6143C12.2047 18.1754 11.3033 18.0847 10.9273 17.4357L9.00428 14.1158L7.07217 17.4513C6.69623 18.1003 5.79483 18.191 5.297 17.6299L3.51184 15.6178L0.880167 15.0796C0.131529 14.9265 -0.236731 14.0759 0.164092 13.4257L2.50943 9.62085C2.18125 8.81057 2.00053 7.92485 2.00053 6.99694ZM3.67618 11.5393L2.54221 13.379L4.56604 13.7929L5.96605 15.3709L6.94186 13.6862C5.65633 13.2914 4.52851 12.5365 3.67618 11.5393ZM11.0658 13.6847L12.0335 15.3552L13.4335 13.7773L15.4573 13.3633L14.3302 11.5348C13.4785 12.5329 12.3511 13.2888 11.0658 13.6847ZM9.00123 1.99913C6.23953 1.99913 4.00073 4.23673 4.00073 6.99694C4.00073 9.75716 6.23953 11.9948 9.00123 11.9948C11.7629 11.9948 14.0017 9.75716 14.0017 6.99694C14.0017 4.23673 11.7629 1.99913 9.00123 1.99913Z"/>
    </symbol>
    <symbol viewBox="0 0 18 18" xmlns="http://www.w3.org/2000/svg" id="docs-18-18">
        <path d="M6 5C6 4.44772 6.44772 4 7 4H11C11.5523 4 12 4.44772 12 5C12 5.55228 11.5523 6 11 6H7C6.44772 6 6 5.55228 6 5Z"/>
        <path d="M7 7C6.44772 7 6 7.44772 6 8C6 8.55228 6.44772 9 7 9H11C11.5523 9 12 8.55228 12 8C12 7.44772 11.5523 7 11 7H7Z"/>
        <path fill-rule="evenodd" clip-rule="evenodd" d="M2 3C2 1.34315 3.34315 0 5 0H13C14.6569 0 16 1.34315 16 3V11C17.1046 11 18 11.8954 18 13V15C18 16.6569 16.6569 18 15 18H3C1.34314 18 0 16.6569 0 15V11C0 9.89543 0.895431 9 2 9V3ZM3 16H15C15.5523 16 16 15.5523 16 15V13H9.47214C9.0064 13 8.54706 12.8916 8.1305 12.6833L4.76393 11L2 11V15C2 15.5523 2.44771 16 3 16ZM13 2C13.5523 2 14 2.44772 14 3V11H9.47214C9.31689 11 9.16378 10.9639 9.02492 10.8944L5.65836 9.21115C5.38065 9.07229 5.07442 9 4.76393 9H4V3C4 2.44772 4.44772 2 5 2H13Z"/>
    </symbol>
    <symbol viewBox="0 0 18 18" xmlns="http://www.w3.org/2000/svg" id="landings-18-18">
        <path fill-rule="evenodd" clip-rule="evenodd" d="M14.9287 0.314497C16.2603 -0.530558 18 0.426607 18 2.00429V12.9937C18 14.5727 16.2577 15.5297 14.9263 14.682L10.7084 11.9966H9.38731L10.9487 16.6831C11.0503 16.9882 10.9992 17.3236 10.8112 17.5845C10.6233 17.8454 10.3214 18 9.99998 18H6.99997C6.6212 18 6.27494 17.7859 6.10555 17.4469L3.30107 11.835C1.39781 11.3099 0 9.56539 0 7.49419C0 5.00759 2.01472 2.99181 4.5 2.99181H10.71L14.9287 0.314497ZM5.61787 11.9966L7.61801 15.9989H8.61255L7.27913 11.9966H5.61787ZM10 9.99551V4.99287H4.5C3.11929 4.99287 2 6.11275 2 7.49419C2 8.87563 3.11929 9.99551 4.5 9.99551H10ZM16 12.9937L12 10.4471V4.5428L16 2.00429V12.9937Z"/>
    </symbol>
</svg>
